<?xml version="1.0" encoding="UTF-8"?>
<svg xmlns="http://www.w3.org/2000/svg" xmlns:xlink="http://www.w3.org/1999/xlink" width="32pt" height="32pt" viewBox="0 0 32 32" version="1.1">
<g id="surface1">
<path style=" stroke:none;fill-rule:nonzero;fill:rgb(0%,0%,0%);fill-opacity:1;" d="M 20.980469 25.386719 C 20.980469 25.601562 20.808594 25.777344 20.589844 25.777344 C 20.375 25.777344 20.199219 25.601562 20.199219 25.386719 C 20.199219 25.386719 20.160156 24.652344 19.230469 23.53125 C 18.3125 24.582031 18.277344 25.386719 18.277344 25.386719 C 18.277344 25.601562 18.105469 25.777344 17.886719 25.777344 C 17.671875 25.777344 17.496094 25.601562 17.496094 25.386719 C 17.496094 25.367188 17.5 25.347656 17.503906 25.328125 C 17.519531 25.082031 17.65625 24.117188 18.695312 22.957031 C 18.195312 22.5 17.722656 22.257812 17.714844 22.257812 C 17.523438 22.160156 17.445312 21.925781 17.542969 21.734375 C 17.636719 21.539062 17.871094 21.460938 18.0625 21.554688 C 18.089844 21.570312 18.65625 21.855469 19.25 22.40625 C 19.816406 21.902344 20.367188 21.582031 20.394531 21.566406 C 20.582031 21.460938 20.820312 21.523438 20.925781 21.710938 C 21.035156 21.898438 20.96875 22.136719 20.78125 22.246094 C 20.777344 22.25 20.289062 22.53125 19.785156 22.972656 C 20.828125 24.203125 20.960938 25.085938 20.976562 25.328125 C 20.980469 25.347656 20.980469 25.367188 20.980469 25.386719 Z M 13.308594 27.578125 C 13.515625 27.578125 13.683594 27.410156 13.683594 27.203125 L 13.683594 23.792969 C 13.683594 23.425781 13.753906 23.117188 13.890625 22.863281 C 14.027344 22.609375 14.191406 22.425781 14.390625 22.3125 C 14.589844 22.199219 14.800781 22.144531 15.027344 22.144531 C 15.394531 22.144531 15.71875 22.273438 16 22.535156 C 16.28125 22.800781 16.421875 23.144531 16.421875 23.578125 C 16.421875 23.996094 16.304688 24.351562 16.066406 24.636719 C 15.828125 24.921875 15.484375 24.992188 15.484375 24.992188 C 15.28125 25.03125 15.03125 25.058594 14.929688 25.046875 C 14.832031 25.039062 14.671875 25.011719 14.582031 24.996094 C 14.582031 24.996094 14.582031 24.996094 14.433594 24.902344 C 13.863281 24.550781 13.53125 25.796875 15.203125 25.796875 C 15.703125 25.796875 16.097656 25.609375 16.386719 25.386719 C 16.683594 25.140625 16.894531 24.859375 17.015625 24.539062 C 17.085938 24.363281 17.132812 24.203125 17.15625 24.054688 C 17.179688 23.90625 17.191406 23.746094 17.191406 23.578125 C 17.191406 23.257812 17.113281 22.929688 16.957031 22.597656 C 16.796875 22.265625 16.554688 21.988281 16.222656 21.765625 C 15.890625 21.539062 15.488281 21.425781 15.011719 21.425781 C 14.683594 21.425781 14.363281 21.503906 14.042969 21.660156 C 13.722656 21.8125 13.460938 22.050781 13.257812 22.378906 C 13.140625 22.558594 13.054688 22.746094 13 22.945312 C 12.945312 23.144531 12.9375 23.234375 12.9375 23.234375 C 12.925781 23.441406 12.917969 23.777344 12.917969 23.984375 L 12.917969 27.203125 C 12.917969 27.410156 13.085938 27.578125 13.292969 27.578125 Z M 9.503906 24.867188 C 9.773438 25.050781 10.199219 25.191406 10.75 25.058594 C 11.078125 24.976562 11.453125 24.8125 11.671875 24.484375 C 11.992188 24 11.4375 23.46875 10.933594 23.753906 C 9.382812 24.625 8.308594 23.128906 9.085938 22.101562 C 9.308594 21.808594 9.796875 21.503906 10.214844 21.464844 C 10.566406 21.433594 10.886719 21.472656 11.160156 21.539062 C 11.816406 21.207031 12.144531 22.246094 11.375 22.246094 C 11.085938 22.246094 10.777344 22.128906 10.503906 22.125 C 10.179688 22.125 9.902344 22.246094 9.757812 22.390625 C 9.242188 22.90625 9.765625 23.675781 10.640625 23.128906 C 11.707031 22.460938 13.144531 23.851562 12.066406 25.066406 C 11.113281 26.132812 8.980469 25.917969 8.707031 25.03125 C 8.523438 24.441406 9.46875 24.265625 9.503906 24.867188 Z M 9.503906 24.867188 "/>
</g>
</svg>
