<?xml version="1.0" encoding="UTF-8"?>
<svg xmlns="http://www.w3.org/2000/svg" xmlns:xlink="http://www.w3.org/1999/xlink" width="32pt" height="32pt" viewBox="0 0 32 32" version="1.1">
<g id="surface1">
<path style=" stroke:none;fill-rule:nonzero;fill:rgb(0%,0%,0%);fill-opacity:1;" d="M 9.492188 20.355469 C 9.285156 20.355469 9.117188 20.1875 9.117188 19.980469 L 9.117188 19.960938 C 9.117188 19.753906 9.285156 19.585938 9.492188 19.585938 L 11.296875 19.585938 C 11.503906 19.585938 11.835938 19.625 12.039062 19.667969 C 12.039062 19.667969 12.625 19.800781 12.625 20.230469 C 12.625 20.394531 12.574219 20.542969 12.480469 20.679688 C 12.382812 20.816406 12.234375 20.976562 12.03125 21.164062 L 11.355469 21.722656 C 11.199219 21.855469 11.234375 21.988281 11.4375 22.019531 C 11.4375 22.019531 12.105469 22.121094 12.484375 22.4375 C 12.863281 22.75 13.050781 23.21875 13.050781 23.839844 C 13.050781 24.382812 12.871094 24.828125 12.507812 25.179688 C 12.144531 25.527344 11.707031 25.703125 11.195312 25.703125 L 9.351562 25.703125 C 9.148438 25.703125 8.976562 25.53125 8.976562 25.328125 L 8.976562 25.308594 C 8.976562 25.101562 9.148438 24.933594 9.351562 24.933594 L 10.660156 24.933594 C 10.867188 24.933594 11.203125 24.90625 11.40625 24.871094 C 11.40625 24.871094 11.683594 24.828125 11.890625 24.609375 C 11.996094 24.5 12.074219 24.378906 12.132812 24.25 C 12.1875 24.117188 12.214844 23.972656 12.214844 23.808594 C 12.214844 23.511719 12.097656 23.257812 11.863281 23.050781 C 11.742188 22.941406 11.605469 22.855469 11.445312 22.800781 C 11.289062 22.746094 11.101562 22.71875 10.886719 22.71875 L 10.207031 22.71875 C 10 22.71875 9.832031 22.585938 9.832031 22.421875 C 9.832031 22.257812 9.957031 22.011719 10.105469 21.871094 L 11.460938 20.609375 C 11.609375 20.46875 11.566406 20.355469 11.359375 20.355469 Z M 14.390625 27.101562 C 14.445312 26.902344 14.652344 26.785156 14.851562 26.835938 C 14.851562 26.835938 14.964844 26.867188 15.175781 26.902344 C 15.386719 26.9375 15.5625 26.957031 15.703125 26.957031 C 16.109375 26.957031 16.449219 26.839844 16.714844 26.609375 C 16.984375 26.375 17.117188 26.074219 17.117188 25.707031 L 17.117188 24.039062 C 17.117188 23.832031 17.097656 23.496094 17.074219 23.289062 C 17.074219 23.289062 17.054688 23.101562 16.929688 22.871094 C 16.804688 22.640625 16.648438 22.464844 16.457031 22.34375 C 16.269531 22.222656 16.0625 22.160156 15.835938 22.160156 C 15.449219 22.160156 15.117188 22.285156 14.832031 22.53125 C 14.546875 22.78125 14.402344 23.152344 14.402344 23.648438 C 14.402344 23.71875 14.417969 23.917969 14.4375 24.089844 C 14.4375 24.089844 14.4375 24.089844 14.503906 24.242188 C 14.570312 24.394531 14.671875 24.539062 14.800781 24.679688 C 15.046875 24.9375 15.375 25.066406 15.792969 25.066406 C 15.984375 25.066406 16.214844 25.015625 16.46875 24.894531 C 16.785156 24.738281 16.800781 25.148438 16.800781 25.148438 C 16.804688 25.355469 16.65625 25.589844 16.464844 25.667969 C 16.464844 25.667969 16.433594 25.679688 16.257812 25.726562 C 16.078125 25.773438 15.902344 25.796875 15.730469 25.796875 C 15.445312 25.796875 15.179688 25.742188 14.9375 25.636719 C 14.691406 25.527344 14.460938 25.363281 14.246094 25.140625 C 13.851562 24.726562 13.652344 24.230469 13.652344 23.648438 C 13.652344 22.894531 13.878906 22.335938 14.335938 21.972656 C 14.789062 21.609375 15.28125 21.425781 15.816406 21.425781 C 16.386719 21.425781 16.863281 21.617188 17.246094 21.996094 C 17.449219 22.1875 17.609375 22.398438 17.71875 22.628906 C 17.828125 22.859375 17.882812 23.109375 17.882812 23.382812 L 17.882812 25.15625 C 17.882812 25.363281 17.878906 25.636719 17.871094 25.765625 C 17.871094 25.765625 17.871094 25.765625 17.847656 25.898438 C 17.824219 26.035156 17.789062 26.183594 17.734375 26.34375 C 17.644531 26.660156 17.433594 26.960938 17.109375 27.253906 C 16.78125 27.542969 16.324219 27.691406 15.730469 27.691406 C 15.480469 27.691406 15.238281 27.683594 15.019531 27.632812 C 14.285156 27.46875 14.390625 27.101562 14.390625 27.101562 Z M 18.957031 27.578125 C 18.75 27.578125 18.582031 27.410156 18.582031 27.203125 L 18.582031 23.984375 C 18.582031 23.777344 18.59375 23.441406 18.605469 23.234375 C 18.605469 23.234375 18.609375 23.144531 18.664062 22.945312 C 18.71875 22.746094 18.804688 22.558594 18.921875 22.378906 C 19.125 22.050781 19.386719 21.8125 19.707031 21.660156 C 20.027344 21.503906 20.351562 21.425781 20.675781 21.425781 C 21.152344 21.425781 21.554688 21.539062 21.886719 21.765625 C 22.21875 21.988281 22.464844 22.265625 22.621094 22.597656 C 22.777344 22.929688 22.855469 23.257812 22.855469 23.578125 C 22.855469 23.746094 22.84375 23.90625 22.820312 24.054688 C 22.796875 24.203125 22.75 24.363281 22.683594 24.539062 C 22.558594 24.859375 22.351562 25.140625 22.054688 25.386719 C 21.761719 25.609375 21.367188 25.746094 20.867188 25.796875 C 20.519531 25.796875 20.160156 25.792969 19.886719 25.601562 C 19.515625 25.34375 19.578125 25.046875 19.578125 25.046875 C 19.621094 24.847656 19.753906 24.730469 19.878906 24.792969 C 20 24.855469 20.171875 24.933594 20.257812 24.964844 C 20.34375 25 20.496094 25.039062 20.597656 25.046875 C 20.699219 25.058594 20.945312 25.03125 21.148438 24.992188 C 21.148438 24.992188 21.492188 24.921875 21.730469 24.636719 C 21.96875 24.351562 22.089844 23.996094 22.089844 23.578125 C 22.089844 23.144531 21.949219 22.800781 21.664062 22.535156 C 21.382812 22.273438 21.058594 22.144531 20.691406 22.144531 C 20.464844 22.144531 20.253906 22.199219 20.054688 22.3125 C 19.859375 22.425781 19.691406 22.609375 19.554688 22.863281 C 19.417969 23.117188 19.347656 23.425781 19.347656 23.792969 L 19.347656 27.203125 C 19.347656 27.410156 19.179688 27.578125 18.972656 27.578125 Z M 18.957031 27.578125 "/>
</g>
</svg>
