<?xml version="1.0" encoding="UTF-8"?>
<svg xmlns="http://www.w3.org/2000/svg" xmlns:xlink="http://www.w3.org/1999/xlink" width="32pt" height="32pt" viewBox="0 0 32 32" version="1.1">
<g id="surface1">
<path style=" stroke:none;fill-rule:nonzero;fill:rgb(0%,0%,0%);fill-opacity:1;" d="M 9.125 22.46875 C 9.328125 22.148438 9.59375 21.894531 9.917969 21.707031 C 10.246094 21.519531 10.59375 21.425781 10.964844 21.425781 C 11.316406 21.425781 11.664062 21.515625 12.011719 21.691406 C 12.339844 21.839844 12.613281 22.082031 12.832031 22.414062 C 13.054688 22.746094 13.164062 23.136719 13.164062 23.578125 C 13.164062 23.898438 13.089844 24.226562 12.9375 24.566406 C 12.789062 24.902344 12.550781 25.191406 12.226562 25.429688 C 12.058594 25.554688 11.886719 25.644531 11.710938 25.707031 C 11.53125 25.765625 11.339844 25.796875 11.132812 25.796875 C 10.789062 25.796875 10.484375 25.75 10.214844 25.652344 C 9.945312 25.558594 9.699219 25.398438 9.476562 25.179688 C 9.253906 24.964844 9.085938 24.722656 8.972656 24.460938 C 8.859375 24.199219 8.804688 23.910156 8.804688 23.59375 L 8.804688 23.570312 C 8.804688 23.160156 8.910156 22.792969 9.125 22.46875 Z M 9.605469 23.542969 C 9.605469 23.960938 9.71875 24.320312 9.941406 24.617188 C 10.164062 24.917969 10.523438 25.066406 11.015625 25.066406 C 11.269531 25.066406 11.5 25.011719 11.707031 24.90625 C 11.910156 24.800781 12.070312 24.636719 12.179688 24.410156 C 12.289062 24.179688 12.34375 23.878906 12.34375 23.507812 C 12.34375 23.238281 12.277344 23.003906 12.144531 22.796875 C 12.027344 22.59375 11.867188 22.4375 11.65625 22.328125 C 11.449219 22.214844 11.222656 22.160156 10.980469 22.160156 C 10.546875 22.160156 10.207031 22.304688 9.972656 22.597656 C 9.847656 22.742188 9.757812 22.894531 9.695312 23.046875 C 9.636719 23.203125 9.605469 23.367188 9.605469 23.542969 Z M 14.457031 27.097656 C 14.519531 26.902344 14.730469 26.785156 14.929688 26.835938 C 14.929688 26.835938 15.042969 26.867188 15.253906 26.902344 C 15.464844 26.9375 15.640625 26.957031 15.78125 26.957031 C 16.1875 26.957031 16.527344 26.839844 16.792969 26.609375 C 17.0625 26.375 17.195312 26.074219 17.195312 25.707031 L 17.195312 24.039062 C 17.195312 23.832031 17.175781 23.496094 17.152344 23.289062 C 17.152344 23.289062 17.132812 23.101562 17.007812 22.871094 C 16.882812 22.640625 16.726562 22.464844 16.535156 22.34375 C 16.347656 22.222656 16.140625 22.160156 15.914062 22.160156 C 15.527344 22.160156 15.195312 22.285156 14.910156 22.53125 C 14.625 22.78125 14.480469 23.152344 14.480469 23.648438 C 14.480469 23.71875 14.496094 23.917969 14.515625 24.089844 C 14.515625 24.089844 14.515625 24.089844 14.582031 24.242188 C 14.648438 24.394531 14.75 24.539062 14.878906 24.679688 C 15.125 24.9375 15.453125 25.066406 15.871094 25.066406 C 16.046875 25.066406 16.257812 25.03125 16.480469 24.921875 C 17.011719 24.65625 17.21875 25.796875 15.808594 25.796875 C 15.523438 25.796875 15.257812 25.742188 15.015625 25.636719 C 14.769531 25.527344 14.539062 25.363281 14.324219 25.140625 C 13.929688 24.726562 13.730469 24.230469 13.730469 23.648438 C 13.730469 22.894531 13.957031 22.335938 14.414062 21.972656 C 14.867188 21.609375 15.359375 21.425781 15.894531 21.425781 C 16.464844 21.425781 16.941406 21.617188 17.324219 21.996094 C 17.527344 22.1875 17.6875 22.398438 17.796875 22.628906 C 17.90625 22.859375 17.960938 23.109375 17.960938 23.382812 L 17.960938 25.15625 C 17.960938 25.363281 17.957031 25.636719 17.949219 25.765625 C 17.949219 25.765625 17.949219 25.765625 17.925781 25.898438 C 17.902344 26.035156 17.867188 26.183594 17.8125 26.34375 C 17.722656 26.660156 17.511719 26.960938 17.1875 27.253906 C 16.859375 27.542969 16.402344 27.691406 15.808594 27.691406 C 15.558594 27.691406 15.320312 27.683594 15.097656 27.632812 C 14.34375 27.46875 14.457031 27.097656 14.457031 27.097656 Z M 22.410156 25.703125 C 22.203125 25.703125 22.035156 25.53125 22.035156 25.328125 L 22.035156 23.660156 C 22.035156 23.453125 22.011719 23.117188 21.980469 22.914062 C 21.980469 22.914062 21.980469 22.894531 21.867188 22.722656 C 21.753906 22.550781 21.589844 22.414062 21.378906 22.3125 C 21.164062 22.210938 20.925781 22.160156 20.65625 22.160156 C 20.542969 22.160156 20.445312 22.167969 20.371094 22.183594 C 20.292969 22.195312 20.191406 22.230469 20.066406 22.28125 C 19.855469 22.371094 19.671875 22.523438 19.519531 22.746094 C 19.363281 22.96875 19.289062 23.246094 19.289062 23.578125 C 19.289062 24.027344 19.425781 24.386719 19.699219 24.65625 C 19.972656 24.929688 20.292969 25.066406 20.65625 25.066406 C 20.886719 25.066406 21.085938 24.976562 21.300781 24.871094 C 21.84375 24.613281 22.011719 25.796875 20.585938 25.796875 C 20.046875 25.796875 19.566406 25.59375 19.148438 25.1875 C 18.730469 24.777344 18.519531 24.242188 18.519531 23.578125 C 18.519531 22.976562 18.710938 22.46875 19.097656 22.050781 C 19.480469 21.636719 20.019531 21.425781 20.71875 21.425781 C 21.148438 21.425781 21.527344 21.515625 21.847656 21.695312 C 22.171875 21.871094 22.414062 22.105469 22.578125 22.394531 C 22.65625 22.546875 22.71875 22.695312 22.761719 22.84375 C 22.800781 22.992188 22.820312 23.160156 22.820312 23.347656 L 22.820312 25.328125 C 22.820312 25.53125 22.652344 25.703125 22.445312 25.703125 Z M 22.410156 25.703125 "/>
</g>
</svg>
