<?xml version="1.0" encoding="UTF-8"?>
<svg xmlns="http://www.w3.org/2000/svg" xmlns:xlink="http://www.w3.org/1999/xlink" width="32pt" height="32pt" viewBox="0 0 32 32" version="1.1">
<g id="surface1">
<path style=" stroke:none;fill-rule:nonzero;fill:rgb(0%,0%,0%);fill-opacity:1;" d="M 9.011719 21.890625 C 9.011719 21.683594 9.179688 21.515625 9.386719 21.515625 L 9.40625 21.515625 C 9.613281 21.515625 9.78125 21.683594 9.78125 21.890625 L 9.78125 23.867188 C 9.78125 24.074219 9.808594 24.410156 9.839844 24.613281 C 9.839844 24.613281 9.847656 24.65625 9.976562 24.820312 C 10.109375 24.984375 10.285156 25.066406 10.511719 25.066406 C 11.066406 25.066406 11.339844 24.75 11.339844 24.121094 L 11.339844 21.890625 C 11.339844 21.683594 11.511719 21.515625 11.714844 21.515625 L 11.75 21.515625 C 11.957031 21.515625 12.125 21.683594 12.125 21.890625 L 12.125 23.816406 C 12.125 24.023438 12.179688 24.351562 12.242188 24.546875 C 12.242188 24.546875 12.40625 25.066406 12.964844 25.066406 C 13.183594 25.066406 13.367188 24.984375 13.503906 24.820312 C 13.632812 24.65625 13.695312 24.417969 13.695312 24.101562 L 13.695312 21.890625 C 13.695312 21.683594 13.867188 21.515625 14.070312 21.515625 L 14.089844 21.515625 C 14.296875 21.515625 14.464844 21.683594 14.464844 21.890625 L 14.464844 24.066406 C 14.464844 24.273438 14.445312 24.609375 14.425781 24.816406 C 14.425781 24.816406 14.425781 24.820312 14.347656 24.976562 C 14.269531 25.132812 14.148438 25.285156 13.984375 25.429688 C 13.699219 25.675781 13.378906 25.796875 13.015625 25.796875 C 12.714844 25.796875 12.472656 25.753906 12.289062 25.664062 C 12.105469 25.578125 11.921875 25.421875 11.734375 25.203125 C 11.59375 25.40625 11.421875 25.554688 11.21875 25.652344 C 11.015625 25.75 10.78125 25.796875 10.511719 25.796875 C 10.269531 25.796875 10.050781 25.753906 9.859375 25.671875 C 9.667969 25.585938 9.503906 25.460938 9.371094 25.300781 C 9.132812 24.992188 9.011719 24.671875 9.011719 24.347656 Z M 19 25.703125 C 18.792969 25.703125 18.625 25.53125 18.625 25.328125 L 18.625 23.660156 C 18.625 23.453125 18.601562 23.117188 18.570312 22.914062 C 18.570312 22.914062 18.570312 22.894531 18.457031 22.722656 C 18.34375 22.550781 18.179688 22.414062 17.964844 22.3125 C 17.753906 22.210938 17.515625 22.160156 17.246094 22.160156 C 17.128906 22.160156 17.035156 22.167969 16.960938 22.183594 C 16.882812 22.195312 16.78125 22.230469 16.652344 22.28125 C 16.445312 22.371094 16.261719 22.523438 16.109375 22.746094 C 15.953125 22.96875 15.878906 23.246094 15.878906 23.578125 C 15.878906 24.027344 16.015625 24.386719 16.289062 24.65625 C 16.5625 24.929688 16.878906 25.066406 17.246094 25.066406 C 17.5 25.066406 17.734375 24.988281 17.953125 24.832031 C 18.363281 24.53125 18.738281 25.796875 17.175781 25.796875 C 16.636719 25.796875 16.15625 25.59375 15.738281 25.1875 C 15.320312 24.777344 15.109375 24.242188 15.109375 23.578125 C 15.109375 22.976562 15.300781 22.46875 15.6875 22.050781 C 16.070312 21.636719 16.609375 21.425781 17.308594 21.425781 C 17.738281 21.425781 18.113281 21.515625 18.4375 21.695312 C 18.761719 21.871094 19.003906 22.105469 19.167969 22.394531 C 19.246094 22.546875 19.308594 22.695312 19.347656 22.84375 C 19.390625 22.992188 19.410156 23.160156 19.410156 23.347656 L 19.410156 25.328125 C 19.410156 25.53125 19.242188 25.703125 19.035156 25.703125 Z M 19.761719 21.867188 C 19.6875 21.671875 19.796875 21.515625 20.003906 21.515625 L 20.09375 21.515625 C 20.296875 21.515625 20.527344 21.671875 20.601562 21.863281 L 21.566406 24.417969 C 21.636719 24.609375 21.757812 24.609375 21.828125 24.417969 L 22.785156 21.867188 C 22.855469 21.671875 23.085938 21.515625 23.292969 21.515625 L 23.363281 21.515625 C 23.566406 21.515625 23.675781 21.671875 23.605469 21.867188 L 22.402344 25.046875 C 22.332031 25.238281 22.210938 25.496094 22.140625 25.617188 C 22.140625 25.617188 22.140625 25.617188 22.035156 25.699219 C 21.9375 25.765625 21.816406 25.796875 21.679688 25.796875 C 21.363281 25.796875 21.164062 25.644531 21.078125 25.34375 Z M 19.761719 21.867188 "/>
</g>
</svg>
