<?xml version="1.0" encoding="UTF-8"?>
<svg xmlns="http://www.w3.org/2000/svg" xmlns:xlink="http://www.w3.org/1999/xlink" width="32pt" height="32pt" viewBox="0 0 32 32" version="1.1">
<g id="surface1">
<path style=" stroke:none;fill-rule:nonzero;fill:rgb(0%,0%,0%);fill-opacity:1;" d="M 9.386719 25.703125 C 9.179688 25.703125 9.011719 25.53125 9.011719 25.328125 L 9.011719 23.199219 C 9.011719 22.992188 9.019531 22.714844 9.027344 22.578125 C 9.027344 22.578125 9.027344 22.578125 9.0625 22.472656 C 9.09375 22.371094 9.144531 22.253906 9.222656 22.125 C 9.339844 21.921875 9.523438 21.75 9.773438 21.609375 C 10.015625 21.488281 10.285156 21.425781 10.582031 21.425781 C 11.054688 21.425781 11.4375 21.625 11.734375 22.019531 C 12.007812 21.625 12.429688 21.425781 13 21.425781 C 13.25 21.425781 13.488281 21.488281 13.714844 21.613281 C 13.941406 21.738281 14.121094 21.910156 14.257812 22.128906 C 14.394531 22.347656 14.464844 22.578125 14.464844 22.824219 L 14.464844 25.328125 C 14.464844 25.53125 14.296875 25.703125 14.089844 25.703125 L 14.070312 25.703125 C 13.867188 25.703125 13.695312 25.53125 13.695312 25.328125 L 13.695312 23.433594 C 13.695312 23.226562 13.675781 22.890625 13.648438 22.6875 C 13.648438 22.6875 13.640625 22.617188 13.527344 22.433594 C 13.414062 22.25 13.21875 22.160156 12.945312 22.160156 C 12.667969 22.160156 12.457031 22.25 12.320312 22.429688 C 12.191406 22.609375 12.125 22.820312 12.125 23.058594 L 12.125 25.328125 C 12.125 25.53125 11.957031 25.703125 11.75 25.703125 L 11.714844 25.703125 C 11.511719 25.703125 11.339844 25.53125 11.339844 25.328125 L 11.339844 23.484375 C 11.339844 23.28125 11.320312 22.945312 11.296875 22.738281 C 11.296875 22.738281 11.277344 22.582031 11.144531 22.414062 C 11.015625 22.246094 10.820312 22.160156 10.566406 22.160156 C 10.261719 22.160156 10.054688 22.25 9.945312 22.433594 C 9.835938 22.617188 9.78125 22.859375 9.78125 23.164062 L 9.78125 25.328125 C 9.78125 25.53125 9.613281 25.703125 9.40625 25.703125 Z M 17.378906 23.519531 C 17.585938 23.519531 17.753906 23.351562 17.753906 23.144531 L 17.753906 21.246094 C 17.753906 21.039062 17.839844 20.726562 17.941406 20.546875 L 18.402344 19.765625 C 18.503906 19.589844 18.589844 19.613281 18.589844 19.820312 L 18.589844 23.144531 C 18.589844 23.351562 18.757812 23.519531 18.964844 23.519531 L 19.132812 23.519531 C 19.335938 23.519531 19.507812 23.691406 19.507812 23.894531 L 19.507812 23.914062 C 19.507812 24.121094 19.335938 24.289062 19.132812 24.289062 L 18.964844 24.289062 C 18.757812 24.289062 18.589844 24.457031 18.589844 24.664062 L 18.589844 25.328125 C 18.589844 25.53125 18.421875 25.703125 18.214844 25.703125 L 18.128906 25.703125 C 17.921875 25.703125 17.753906 25.53125 17.753906 25.328125 L 17.753906 24.664062 C 17.753906 24.457031 17.585938 24.289062 17.378906 24.289062 L 15.894531 24.289062 C 15.691406 24.289062 15.359375 24.242188 15.160156 24.183594 C 15.160156 24.183594 14.964844 24.128906 14.964844 23.808594 C 14.96875 23.746094 14.976562 23.695312 14.984375 23.664062 C 14.992188 23.632812 15.007812 23.585938 15.03125 23.523438 L 17.03125 19.914062 C 17.128906 19.734375 17.378906 19.585938 17.585938 19.585938 L 17.734375 19.585938 C 17.941406 19.585938 18.027344 19.734375 17.925781 19.914062 L 16.09375 23.195312 C 15.996094 23.375 16.082031 23.519531 16.289062 23.519531 Z M 23.859375 25.703125 C 23.652344 25.703125 23.484375 25.53125 23.484375 25.328125 L 23.484375 23.660156 C 23.484375 23.453125 23.460938 23.117188 23.429688 22.914062 C 23.429688 22.914062 23.425781 22.894531 23.3125 22.722656 C 23.199219 22.550781 23.039062 22.414062 22.824219 22.3125 C 22.613281 22.210938 22.375 22.160156 22.105469 22.160156 C 21.988281 22.160156 21.894531 22.167969 21.816406 22.183594 C 21.742188 22.195312 21.640625 22.230469 21.511719 22.28125 C 21.304688 22.371094 21.121094 22.523438 20.96875 22.746094 C 20.8125 22.96875 20.734375 23.246094 20.734375 23.578125 C 20.734375 24.027344 20.871094 24.386719 21.144531 24.65625 C 21.417969 24.929688 21.738281 25.066406 22.105469 25.066406 C 22.386719 25.066406 22.628906 24.945312 22.882812 24.777344 C 23.21875 24.550781 23.488281 25.796875 22.035156 25.796875 C 21.496094 25.796875 21.015625 25.59375 20.597656 25.1875 C 20.179688 24.777344 19.96875 24.242188 19.96875 23.578125 C 19.96875 22.976562 20.160156 22.46875 20.542969 22.050781 C 20.929688 21.636719 21.46875 21.425781 22.167969 21.425781 C 22.597656 21.425781 22.972656 21.515625 23.296875 21.695312 C 23.617188 21.871094 23.863281 22.105469 24.023438 22.394531 C 24.105469 22.546875 24.167969 22.695312 24.207031 22.84375 C 24.25 22.992188 24.269531 23.160156 24.269531 23.347656 L 24.269531 25.328125 C 24.269531 25.53125 24.101562 25.703125 23.894531 25.703125 Z M 23.859375 25.703125 "/>
</g>
</svg>
