<?xml version="1.0" encoding="UTF-8"?>
<svg xmlns="http://www.w3.org/2000/svg" xmlns:xlink="http://www.w3.org/1999/xlink" width="32pt" height="32pt" viewBox="0 0 32 32" version="1.1">
<g id="surface1">
<path style=" stroke:none;fill-rule:nonzero;fill:rgb(0%,0%,0%);fill-opacity:1;" d="M 9.386719 25.703125 C 9.179688 25.703125 9.011719 25.53125 9.011719 25.328125 L 9.011719 23.199219 C 9.011719 22.992188 9.019531 22.714844 9.027344 22.578125 C 9.027344 22.578125 9.027344 22.578125 9.0625 22.472656 C 9.09375 22.371094 9.144531 22.253906 9.222656 22.125 C 9.339844 21.921875 9.523438 21.75 9.773438 21.609375 C 10.015625 21.488281 10.285156 21.425781 10.582031 21.425781 C 11.054688 21.425781 11.4375 21.625 11.734375 22.019531 C 12.007812 21.625 12.429688 21.425781 13 21.425781 C 13.25 21.425781 13.488281 21.488281 13.714844 21.613281 C 13.941406 21.738281 14.121094 21.910156 14.257812 22.128906 C 14.394531 22.347656 14.464844 22.578125 14.464844 22.824219 L 14.464844 25.328125 C 14.464844 25.53125 14.296875 25.703125 14.089844 25.703125 L 14.070312 25.703125 C 13.867188 25.703125 13.695312 25.53125 13.695312 25.328125 L 13.695312 23.433594 C 13.695312 23.226562 13.675781 22.890625 13.648438 22.6875 C 13.648438 22.6875 13.640625 22.617188 13.527344 22.433594 C 13.414062 22.25 13.21875 22.160156 12.945312 22.160156 C 12.667969 22.160156 12.457031 22.25 12.320312 22.429688 C 12.191406 22.609375 12.125 22.820312 12.125 23.058594 L 12.125 25.328125 C 12.125 25.53125 11.957031 25.703125 11.75 25.703125 L 11.714844 25.703125 C 11.511719 25.703125 11.339844 25.53125 11.339844 25.328125 L 11.339844 23.484375 C 11.339844 23.28125 11.320312 22.945312 11.296875 22.738281 C 11.296875 22.738281 11.277344 22.582031 11.144531 22.414062 C 11.015625 22.246094 10.820312 22.160156 10.566406 22.160156 C 10.261719 22.160156 10.054688 22.25 9.945312 22.433594 C 9.835938 22.617188 9.78125 22.859375 9.78125 23.164062 L 9.78125 25.328125 C 9.78125 25.53125 9.613281 25.703125 9.40625 25.703125 Z M 15.625 27.578125 C 15.417969 27.578125 15.25 27.410156 15.25 27.203125 L 15.25 23.984375 C 15.25 23.777344 15.257812 23.441406 15.273438 23.234375 C 15.273438 23.234375 15.277344 23.144531 15.332031 22.945312 C 15.386719 22.746094 15.472656 22.558594 15.589844 22.378906 C 15.792969 22.050781 16.054688 21.8125 16.375 21.660156 C 16.695312 21.503906 17.015625 21.425781 17.34375 21.425781 C 17.820312 21.425781 18.222656 21.539062 18.554688 21.765625 C 18.886719 21.988281 19.132812 22.265625 19.289062 22.597656 C 19.445312 22.929688 19.523438 23.257812 19.523438 23.578125 C 19.523438 23.746094 19.511719 23.90625 19.488281 24.054688 C 19.464844 24.203125 19.417969 24.363281 19.347656 24.539062 C 19.226562 24.859375 19.019531 25.140625 18.722656 25.386719 C 18.429688 25.609375 18.039062 25.796875 17.535156 25.796875 C 15.925781 25.796875 16.324219 24.65625 16.765625 24.902344 C 16.886719 24.96875 16.886719 24.96875 16.886719 24.96875 C 16.992188 25.003906 17.164062 25.039062 17.265625 25.046875 C 17.367188 25.058594 17.613281 25.03125 17.816406 24.992188 C 17.816406 24.992188 18.160156 24.921875 18.398438 24.636719 C 18.636719 24.351562 18.757812 23.996094 18.757812 23.578125 C 18.757812 23.144531 18.613281 22.800781 18.332031 22.535156 C 18.050781 22.273438 17.726562 22.144531 17.359375 22.144531 C 17.132812 22.144531 16.921875 22.199219 16.722656 22.3125 C 16.527344 22.425781 16.359375 22.609375 16.222656 22.863281 C 16.085938 23.117188 16.015625 23.425781 16.015625 23.792969 L 16.015625 27.203125 C 16.015625 27.410156 15.847656 27.578125 15.640625 27.578125 Z M 20.390625 20.355469 C 20.1875 20.355469 20.015625 20.1875 20.015625 19.980469 L 20.015625 19.960938 C 20.015625 19.753906 20.1875 19.585938 20.390625 19.585938 L 22.199219 19.585938 C 22.402344 19.585938 22.738281 19.625 22.9375 19.667969 C 22.9375 19.667969 23.523438 19.800781 23.523438 20.230469 C 23.523438 20.394531 23.476562 20.542969 23.378906 20.679688 C 23.28125 20.816406 23.132812 20.976562 22.929688 21.164062 L 22.253906 21.722656 C 22.097656 21.855469 22.132812 21.988281 22.339844 22.019531 C 22.339844 22.019531 23.003906 22.121094 23.382812 22.4375 C 23.761719 22.75 23.949219 23.21875 23.949219 23.839844 C 23.949219 24.382812 23.769531 24.828125 23.40625 25.179688 C 23.042969 25.527344 22.605469 25.703125 22.09375 25.703125 L 20.253906 25.703125 C 20.046875 25.703125 19.878906 25.53125 19.878906 25.328125 L 19.878906 25.308594 C 19.878906 25.101562 20.046875 24.933594 20.253906 24.933594 L 21.5625 24.933594 C 21.765625 24.933594 22.101562 24.90625 22.304688 24.871094 C 22.304688 24.871094 22.582031 24.828125 22.789062 24.609375 C 22.894531 24.5 22.976562 24.378906 23.03125 24.25 C 23.085938 24.117188 23.113281 23.972656 23.113281 23.808594 C 23.113281 23.511719 22.996094 23.257812 22.765625 23.050781 C 22.644531 22.941406 22.503906 22.855469 22.347656 22.800781 C 22.1875 22.746094 22.003906 22.71875 21.789062 22.71875 L 21.105469 22.71875 C 20.902344 22.71875 20.730469 22.585938 20.730469 22.421875 C 20.730469 22.257812 20.855469 22.011719 21.007812 21.871094 L 22.359375 20.609375 C 22.511719 20.46875 22.464844 20.355469 22.257812 20.355469 Z M 20.390625 20.355469 "/>
</g>
</svg>
