<?xml version="1.0" encoding="UTF-8"?>
<svg xmlns="http://www.w3.org/2000/svg" xmlns:xlink="http://www.w3.org/1999/xlink" width="32pt" height="32pt" viewBox="0 0 32 32" version="1.1">
<g id="surface1">
<path style=" stroke:none;fill-rule:nonzero;fill:rgb(0%,0%,0%);fill-opacity:1;" d="M 22.824219 25.03125 C 23.101562 25.917969 25.234375 26.132812 26.183594 25.066406 C 27.265625 23.851562 25.824219 22.460938 24.757812 23.128906 C 23.886719 23.675781 23.363281 22.90625 23.875 22.390625 C 24.023438 22.246094 24.300781 22.125 24.625 22.125 C 24.898438 22.128906 25.207031 22.246094 25.496094 22.246094 C 26.261719 22.246094 25.933594 21.207031 25.28125 21.539062 C 25.007812 21.472656 24.683594 21.433594 24.332031 21.464844 C 23.914062 21.503906 23.425781 21.808594 23.207031 22.101562 C 22.429688 23.128906 23.503906 24.625 25.054688 23.753906 C 25.554688 23.46875 26.109375 24 25.789062 24.484375 C 25.574219 24.8125 25.195312 24.976562 24.871094 25.058594 C 24.316406 25.191406 23.890625 25.050781 23.625 24.867188 C 23.585938 24.265625 22.644531 24.441406 22.824219 25.03125 Z M 9.125 22.46875 C 9.328125 22.148438 9.59375 21.894531 9.917969 21.707031 C 10.246094 21.519531 10.59375 21.425781 10.964844 21.425781 C 11.316406 21.425781 11.664062 21.515625 12.011719 21.691406 C 12.339844 21.839844 12.613281 22.082031 12.832031 22.414062 C 13.054688 22.746094 13.164062 23.136719 13.164062 23.578125 C 13.164062 23.898438 13.089844 24.226562 12.9375 24.566406 C 12.789062 24.902344 12.550781 25.191406 12.226562 25.429688 C 12.058594 25.554688 11.886719 25.644531 11.710938 25.707031 C 11.53125 25.765625 11.339844 25.796875 11.132812 25.796875 C 10.789062 25.796875 10.484375 25.75 10.214844 25.652344 C 9.945312 25.558594 9.699219 25.398438 9.476562 25.179688 C 9.253906 24.964844 9.085938 24.722656 8.972656 24.460938 C 8.859375 24.199219 8.804688 23.910156 8.804688 23.59375 L 8.804688 23.570312 C 8.804688 23.160156 8.910156 22.792969 9.125 22.46875 Z M 9.605469 23.542969 C 9.605469 23.960938 9.71875 24.320312 9.941406 24.617188 C 10.164062 24.917969 10.523438 25.066406 11.015625 25.066406 C 11.269531 25.066406 11.5 25.011719 11.707031 24.90625 C 11.910156 24.800781 12.070312 24.636719 12.179688 24.410156 C 12.289062 24.179688 12.34375 23.878906 12.34375 23.507812 C 12.34375 23.238281 12.277344 23.003906 12.144531 22.796875 C 12.027344 22.59375 11.867188 22.4375 11.65625 22.328125 C 11.449219 22.214844 11.222656 22.160156 10.980469 22.160156 C 10.546875 22.160156 10.207031 22.304688 9.972656 22.597656 C 9.847656 22.742188 9.757812 22.894531 9.695312 23.046875 C 9.636719 23.203125 9.605469 23.367188 9.605469 23.542969 Z M 14.175781 27.578125 C 13.96875 27.578125 13.800781 27.410156 13.800781 27.203125 L 13.800781 23.984375 C 13.800781 23.777344 13.8125 23.441406 13.824219 23.234375 C 13.824219 23.234375 13.828125 23.144531 13.882812 22.945312 C 13.941406 22.746094 14.023438 22.558594 14.140625 22.378906 C 14.34375 22.050781 14.605469 21.8125 14.925781 21.660156 C 15.246094 21.503906 15.570312 21.425781 15.894531 21.425781 C 16.371094 21.425781 16.777344 21.539062 17.109375 21.765625 C 17.4375 21.988281 17.683594 22.265625 17.839844 22.597656 C 17.996094 22.929688 18.074219 23.257812 18.074219 23.578125 C 18.074219 23.746094 18.0625 23.90625 18.039062 24.054688 C 18.015625 24.203125 17.972656 24.363281 17.902344 24.539062 C 17.777344 24.859375 17.570312 25.140625 17.273438 25.386719 C 16.980469 25.609375 16.589844 25.796875 16.085938 25.796875 C 14.28125 25.796875 14.675781 24.59375 15.320312 24.902344 C 15.433594 24.957031 15.433594 24.957031 15.433594 24.957031 C 15.542969 24.996094 15.714844 25.039062 15.816406 25.046875 C 15.917969 25.058594 16.164062 25.03125 16.367188 24.992188 C 16.367188 24.992188 16.710938 24.921875 16.949219 24.636719 C 17.1875 24.351562 17.308594 23.996094 17.308594 23.578125 C 17.308594 23.144531 17.167969 22.800781 16.886719 22.535156 C 16.601562 22.273438 16.277344 22.144531 15.914062 22.144531 C 15.6875 22.144531 15.472656 22.199219 15.277344 22.3125 C 15.078125 22.425781 14.910156 22.609375 14.773438 22.863281 C 14.636719 23.117188 14.570312 23.425781 14.570312 23.792969 L 14.570312 27.203125 C 14.570312 27.410156 14.398438 27.578125 14.195312 27.578125 Z M 18.695312 21.890625 C 18.695312 21.683594 18.863281 21.515625 19.070312 21.515625 L 19.085938 21.515625 C 19.292969 21.515625 19.460938 21.683594 19.460938 21.890625 L 19.460938 23.667969 C 19.460938 23.875 19.472656 24.171875 19.488281 24.328125 C 19.488281 24.328125 19.488281 24.328125 19.542969 24.445312 C 19.59375 24.5625 19.671875 24.671875 19.777344 24.777344 C 19.984375 24.96875 20.214844 25.066406 20.464844 25.066406 C 20.746094 25.066406 20.988281 24.957031 21.195312 24.738281 C 21.402344 24.519531 21.503906 24.285156 21.503906 24.042969 L 21.503906 21.890625 C 21.503906 21.683594 21.671875 21.515625 21.878906 21.515625 L 21.894531 21.515625 C 22.101562 21.515625 22.269531 21.683594 22.269531 21.890625 L 22.269531 23.628906 C 22.269531 23.835938 22.242188 24.171875 22.203125 24.375 C 22.203125 24.375 22.097656 24.945312 21.746094 25.308594 C 21.421875 25.632812 20.996094 25.796875 20.464844 25.796875 C 19.984375 25.796875 19.566406 25.636719 19.21875 25.3125 C 18.871094 24.988281 18.695312 24.519531 18.695312 23.902344 Z M 18.695312 21.890625 "/>
</g>
</svg>
