<?xml version="1.0" encoding="UTF-8"?>
<svg xmlns="http://www.w3.org/2000/svg" xmlns:xlink="http://www.w3.org/1999/xlink" width="32pt" height="32pt" viewBox="0 0 32 32" version="1.1">
<g id="surface1">
<path style=" stroke:none;fill-rule:nonzero;fill:rgb(0%,0%,0%);fill-opacity:1;" d="M 22.023438 25.386719 C 22.023438 25.601562 21.847656 25.777344 21.632812 25.777344 C 21.417969 25.777344 21.242188 25.601562 21.242188 25.386719 C 21.242188 25.386719 21.203125 24.652344 20.273438 23.53125 C 19.355469 24.582031 19.320312 25.386719 19.320312 25.386719 C 19.320312 25.601562 19.144531 25.777344 18.929688 25.777344 C 18.714844 25.777344 18.539062 25.601562 18.539062 25.386719 C 18.539062 25.367188 18.542969 25.347656 18.542969 25.328125 C 18.5625 25.082031 18.695312 24.117188 19.734375 22.957031 C 19.238281 22.5 18.765625 22.257812 18.757812 22.257812 C 18.566406 22.160156 18.488281 21.925781 18.582031 21.734375 C 18.679688 21.539062 18.914062 21.460938 19.105469 21.554688 C 19.132812 21.570312 19.699219 21.855469 20.289062 22.40625 C 20.859375 21.902344 21.410156 21.582031 21.4375 21.566406 C 21.621094 21.460938 21.863281 21.523438 21.96875 21.710938 C 22.078125 21.898438 22.011719 22.136719 21.824219 22.246094 C 21.820312 22.25 21.328125 22.53125 20.824219 22.972656 C 21.867188 24.203125 22.003906 25.085938 22.019531 25.328125 C 22.019531 25.347656 22.023438 25.367188 22.023438 25.386719 Z M 8.804688 23.570312 L 8.804688 23.59375 C 8.804688 23.910156 8.859375 24.199219 8.972656 24.460938 C 9.085938 24.722656 9.253906 24.964844 9.476562 25.179688 C 9.699219 25.398438 9.945312 25.558594 10.214844 25.652344 C 10.484375 25.75 10.789062 25.796875 11.132812 25.796875 C 11.339844 25.796875 11.53125 25.765625 11.710938 25.707031 C 11.886719 25.644531 12.058594 25.554688 12.226562 25.429688 C 12.550781 25.191406 12.789062 24.902344 12.9375 24.566406 C 13.089844 24.226562 13.164062 23.898438 13.164062 23.578125 C 13.164062 23.132812 13.054688 22.746094 12.832031 22.414062 C 12.613281 22.082031 12.339844 21.839844 12.011719 21.691406 C 11.664062 21.515625 11.316406 21.425781 10.964844 21.425781 C 10.59375 21.425781 10.246094 21.519531 9.921875 21.707031 C 9.59375 21.894531 9.328125 22.148438 9.125 22.46875 C 8.910156 22.792969 8.804688 23.160156 8.804688 23.570312 Z M 9.695312 23.046875 C 9.757812 22.894531 9.847656 22.742188 9.972656 22.597656 C 10.207031 22.304688 10.546875 22.160156 10.980469 22.160156 C 11.222656 22.160156 11.449219 22.214844 11.65625 22.328125 C 11.867188 22.4375 12.027344 22.59375 12.144531 22.796875 C 12.277344 23.003906 12.34375 23.238281 12.34375 23.507812 C 12.34375 23.878906 12.289062 24.179688 12.179688 24.410156 C 12.070312 24.636719 11.910156 24.800781 11.707031 24.90625 C 11.5 25.011719 11.269531 25.066406 11.015625 25.066406 C 10.523438 25.066406 10.164062 24.917969 9.941406 24.617188 C 9.71875 24.320312 9.605469 23.960938 9.605469 23.542969 C 9.605469 23.367188 9.636719 23.203125 9.695312 23.046875 Z M 15.097656 27.632812 C 15.316406 27.683594 15.558594 27.691406 15.808594 27.691406 C 16.402344 27.691406 16.859375 27.542969 17.1875 27.253906 C 17.511719 26.960938 17.722656 26.660156 17.8125 26.34375 C 17.867188 26.183594 17.902344 26.035156 17.925781 25.898438 C 17.949219 25.765625 17.949219 25.765625 17.949219 25.765625 C 17.957031 25.636719 17.960938 25.363281 17.960938 25.15625 L 17.960938 23.382812 C 17.960938 23.109375 17.90625 22.859375 17.796875 22.628906 C 17.6875 22.398438 17.527344 22.1875 17.324219 21.996094 C 16.941406 21.617188 16.464844 21.425781 15.894531 21.425781 C 15.359375 21.425781 14.867188 21.609375 14.414062 21.972656 C 13.957031 22.335938 13.730469 22.894531 13.730469 23.648438 C 13.730469 24.230469 13.929688 24.726562 14.324219 25.140625 C 14.539062 25.363281 14.769531 25.527344 15.015625 25.636719 C 15.257812 25.742188 15.523438 25.796875 15.808594 25.796875 C 17.28125 25.796875 17.136719 24.65625 16.503906 24.910156 C 16.261719 25.007812 16.054688 25.066406 15.871094 25.066406 C 15.453125 25.066406 15.125 24.9375 14.878906 24.679688 C 14.75 24.539062 14.648438 24.394531 14.582031 24.242188 C 14.515625 24.089844 14.515625 24.089844 14.515625 24.089844 C 14.496094 23.917969 14.480469 23.71875 14.480469 23.648438 C 14.480469 23.152344 14.625 22.78125 14.910156 22.53125 C 15.195312 22.285156 15.527344 22.160156 15.914062 22.160156 C 16.140625 22.160156 16.347656 22.222656 16.535156 22.34375 C 16.726562 22.464844 16.882812 22.640625 17.007812 22.871094 C 17.132812 23.101562 17.152344 23.289062 17.152344 23.289062 C 17.175781 23.496094 17.195312 23.832031 17.195312 24.039062 L 17.195312 25.707031 C 17.195312 26.074219 17.0625 26.375 16.792969 26.609375 C 16.527344 26.839844 16.1875 26.957031 15.78125 26.957031 C 15.640625 26.957031 15.464844 26.941406 15.253906 26.902344 C 15.042969 26.867188 14.929688 26.835938 14.929688 26.835938 C 14.730469 26.785156 14.546875 26.90625 14.519531 27.113281 C 14.519531 27.113281 14.46875 27.488281 15.097656 27.632812 Z M 15.097656 27.632812 "/>
</g>
</svg>
