<?xml version="1.0" encoding="UTF-8"?>
<svg xmlns="http://www.w3.org/2000/svg" xmlns:xlink="http://www.w3.org/1999/xlink" width="32pt" height="32pt" viewBox="0 0 32 32" version="1.1">
<g id="surface1">
<path style=" stroke:none;fill-rule:nonzero;fill:rgb(0%,0%,0%);fill-opacity:1;" d="M 9.125 22.46875 C 9.328125 22.148438 9.59375 21.894531 9.917969 21.707031 C 10.246094 21.519531 10.59375 21.425781 10.964844 21.425781 C 11.316406 21.425781 11.664062 21.515625 12.011719 21.691406 C 12.339844 21.839844 12.613281 22.082031 12.832031 22.414062 C 13.054688 22.746094 13.164062 23.136719 13.164062 23.578125 C 13.164062 23.898438 13.089844 24.226562 12.9375 24.566406 C 12.789062 24.902344 12.550781 25.191406 12.226562 25.429688 C 12.058594 25.554688 11.886719 25.644531 11.710938 25.707031 C 11.53125 25.765625 11.339844 25.796875 11.132812 25.796875 C 10.789062 25.796875 10.484375 25.75 10.214844 25.652344 C 9.945312 25.558594 9.699219 25.398438 9.476562 25.179688 C 9.253906 24.964844 9.085938 24.722656 8.972656 24.460938 C 8.859375 24.199219 8.804688 23.910156 8.804688 23.59375 L 8.804688 23.570312 C 8.804688 23.160156 8.910156 22.792969 9.125 22.46875 Z M 9.605469 23.542969 C 9.605469 23.960938 9.71875 24.320312 9.941406 24.617188 C 10.164062 24.917969 10.523438 25.066406 11.015625 25.066406 C 11.269531 25.066406 11.5 25.011719 11.707031 24.90625 C 11.910156 24.800781 12.070312 24.636719 12.179688 24.410156 C 12.289062 24.179688 12.34375 23.878906 12.34375 23.507812 C 12.34375 23.238281 12.277344 23.003906 12.144531 22.796875 C 12.027344 22.59375 11.867188 22.4375 11.65625 22.328125 C 11.449219 22.214844 11.222656 22.160156 10.980469 22.160156 C 10.546875 22.160156 10.207031 22.304688 9.972656 22.597656 C 9.847656 22.742188 9.757812 22.894531 9.695312 23.046875 C 9.636719 23.203125 9.605469 23.367188 9.605469 23.542969 Z M 14.488281 27.105469 C 14.53125 26.90625 14.730469 26.785156 14.929688 26.835938 C 14.929688 26.835938 15.042969 26.867188 15.253906 26.902344 C 15.464844 26.9375 15.640625 26.957031 15.78125 26.957031 C 16.1875 26.957031 16.527344 26.839844 16.792969 26.609375 C 17.0625 26.375 17.195312 26.074219 17.195312 25.707031 L 17.195312 24.039062 C 17.195312 23.832031 17.175781 23.496094 17.152344 23.289062 C 17.152344 23.289062 17.132812 23.101562 17.007812 22.871094 C 16.882812 22.640625 16.726562 22.464844 16.535156 22.34375 C 16.347656 22.222656 16.140625 22.160156 15.914062 22.160156 C 15.527344 22.160156 15.195312 22.285156 14.910156 22.53125 C 14.625 22.78125 14.480469 23.152344 14.480469 23.648438 C 14.480469 23.71875 14.496094 23.917969 14.515625 24.089844 C 14.515625 24.089844 14.515625 24.089844 14.582031 24.242188 C 14.648438 24.394531 14.75 24.539062 14.878906 24.679688 C 15.125 24.9375 15.453125 25.066406 15.871094 25.066406 C 16.054688 25.066406 16.261719 25.007812 16.503906 24.910156 C 17.136719 24.65625 17.28125 25.796875 15.808594 25.796875 C 15.523438 25.796875 15.257812 25.742188 15.015625 25.636719 C 14.769531 25.527344 14.539062 25.363281 14.324219 25.140625 C 13.929688 24.726562 13.730469 24.230469 13.730469 23.648438 C 13.730469 22.894531 13.957031 22.335938 14.414062 21.972656 C 14.867188 21.609375 15.359375 21.425781 15.894531 21.425781 C 16.464844 21.425781 16.941406 21.617188 17.324219 21.996094 C 17.527344 22.1875 17.6875 22.398438 17.796875 22.628906 C 17.90625 22.859375 17.960938 23.109375 17.960938 23.382812 L 17.960938 25.15625 C 17.960938 25.363281 17.957031 25.636719 17.949219 25.765625 C 17.949219 25.765625 17.949219 25.765625 17.925781 25.898438 C 17.902344 26.035156 17.867188 26.183594 17.8125 26.34375 C 17.722656 26.660156 17.511719 26.960938 17.1875 27.253906 C 16.859375 27.542969 16.402344 27.691406 15.808594 27.691406 C 15.558594 27.691406 15.316406 27.6875 15.097656 27.632812 C 14.40625 27.46875 14.488281 27.105469 14.488281 27.105469 Z M 19.105469 25.703125 C 18.898438 25.703125 18.730469 25.53125 18.730469 25.328125 L 18.730469 23.199219 C 18.730469 22.992188 18.738281 22.714844 18.746094 22.578125 C 18.746094 22.578125 18.746094 22.578125 18.777344 22.472656 C 18.808594 22.371094 18.863281 22.253906 18.9375 22.125 C 19.054688 21.921875 19.238281 21.75 19.488281 21.609375 C 19.734375 21.488281 20.003906 21.425781 20.300781 21.425781 C 20.769531 21.425781 21.15625 21.625 21.453125 22.019531 C 21.726562 21.625 22.144531 21.425781 22.714844 21.425781 C 22.964844 21.425781 23.203125 21.488281 23.429688 21.613281 C 23.660156 21.738281 23.839844 21.910156 23.976562 22.128906 C 24.113281 22.347656 24.183594 22.578125 24.183594 22.824219 L 24.183594 25.328125 C 24.183594 25.53125 24.011719 25.703125 23.808594 25.703125 L 23.789062 25.703125 C 23.582031 25.703125 23.414062 25.53125 23.414062 25.328125 L 23.414062 23.433594 C 23.414062 23.226562 23.394531 22.890625 23.367188 22.6875 C 23.367188 22.6875 23.359375 22.617188 23.242188 22.433594 C 23.128906 22.25 22.9375 22.160156 22.664062 22.160156 C 22.386719 22.160156 22.175781 22.25 22.035156 22.429688 C 21.90625 22.609375 21.84375 22.820312 21.84375 23.058594 L 21.84375 25.328125 C 21.84375 25.53125 21.675781 25.703125 21.46875 25.703125 L 21.433594 25.703125 C 21.226562 25.703125 21.058594 25.53125 21.058594 25.328125 L 21.058594 23.484375 C 21.058594 23.28125 21.039062 22.945312 21.011719 22.738281 C 21.011719 22.738281 20.992188 22.582031 20.863281 22.414062 C 20.730469 22.246094 20.539062 22.160156 20.28125 22.160156 C 19.980469 22.160156 19.773438 22.25 19.664062 22.433594 C 19.554688 22.617188 19.496094 22.859375 19.496094 23.164062 L 19.496094 25.328125 C 19.496094 25.53125 19.328125 25.703125 19.121094 25.703125 Z M 19.105469 25.703125 "/>
</g>
</svg>
