<?xml version="1.0" encoding="UTF-8"?>
<svg xmlns="http://www.w3.org/2000/svg" xmlns:xlink="http://www.w3.org/1999/xlink" width="32pt" height="32pt" viewBox="0 0 32 32" version="1.1">
<g id="surface1">
<path style=" stroke:none;fill-rule:nonzero;fill:rgb(0%,0%,0%);fill-opacity:1;" d="M 9.125 22.46875 C 9.328125 22.148438 9.59375 21.894531 9.917969 21.707031 C 10.246094 21.519531 10.59375 21.425781 10.964844 21.425781 C 11.316406 21.425781 11.664062 21.515625 12.011719 21.691406 C 12.339844 21.839844 12.613281 22.082031 12.832031 22.414062 C 13.054688 22.746094 13.164062 23.136719 13.164062 23.578125 C 13.164062 23.898438 13.089844 24.226562 12.9375 24.566406 C 12.789062 24.902344 12.550781 25.191406 12.226562 25.429688 C 12.058594 25.554688 11.886719 25.644531 11.710938 25.707031 C 11.53125 25.765625 11.339844 25.796875 11.132812 25.796875 C 10.789062 25.796875 10.484375 25.75 10.214844 25.652344 C 9.945312 25.558594 9.699219 25.398438 9.476562 25.179688 C 9.253906 24.964844 9.085938 24.722656 8.972656 24.460938 C 8.859375 24.199219 8.804688 23.910156 8.804688 23.59375 L 8.804688 23.570312 C 8.804688 23.160156 8.910156 22.792969 9.125 22.46875 Z M 9.605469 23.542969 C 9.605469 23.960938 9.71875 24.320312 9.941406 24.617188 C 10.164062 24.917969 10.523438 25.066406 11.015625 25.066406 C 11.269531 25.066406 11.5 25.011719 11.707031 24.90625 C 11.910156 24.800781 12.070312 24.636719 12.179688 24.410156 C 12.289062 24.179688 12.34375 23.878906 12.34375 23.507812 C 12.34375 23.238281 12.277344 23.003906 12.144531 22.796875 C 12.027344 22.59375 11.867188 22.4375 11.65625 22.328125 C 11.449219 22.214844 11.222656 22.160156 10.980469 22.160156 C 10.546875 22.160156 10.207031 22.304688 9.972656 22.597656 C 9.847656 22.742188 9.757812 22.894531 9.695312 23.046875 C 9.636719 23.203125 9.605469 23.367188 9.605469 23.542969 Z M 14.460938 27.097656 C 14.519531 26.902344 14.730469 26.785156 14.929688 26.835938 C 14.929688 26.835938 15.042969 26.867188 15.253906 26.902344 C 15.464844 26.9375 15.640625 26.957031 15.78125 26.957031 C 16.1875 26.957031 16.527344 26.839844 16.792969 26.609375 C 17.0625 26.375 17.195312 26.074219 17.195312 25.707031 L 17.195312 24.039062 C 17.195312 23.832031 17.175781 23.496094 17.152344 23.289062 C 17.152344 23.289062 17.132812 23.101562 17.007812 22.871094 C 16.882812 22.640625 16.726562 22.464844 16.535156 22.34375 C 16.347656 22.222656 16.140625 22.160156 15.914062 22.160156 C 15.527344 22.160156 15.195312 22.285156 14.910156 22.53125 C 14.625 22.78125 14.480469 23.152344 14.480469 23.648438 C 14.480469 23.71875 14.496094 23.917969 14.515625 24.089844 C 14.515625 24.089844 14.515625 24.089844 14.582031 24.242188 C 14.648438 24.394531 14.75 24.539062 14.878906 24.679688 C 15.125 24.9375 15.453125 25.066406 15.871094 25.066406 C 16.039062 25.066406 16.234375 25.039062 16.441406 24.9375 C 17.09375 24.613281 17.113281 25.796875 15.808594 25.796875 C 15.523438 25.796875 15.257812 25.742188 15.015625 25.636719 C 14.769531 25.527344 14.539062 25.363281 14.324219 25.140625 C 13.929688 24.726562 13.730469 24.230469 13.730469 23.648438 C 13.730469 22.894531 13.957031 22.335938 14.414062 21.972656 C 14.867188 21.609375 15.359375 21.425781 15.894531 21.425781 C 16.464844 21.425781 16.941406 21.617188 17.324219 21.996094 C 17.527344 22.1875 17.6875 22.398438 17.796875 22.628906 C 17.90625 22.859375 17.960938 23.109375 17.960938 23.382812 L 17.960938 25.15625 C 17.960938 25.363281 17.957031 25.636719 17.949219 25.765625 C 17.949219 25.765625 17.949219 25.765625 17.925781 25.898438 C 17.902344 26.035156 17.867188 26.183594 17.8125 26.34375 C 17.722656 26.660156 17.511719 26.960938 17.1875 27.253906 C 16.859375 27.542969 16.402344 27.691406 15.808594 27.691406 C 15.558594 27.691406 15.324219 27.65625 15.097656 27.632812 C 14.324219 27.550781 14.460938 27.097656 14.460938 27.097656 Z M 19.359375 27.109375 C 19.398438 26.90625 19.589844 26.785156 19.789062 26.835938 C 19.789062 26.835938 19.898438 26.867188 20.113281 26.902344 C 20.324219 26.9375 20.5 26.957031 20.640625 26.957031 C 21.046875 26.957031 21.382812 26.839844 21.652344 26.609375 C 21.917969 26.375 22.054688 26.074219 22.054688 25.707031 L 22.054688 24.039062 C 22.054688 23.832031 22.035156 23.496094 22.011719 23.289062 C 22.011719 23.289062 21.992188 23.101562 21.867188 22.871094 C 21.742188 22.640625 21.582031 22.464844 21.394531 22.34375 C 21.207031 22.222656 20.996094 22.160156 20.769531 22.160156 C 20.386719 22.160156 20.054688 22.285156 19.769531 22.53125 C 19.484375 22.78125 19.339844 23.152344 19.339844 23.648438 C 19.339844 23.71875 19.355469 23.917969 19.375 24.089844 C 19.375 24.089844 19.375 24.089844 19.441406 24.242188 C 19.507812 24.394531 19.605469 24.539062 19.734375 24.679688 C 19.980469 24.9375 20.3125 25.066406 20.730469 25.066406 C 20.894531 25.066406 21.082031 25.019531 21.296875 24.9375 C 21.863281 24.71875 21.886719 25.796875 20.667969 25.796875 C 20.382812 25.796875 20.117188 25.742188 19.871094 25.636719 C 19.628906 25.527344 19.398438 25.363281 19.183594 25.140625 C 18.789062 24.726562 18.589844 24.230469 18.589844 23.648438 C 18.589844 22.894531 18.816406 22.335938 19.269531 21.972656 C 19.722656 21.609375 20.21875 21.425781 20.753906 21.425781 C 21.324219 21.425781 21.800781 21.617188 22.183594 21.996094 C 22.386719 22.1875 22.542969 22.398438 22.65625 22.628906 C 22.765625 22.859375 22.820312 23.109375 22.820312 23.382812 L 22.820312 25.15625 C 22.820312 25.363281 22.816406 25.636719 22.808594 25.765625 C 22.808594 25.765625 22.808594 25.765625 22.785156 25.898438 C 22.761719 26.035156 22.726562 26.183594 22.671875 26.34375 C 22.578125 26.660156 22.371094 26.960938 22.042969 27.253906 C 21.71875 27.542969 21.257812 27.691406 20.667969 27.691406 C 20.417969 27.691406 20.179688 27.667969 19.957031 27.632812 C 19.28125 27.53125 19.359375 27.109375 19.359375 27.109375 Z M 19.359375 27.109375 "/>
</g>
</svg>
