<?xml version="1.0" encoding="UTF-8"?>
<svg xmlns="http://www.w3.org/2000/svg" xmlns:xlink="http://www.w3.org/1999/xlink" width="32pt" height="32pt" viewBox="0 0 32 32" version="1.1">
<g id="surface1">
<path style=" stroke:none;fill-rule:nonzero;fill:rgb(0%,0%,0%);fill-opacity:1;" d="M 30.488281 22.824219 L 30.488281 25.328125 C 30.488281 25.53125 30.320312 25.703125 30.113281 25.703125 L 30.097656 25.703125 C 29.890625 25.703125 29.722656 25.53125 29.722656 25.328125 L 29.722656 23.433594 C 29.722656 23.226562 29.699219 22.890625 29.671875 22.6875 C 29.671875 22.6875 29.664062 22.617188 29.550781 22.433594 C 29.4375 22.25 29.242188 22.160156 28.96875 22.160156 C 28.691406 22.160156 28.480469 22.25 28.34375 22.429688 C 28.214844 22.609375 28.152344 22.820312 28.152344 23.058594 L 28.152344 25.328125 C 28.152344 25.53125 27.980469 25.703125 27.777344 25.703125 L 27.742188 25.703125 C 27.535156 25.703125 27.367188 25.53125 27.367188 25.328125 L 27.367188 23.484375 C 27.367188 23.28125 27.34375 22.945312 27.320312 22.738281 C 27.320312 22.738281 27.300781 22.582031 27.167969 22.414062 C 27.039062 22.246094 26.84375 22.160156 26.589844 22.160156 C 26.285156 22.160156 26.082031 22.25 25.96875 22.433594 C 25.859375 22.617188 25.804688 22.859375 25.804688 23.164062 L 25.804688 25.328125 C 25.804688 25.53125 25.636719 25.703125 25.429688 25.703125 L 25.410156 25.703125 C 25.207031 25.703125 25.035156 25.53125 25.035156 25.328125 L 25.035156 23.199219 C 25.035156 22.992188 25.042969 22.714844 25.050781 22.578125 C 25.050781 22.578125 25.050781 22.578125 25.085938 22.472656 C 25.117188 22.371094 25.171875 22.253906 25.246094 22.125 C 25.363281 21.921875 25.546875 21.75 25.796875 21.609375 C 26.039062 21.488281 26.308594 21.425781 26.605469 21.425781 C 27.078125 21.425781 27.460938 21.625 27.757812 22.019531 C 28.03125 21.625 28.453125 21.425781 29.023438 21.425781 C 29.273438 21.425781 29.511719 21.488281 29.738281 21.613281 C 29.964844 21.738281 30.148438 21.910156 30.285156 22.128906 C 30.421875 22.347656 30.488281 22.578125 30.488281 22.824219 Z M 14.089844 21.515625 L 14.070312 21.515625 C 13.867188 21.515625 13.695312 21.683594 13.695312 21.890625 L 13.695312 24.101562 C 13.695312 24.417969 13.632812 24.65625 13.503906 24.820312 C 13.367188 24.984375 13.183594 25.066406 12.964844 25.066406 C 12.40625 25.066406 12.242188 24.546875 12.242188 24.546875 C 12.179688 24.351562 12.125 24.023438 12.125 23.816406 L 12.125 21.890625 C 12.125 21.683594 11.957031 21.515625 11.75 21.515625 L 11.714844 21.515625 C 11.511719 21.515625 11.339844 21.683594 11.339844 21.890625 L 11.339844 24.121094 C 11.339844 24.75 11.066406 25.066406 10.511719 25.066406 C 10.285156 25.066406 10.109375 24.984375 9.976562 24.820312 C 9.847656 24.65625 9.839844 24.613281 9.839844 24.613281 C 9.808594 24.410156 9.78125 24.074219 9.78125 23.867188 L 9.78125 21.890625 C 9.78125 21.683594 9.613281 21.515625 9.40625 21.515625 L 9.386719 21.515625 C 9.179688 21.515625 9.011719 21.683594 9.011719 21.890625 L 9.011719 24.347656 C 9.011719 24.671875 9.132812 24.992188 9.371094 25.300781 C 9.503906 25.460938 9.667969 25.585938 9.859375 25.671875 C 10.050781 25.753906 10.269531 25.796875 10.511719 25.796875 C 10.78125 25.796875 11.015625 25.75 11.21875 25.652344 C 11.421875 25.554688 11.59375 25.40625 11.734375 25.203125 C 11.921875 25.421875 12.105469 25.578125 12.289062 25.664062 C 12.472656 25.753906 12.714844 25.796875 13.015625 25.796875 C 13.378906 25.796875 13.699219 25.675781 13.984375 25.429688 C 14.148438 25.285156 14.269531 25.132812 14.347656 24.976562 C 14.425781 24.820312 14.425781 24.816406 14.425781 24.816406 C 14.445312 24.609375 14.464844 24.273438 14.464844 24.066406 L 14.464844 21.890625 C 14.464844 21.683594 14.296875 21.515625 14.089844 21.515625 Z M 18.769531 23.816406 C 18.769531 24.097656 18.601562 24.425781 18.3125 24.683594 C 18.078125 24.890625 17.78125 25.023438 17.367188 25.023438 C 17.039062 25.023438 16.695312 24.886719 16.421875 24.683594 C 16.144531 24.480469 15.902344 24.019531 15.898438 23.652344 C 15.894531 23.113281 16.097656 22.777344 16.316406 22.542969 C 16.589844 22.246094 16.917969 22.085938 17.332031 22.085938 C 17.722656 22.085938 18.050781 22.214844 18.3125 22.484375 C 18.3125 22.484375 17.070312 23.171875 16.535156 23.515625 C 16.003906 23.863281 16.4375 24.351562 16.835938 24.125 C 17.238281 23.894531 18.9375 22.910156 18.9375 22.910156 C 19.480469 22.570312 18.871094 21.886719 18.542969 21.667969 C 18.214844 21.449219 17.8125 21.339844 17.332031 21.339844 C 16.777344 21.339844 16.273438 21.539062 15.824219 21.941406 C 15.597656 22.140625 15.429688 22.382812 15.328125 22.660156 C 15.226562 22.9375 15.175781 23.265625 15.175781 23.652344 C 15.175781 24.023438 15.273438 24.375 15.46875 24.703125 C 15.664062 25.03125 15.929688 25.292969 16.265625 25.492188 C 16.601562 25.6875 16.953125 25.789062 17.316406 25.789062 C 17.765625 25.789062 18.148438 25.660156 18.507812 25.46875 C 19.160156 25.117188 19.503906 24.425781 19.503906 23.789062 C 19.503906 23.289062 18.769531 23.230469 18.769531 23.816406 Z M 23.285156 21.65625 C 23.113281 21.566406 22.949219 21.507812 22.785156 21.476562 C 22.625 21.445312 22.433594 21.425781 22.21875 21.425781 C 21.835938 21.425781 21.011719 21.886719 21.238281 22.261719 C 21.425781 22.5625 21.917969 22.160156 22.269531 22.160156 C 22.5 22.160156 22.710938 22.210938 22.90625 22.316406 C 23.105469 22.421875 23.269531 22.582031 23.398438 22.789062 C 23.542969 23.011719 23.613281 23.28125 23.613281 23.59375 C 23.613281 23.980469 23.492188 24.320312 23.253906 24.617188 C 23.011719 24.917969 22.671875 25.066406 22.238281 25.066406 C 21.824219 25.066406 21.492188 24.914062 21.246094 24.613281 C 21 24.316406 20.933594 23.898438 20.933594 23.898438 C 20.902344 23.695312 20.875 23.359375 20.875 23.152344 L 20.875 19.960938 C 20.875 19.753906 20.707031 19.585938 20.5 19.585938 L 20.484375 19.585938 C 20.277344 19.585938 20.109375 19.753906 20.109375 19.960938 L 20.109375 23.613281 C 20.109375 23.988281 20.199219 24.34375 20.378906 24.679688 C 20.558594 25.015625 20.808594 25.289062 21.132812 25.492188 C 21.457031 25.695312 21.824219 25.796875 22.238281 25.796875 C 22.671875 25.796875 23.054688 25.691406 23.382812 25.480469 C 23.710938 25.265625 23.960938 24.984375 24.128906 24.640625 C 24.296875 24.292969 24.382812 23.914062 24.382812 23.507812 C 24.382812 23.09375 24.28125 22.722656 24.078125 22.394531 C 23.875 22.0625 23.609375 21.816406 23.285156 21.65625 Z M 23.285156 21.65625 "/>
</g>
</svg>
