<?xml version="1.0" encoding="UTF-8"?>
<svg xmlns="http://www.w3.org/2000/svg" xmlns:xlink="http://www.w3.org/1999/xlink" width="32pt" height="32pt" viewBox="0 0 32 32" version="1.1">
<g id="surface1">
<path style=" stroke:none;fill-rule:nonzero;fill:rgb(0%,0%,0%);fill-opacity:1;" d="M 12.695312 25.703125 C 12.488281 25.703125 12.320312 25.53125 12.320312 25.328125 L 12.320312 23.660156 C 12.320312 23.453125 12.292969 23.117188 12.265625 22.914062 C 12.265625 22.914062 12.261719 22.894531 12.148438 22.722656 C 12.035156 22.550781 11.871094 22.414062 11.660156 22.3125 C 11.449219 22.210938 11.207031 22.160156 10.941406 22.160156 C 10.824219 22.160156 10.726562 22.167969 10.652344 22.183594 C 10.578125 22.195312 10.476562 22.230469 10.347656 22.28125 C 10.136719 22.371094 9.957031 22.523438 9.800781 22.746094 C 9.648438 22.96875 9.570312 23.246094 9.570312 23.578125 C 9.570312 24.027344 9.707031 24.386719 9.980469 24.65625 C 10.253906 24.929688 10.574219 25.066406 10.941406 25.066406 C 11.183594 25.066406 11.394531 24.964844 11.621094 24.847656 C 11.988281 24.65625 12.28125 25.796875 10.871094 25.796875 C 10.328125 25.796875 9.851562 25.59375 9.429688 25.1875 C 9.011719 24.777344 8.804688 24.242188 8.804688 23.578125 C 8.804688 22.976562 8.996094 22.46875 9.378906 22.050781 C 9.761719 21.636719 10.304688 21.425781 11 21.425781 C 11.433594 21.425781 11.808594 21.515625 12.132812 21.695312 C 12.453125 21.871094 12.695312 22.105469 12.859375 22.394531 C 12.941406 22.546875 13.003906 22.695312 13.042969 22.84375 C 13.082031 22.992188 13.105469 23.160156 13.105469 23.347656 L 13.105469 25.328125 C 13.105469 25.53125 12.933594 25.703125 12.730469 25.703125 Z M 17.550781 25.703125 C 17.347656 25.703125 17.175781 25.53125 17.175781 25.328125 L 17.175781 23.660156 C 17.175781 23.453125 17.152344 23.117188 17.125 22.914062 C 17.125 22.914062 17.121094 22.894531 17.007812 22.722656 C 16.894531 22.550781 16.730469 22.414062 16.519531 22.3125 C 16.304688 22.210938 16.066406 22.160156 15.800781 22.160156 C 15.683594 22.160156 15.585938 22.167969 15.511719 22.183594 C 15.4375 22.195312 15.332031 22.230469 15.207031 22.28125 C 14.996094 22.371094 14.816406 22.523438 14.660156 22.746094 C 14.507812 22.96875 14.429688 23.246094 14.429688 23.578125 C 14.429688 24.027344 14.566406 24.386719 14.839844 24.65625 C 15.113281 24.929688 15.433594 25.066406 15.800781 25.066406 C 16.027344 25.066406 16.246094 25.003906 16.445312 24.871094 C 16.824219 24.613281 17.21875 25.796875 15.730469 25.796875 C 15.1875 25.796875 14.707031 25.59375 14.289062 25.1875 C 13.871094 24.777344 13.660156 24.242188 13.660156 23.578125 C 13.660156 22.976562 13.855469 22.46875 14.238281 22.050781 C 14.621094 21.636719 15.164062 21.425781 15.859375 21.425781 C 16.289062 21.425781 16.667969 21.515625 16.988281 21.695312 C 17.3125 21.871094 17.554688 22.105469 17.71875 22.394531 C 17.800781 22.546875 17.859375 22.695312 17.902344 22.84375 C 17.941406 22.992188 17.960938 23.160156 17.960938 23.347656 L 17.960938 25.328125 C 17.960938 25.53125 17.792969 25.703125 17.585938 25.703125 Z M 18.550781 23.625 C 18.550781 23.289062 18.640625 22.949219 18.8125 22.613281 C 18.972656 22.304688 19.207031 22.050781 19.519531 21.847656 C 19.683594 21.742188 19.855469 21.660156 20.039062 21.601562 C 20.222656 21.542969 20.417969 21.515625 20.628906 21.515625 L 21.019531 21.515625 C 21.226562 21.515625 21.394531 21.679688 21.394531 21.882812 C 21.394531 22.082031 21.246094 22.246094 21.066406 22.246094 C 20.882812 22.246094 20.566406 22.277344 20.363281 22.316406 C 20.363281 22.316406 20.113281 22.359375 19.816406 22.585938 C 19.519531 22.8125 19.371094 23.167969 19.371094 23.644531 C 19.371094 23.957031 19.496094 24.257812 19.742188 24.542969 C 19.992188 24.828125 20.332031 24.96875 20.769531 24.96875 L 21.019531 24.96875 C 21.226562 24.96875 21.394531 25.132812 21.394531 25.335938 C 21.394531 25.535156 21.226562 25.703125 21.019531 25.703125 L 21.003906 25.703125 C 20.796875 25.703125 20.460938 25.6875 20.253906 25.667969 C 20.253906 25.667969 20.015625 25.644531 19.769531 25.53125 C 19.523438 25.417969 19.300781 25.246094 19.101562 25.011719 C 18.734375 24.582031 18.550781 24.121094 18.550781 23.625 Z M 18.550781 23.625 "/>
</g>
</svg>
