<?xml version="1.0" encoding="UTF-8"?>
<svg xmlns="http://www.w3.org/2000/svg" xmlns:xlink="http://www.w3.org/1999/xlink" width="32pt" height="32pt" viewBox="0 0 32 32" version="1.1">
<g id="surface1">
<path style=" stroke:none;fill-rule:nonzero;fill:rgb(0%,0%,0%);fill-opacity:1;" d="M 9.421875 25.703125 C 9.214844 25.703125 9.046875 25.53125 9.046875 25.328125 L 9.046875 21.496094 C 9.046875 21.289062 9.066406 20.953125 9.089844 20.75 C 9.089844 20.75 9.121094 20.453125 9.265625 20.226562 C 9.410156 20.003906 9.589844 19.84375 9.796875 19.753906 C 10.03125 19.640625 10.238281 19.585938 10.425781 19.585938 L 10.800781 19.585938 C 11.007812 19.585938 11.175781 19.75 11.175781 19.953125 C 11.175781 20.15625 11.050781 20.320312 10.902344 20.320312 C 10.75 20.320312 10.464844 20.367188 10.265625 20.425781 C 10.265625 20.425781 9.867188 20.546875 9.816406 21 L 9.816406 21.140625 C 9.816406 21.347656 9.984375 21.515625 10.191406 21.515625 L 10.695312 21.515625 C 10.902344 21.515625 11.070312 21.679688 11.070312 21.882812 C 11.070312 22.082031 10.902344 22.246094 10.695312 22.246094 L 10.191406 22.246094 C 9.984375 22.246094 9.816406 22.417969 9.816406 22.621094 L 9.816406 25.328125 C 9.816406 25.53125 9.648438 25.703125 9.441406 25.703125 Z M 11.578125 19.960938 C 11.578125 19.753906 11.746094 19.585938 11.953125 19.585938 L 11.96875 19.585938 C 12.175781 19.585938 12.34375 19.753906 12.34375 19.960938 L 12.34375 25.328125 C 12.34375 25.53125 12.175781 25.703125 11.96875 25.703125 L 11.953125 25.703125 C 11.746094 25.703125 11.578125 25.53125 11.578125 25.328125 Z M 17.054688 25.703125 C 16.847656 25.703125 16.679688 25.53125 16.679688 25.328125 L 16.679688 23.660156 C 16.679688 23.453125 16.65625 23.117188 16.625 22.914062 C 16.625 22.914062 16.625 22.894531 16.511719 22.722656 C 16.398438 22.550781 16.234375 22.414062 16.019531 22.3125 C 15.808594 22.210938 15.570312 22.160156 15.300781 22.160156 C 15.183594 22.160156 15.089844 22.167969 15.015625 22.183594 C 14.9375 22.195312 14.835938 22.230469 14.707031 22.28125 C 14.5 22.371094 14.316406 22.523438 14.164062 22.746094 C 14.007812 22.96875 13.933594 23.246094 13.933594 23.578125 C 13.933594 24.027344 14.070312 24.386719 14.34375 24.65625 C 14.617188 24.929688 14.933594 25.066406 15.300781 25.066406 C 15.535156 25.066406 15.742188 24.980469 15.953125 24.867188 C 16.34375 24.65625 16.449219 25.261719 16.261719 25.449219 C 16.121094 25.585938 15.78125 25.796875 15.230469 25.796875 C 14.691406 25.796875 14.210938 25.59375 13.792969 25.1875 C 13.375 24.777344 13.164062 24.242188 13.164062 23.578125 C 13.164062 22.976562 13.355469 22.46875 13.742188 22.050781 C 14.125 21.636719 14.664062 21.425781 15.363281 21.425781 C 15.792969 21.425781 16.167969 21.515625 16.492188 21.695312 C 16.816406 21.871094 17.058594 22.105469 17.222656 22.394531 C 17.300781 22.546875 17.363281 22.695312 17.402344 22.84375 C 17.445312 22.992188 17.464844 23.160156 17.464844 23.347656 L 17.464844 25.328125 C 17.464844 25.53125 17.296875 25.703125 17.089844 25.703125 Z M 18.179688 23.625 C 18.179688 23.289062 18.265625 22.949219 18.441406 22.613281 C 18.597656 22.304688 18.835938 22.050781 19.148438 21.847656 C 19.3125 21.742188 19.484375 21.660156 19.667969 21.601562 C 19.851562 21.542969 20.046875 21.515625 20.257812 21.515625 L 20.648438 21.515625 C 20.855469 21.515625 21.023438 21.679688 21.023438 21.882812 C 21.023438 22.082031 20.875 22.246094 20.691406 22.246094 C 20.511719 22.246094 20.195312 22.277344 19.992188 22.316406 C 19.992188 22.316406 19.742188 22.359375 19.445312 22.585938 C 19.148438 22.8125 19 23.167969 19 23.644531 C 19 23.957031 19.125 24.257812 19.371094 24.542969 C 19.617188 24.828125 19.960938 24.96875 20.394531 24.96875 L 20.648438 24.96875 C 20.855469 24.96875 21.023438 25.132812 21.023438 25.335938 C 21.023438 25.535156 20.855469 25.703125 20.648438 25.703125 L 20.632812 25.703125 C 20.425781 25.703125 20.089844 25.6875 19.882812 25.667969 C 19.882812 25.667969 19.644531 25.644531 19.398438 25.53125 C 19.148438 25.417969 18.925781 25.246094 18.730469 25.011719 C 18.363281 24.582031 18.179688 24.121094 18.179688 23.625 Z M 18.179688 23.625 "/>
</g>
</svg>
