<?xml version="1.0" encoding="UTF-8"?>
<svg xmlns="http://www.w3.org/2000/svg" xmlns:xlink="http://www.w3.org/1999/xlink" width="32pt" height="32pt" viewBox="0 0 32 32" version="1.1">
<g id="surface1">
<path style=" stroke:none;fill-rule:nonzero;fill:rgb(0%,0%,0%);fill-opacity:1;" d="M 9.386719 25.703125 C 9.179688 25.703125 9.011719 25.53125 9.011719 25.328125 L 9.011719 23.199219 C 9.011719 22.992188 9.019531 22.714844 9.027344 22.578125 C 9.027344 22.578125 9.027344 22.578125 9.0625 22.472656 C 9.09375 22.371094 9.144531 22.253906 9.222656 22.125 C 9.339844 21.921875 9.523438 21.75 9.773438 21.609375 C 10.015625 21.488281 10.285156 21.425781 10.582031 21.425781 C 11.054688 21.425781 11.4375 21.625 11.734375 22.019531 C 12.007812 21.625 12.429688 21.425781 13 21.425781 C 13.25 21.425781 13.488281 21.488281 13.714844 21.613281 C 13.941406 21.738281 14.121094 21.910156 14.257812 22.128906 C 14.394531 22.347656 14.464844 22.578125 14.464844 22.824219 L 14.464844 25.328125 C 14.464844 25.53125 14.296875 25.703125 14.089844 25.703125 L 14.070312 25.703125 C 13.867188 25.703125 13.695312 25.53125 13.695312 25.328125 L 13.695312 23.433594 C 13.695312 23.226562 13.675781 22.890625 13.648438 22.6875 C 13.648438 22.6875 13.640625 22.617188 13.527344 22.433594 C 13.414062 22.25 13.21875 22.160156 12.945312 22.160156 C 12.667969 22.160156 12.457031 22.25 12.320312 22.429688 C 12.191406 22.609375 12.125 22.820312 12.125 23.058594 L 12.125 25.328125 C 12.125 25.53125 11.957031 25.703125 11.75 25.703125 L 11.714844 25.703125 C 11.511719 25.703125 11.339844 25.53125 11.339844 25.328125 L 11.339844 23.484375 C 11.339844 23.28125 11.320312 22.945312 11.296875 22.738281 C 11.296875 22.738281 11.277344 22.582031 11.144531 22.414062 C 11.015625 22.246094 10.820312 22.160156 10.566406 22.160156 C 10.261719 22.160156 10.054688 22.25 9.945312 22.433594 C 9.835938 22.617188 9.78125 22.859375 9.78125 23.164062 L 9.78125 25.328125 C 9.78125 25.53125 9.613281 25.703125 9.40625 25.703125 Z M 15.625 27.578125 C 15.417969 27.578125 15.25 27.410156 15.25 27.203125 L 15.25 23.984375 C 15.25 23.777344 15.257812 23.441406 15.273438 23.234375 C 15.273438 23.234375 15.277344 23.144531 15.332031 22.945312 C 15.386719 22.746094 15.472656 22.558594 15.589844 22.378906 C 15.792969 22.050781 16.054688 21.8125 16.375 21.660156 C 16.695312 21.503906 17.015625 21.425781 17.34375 21.425781 C 17.820312 21.425781 18.222656 21.539062 18.554688 21.765625 C 18.886719 21.988281 19.132812 22.265625 19.289062 22.597656 C 19.445312 22.929688 19.523438 23.257812 19.523438 23.578125 C 19.523438 23.746094 19.511719 23.90625 19.488281 24.054688 C 19.464844 24.203125 19.417969 24.363281 19.347656 24.539062 C 19.226562 24.859375 19.019531 25.140625 18.722656 25.386719 C 18.429688 25.609375 18.039062 25.796875 17.535156 25.796875 C 15.925781 25.796875 16.175781 24.613281 16.765625 24.902344 C 16.933594 24.984375 16.933594 24.984375 16.933594 24.984375 C 17.015625 25.007812 17.164062 25.039062 17.265625 25.046875 C 17.367188 25.058594 17.613281 25.03125 17.816406 24.992188 C 17.816406 24.992188 18.160156 24.921875 18.398438 24.636719 C 18.636719 24.351562 18.757812 23.996094 18.757812 23.578125 C 18.757812 23.144531 18.613281 22.800781 18.332031 22.535156 C 18.050781 22.273438 17.726562 22.144531 17.359375 22.144531 C 17.132812 22.144531 16.921875 22.199219 16.722656 22.3125 C 16.527344 22.425781 16.359375 22.609375 16.222656 22.863281 C 16.085938 23.117188 16.015625 23.425781 16.015625 23.792969 L 16.015625 27.203125 C 16.015625 27.410156 15.847656 27.578125 15.640625 27.578125 Z M 22.238281 23.519531 C 22.441406 23.519531 22.613281 23.351562 22.613281 23.144531 L 22.613281 21.246094 C 22.613281 21.039062 22.695312 20.726562 22.800781 20.546875 L 23.257812 19.765625 C 23.363281 19.589844 23.449219 19.613281 23.449219 19.820312 L 23.449219 23.144531 C 23.449219 23.351562 23.617188 23.519531 23.824219 23.519531 L 23.988281 23.519531 C 24.195312 23.519531 24.363281 23.691406 24.363281 23.894531 L 24.363281 23.914062 C 24.363281 24.121094 24.195312 24.289062 23.988281 24.289062 L 23.824219 24.289062 C 23.617188 24.289062 23.449219 24.457031 23.449219 24.664062 L 23.449219 25.328125 C 23.449219 25.53125 23.28125 25.703125 23.074219 25.703125 L 22.988281 25.703125 C 22.78125 25.703125 22.613281 25.53125 22.613281 25.328125 L 22.613281 24.664062 C 22.613281 24.457031 22.441406 24.289062 22.238281 24.289062 L 20.753906 24.289062 C 20.546875 24.289062 20.21875 24.242188 20.019531 24.183594 C 20.019531 24.183594 19.820312 24.128906 19.820312 23.808594 C 19.828125 23.746094 19.835938 23.695312 19.84375 23.664062 C 19.851562 23.632812 19.867188 23.585938 19.890625 23.523438 L 21.886719 19.914062 C 21.988281 19.734375 22.238281 19.585938 22.445312 19.585938 L 22.59375 19.585938 C 22.800781 19.585938 22.886719 19.734375 22.785156 19.914062 L 20.953125 23.195312 C 20.851562 23.375 20.941406 23.519531 21.144531 23.519531 Z M 22.238281 23.519531 "/>
</g>
</svg>
