<?xml version="1.0" encoding="iso-8859-1"?>
<!-- Generator: Adobe Illustrator 16.0.3, SVG Export Plug-In . SVG Version: 6.00 Build 0)  -->
<!DOCTYPE svg PUBLIC "-//W3C//DTD SVG 1.1//EN" "http://www.w3.org/Graphics/SVG/1.1/DTD/svg11.dtd">
<svg version="1.1" id="icons" xmlns="http://www.w3.org/2000/svg" xmlns:xlink="http://www.w3.org/1999/xlink" x="0px" y="0px"
	 width="1024px" height="1024px" viewBox="0 0 1024 1024" style="enable-background:new 0 0 1024 1024;" xml:space="preserve">
<path id="error" d="M889.213,352.616c-20.624-48.762-50.135-92.539-87.713-130.117c-37.577-37.578-81.354-67.088-130.115-87.713
	C620.865,113.419,567.24,102.584,512,102.584s-108.865,10.834-159.384,32.202c-48.761,20.625-92.539,50.135-130.116,87.713
	s-67.088,81.355-87.713,130.116C113.419,403.135,102.585,456.76,102.585,512s10.834,108.865,32.202,159.384
	c20.625,48.762,50.135,92.539,87.713,130.116c37.578,37.578,81.355,67.089,130.116,87.714
	C403.135,910.581,456.76,921.416,512,921.416s108.865-10.835,159.385-32.202c48.761-20.625,92.538-50.136,130.115-87.714
	c37.578-37.577,67.089-81.355,87.713-130.116C910.581,620.865,921.415,567.24,921.415,512S910.581,403.135,889.213,352.616z
	 M512,852.416c-188.006,0-340.415-152.41-340.415-340.416c0-81.759,28.833-156.777,76.872-215.465l479.009,479.009
	C668.777,823.583,593.759,852.416,512,852.416z M776.18,726.676L297.324,247.821c58.572-47.654,133.281-76.237,214.676-76.237
	c188.007,0,340.415,152.409,340.415,340.416C852.415,593.395,823.833,668.104,776.18,726.676z"/>
</svg>
