<?xml version="1.0" encoding="iso-8859-1"?>
<!-- Generator: Adobe Illustrator 16.0.3, SVG Export Plug-In . SVG Version: 6.00 Build 0)  -->
<!DOCTYPE svg PUBLIC "-//W3C//DTD SVG 1.1//EN" "http://www.w3.org/Graphics/SVG/1.1/DTD/svg11.dtd">
<svg version="1.1" id="icons" xmlns="http://www.w3.org/2000/svg" xmlns:xlink="http://www.w3.org/1999/xlink" x="0px" y="0px"
	 width="1024px" height="1024px" viewBox="0 0 1024 1024" style="enable-background:new 0 0 1024 1024;" xml:space="preserve">
<path id="info" d="M512,171.584c188.007,0,340.415,152.409,340.415,340.416c0,188.006-152.408,340.416-340.415,340.416
	c-188.006,0-340.415-152.41-340.415-340.416C171.585,323.994,323.994,171.584,512,171.584 M512,102.584
	c-55.24,0-108.865,10.834-159.384,32.202c-48.761,20.625-92.539,50.135-130.116,87.713s-67.088,81.355-87.713,130.116
	C113.419,403.135,102.585,456.76,102.585,512s10.834,108.865,32.202,159.384c20.625,48.762,50.135,92.539,87.713,130.116
	c37.578,37.578,81.355,67.089,130.116,87.714C403.135,910.581,456.76,921.416,512,921.416s108.865-10.835,159.385-32.202
	c48.761-20.625,92.538-50.136,130.115-87.714c37.578-37.577,67.089-81.355,87.713-130.116
	C910.581,620.865,921.415,567.24,921.415,512s-10.834-108.865-32.202-159.384c-20.624-48.762-50.135-92.539-87.713-130.117
	c-37.577-37.578-81.354-67.088-130.115-87.713C620.865,113.419,567.24,102.584,512,102.584L512,102.584z M511.999,786.574
	c-29.286,0-53.112-23.826-53.112-53.113c0-29.286,23.826-53.112,53.112-53.112c29.287,0,53.114,23.826,53.114,53.112
	C565.113,762.748,541.286,786.574,511.999,786.574z M546.5,599.586v-39c0-11.06,2.78-13.459,3.967-14.483
	c4.655-4.018,15.107-7.621,25.215-11.106c35.062-12.089,93.744-32.322,93.744-129.4c0-86.805-70.621-157.426-157.426-157.426
	s-157.426,70.621-157.426,157.426c0,19.054,15.446,34.5,34.5,34.5s34.5-15.446,34.5-34.5c0-48.758,39.667-88.426,88.426-88.426
	c48.758,0,88.426,39.667,88.426,88.426c0,47.882-15.786,53.325-47.236,64.169c-15.517,5.35-33.104,11.414-47.805,24.102
	c-18.503,15.969-27.885,38.417-27.885,66.719v39c0,19.054,15.446,34.5,34.5,34.5S546.5,618.64,546.5,599.586z"/>
</svg>
