<?xml version="1.0" encoding="iso-8859-1"?>
<!-- Generator: Adobe Illustrator 16.0.3, SVG Export Plug-In . SVG Version: 6.00 Build 0)  -->
<!DOCTYPE svg PUBLIC "-//W3C//DTD SVG 1.1//EN" "http://www.w3.org/Graphics/SVG/1.1/DTD/svg11.dtd">
<svg version="1.1" id="Layer_1" xmlns="http://www.w3.org/2000/svg" xmlns:xlink="http://www.w3.org/1999/xlink" x="0px" y="0px"
	 width="1024px" height="1024px" viewBox="0 0 1024 1024" style="enable-background:new 0 0 1024 1024;" xml:space="preserve">
<path d="M169.254,763.298c-1.381,0-2.776-0.086-4.182-0.264c-8.552-1.082-27.871-8.532-46.033-29.594
	c-30.576-35.462-46.08-93.546-46.08-172.641c0-93.02,18.147-200.432,47.36-280.32c16.456-45.003,36.678-82.017,58.48-107.04
	c24.697-28.347,51.963-42.72,81.04-42.72c25.896,0,49.14,10.477,69.086,31.139c14.957,15.494,27.947,36.646,39.712,64.667
	c19.877,47.338,32.999,106.202,45.688,163.128c11.38,51.05,22.128,99.269,36.919,135.112c7.921,19.194,16.335,33.24,25.723,42.939
	c10.314,10.655,22.101,16.058,35.032,16.058s24.718-5.402,35.031-16.058c9.388-9.699,17.802-23.745,25.723-42.939
	c14.791-35.843,25.54-84.062,36.919-135.11c12.69-56.926,25.813-115.79,45.688-163.128c11.766-28.021,24.756-49.173,39.712-64.667
	c19.945-20.662,43.189-31.139,69.086-31.139c29.077,0,56.343,14.373,81.04,42.72c21.801,25.022,42.022,62.037,58.479,107.04
	c29.212,79.888,47.36,187.3,47.36,280.319c0,74.407-13.814,130.398-41.06,166.42c-17.667,23.358-36.164,31.653-45.615,34.52
	c-17.442,5.284-35.867-4.566-41.154-22.009c-5.262-17.356,4.471-35.688,21.755-41.076c0.701-0.289,5.854-2.626,12.376-11.248
	c10.344-13.678,27.698-48.313,27.698-126.606c0-85.81-16.609-184.537-43.347-257.653c-13.515-36.96-29.941-67.627-46.256-86.351
	c-11.605-13.322-22.129-20.076-31.277-20.076c-16.391,0-32.521,18.625-47.945,55.357c-17.594,41.902-30.064,97.84-42.123,151.937
	c-12.017,53.906-23.366,104.822-40.328,145.928c-11.159,27.041-24.018,47.866-39.31,63.666
	c-22.895,23.652-51.407,36.155-82.455,36.155s-59.562-12.502-82.455-36.155c-15.292-15.799-28.15-36.625-39.31-63.665
	c-16.961-41.104-28.312-92.022-40.328-145.93c-12.059-54.096-24.527-110.034-42.122-151.936
	c-15.424-36.732-31.556-55.357-47.945-55.357c-9.148,0-19.672,6.754-31.278,20.076c-16.314,18.725-32.741,49.391-46.257,86.351
	C155.569,376.263,138.96,474.99,138.96,560.8c0,82.374,18.836,116.52,30.064,129.541c5.029,5.833,9.18,8.021,10.246,8.52
	c14.866,4.737,24.71,19.54,22.682,35.577C199.844,751.111,185.634,763.297,169.254,763.298z M256.5,737.78c0,17.673,14.327,32,32,32
	h65.28c17.673,0,32-14.327,32-32c0-17.674-14.327-32-32-32H288.5C270.827,705.78,256.5,720.106,256.5,737.78z M639.22,737.78
	c0,17.673,14.327,32,32,32h65.28c17.673,0,32-14.327,32-32c0-17.674-14.327-32-32-32h-65.28
	C653.547,705.78,639.22,720.106,639.22,737.78z M448.5,927.22c0,17.674,14.327,32,32,32h65.28c17.673,0,32-14.326,32-32
	c0-17.673-14.327-32-32-32H480.5C462.827,895.22,448.5,909.547,448.5,927.22z"/>
</svg>
