<?xml version="1.0" encoding="iso-8859-1"?>
<!-- Generator: Adobe Illustrator 16.0.3, SVG Export Plug-In . SVG Version: 6.00 Build 0)  -->
<!DOCTYPE svg PUBLIC "-//W3C//DTD SVG 1.1//EN" "http://www.w3.org/Graphics/SVG/1.1/DTD/svg11.dtd">
<svg version="1.1" id="icons" xmlns="http://www.w3.org/2000/svg" xmlns:xlink="http://www.w3.org/1999/xlink" x="0px" y="0px"
	 width="1024px" height="1024px" viewBox="0 0 1024 1024" style="enable-background:new 0 0 1024 1024;" xml:space="preserve">
<path id="muted" d="M911.086,619.196c13.473,13.474,13.473,35.317,0,48.791c-6.736,6.735-15.567,10.104-24.396,10.104
	c-8.83,0-17.658-3.367-24.396-10.104L755.1,560.791L647.903,667.987c-6.737,6.736-15.566,10.104-24.396,10.104
	s-17.658-3.368-24.396-10.104c-13.473-13.474-13.473-35.317,0-48.791L706.309,512L599.112,404.803
	c-13.473-13.473-13.473-35.317,0-48.79c13.474-13.473,35.317-13.473,48.791,0L755.1,463.209l107.195-107.196
	c13.475-13.474,35.316-13.474,48.791,0c13.473,13.473,13.473,35.317,0,48.79L803.89,512L911.086,619.196z M539.046,159.604
	c7.762,13.681,11.697,29.683,11.697,47.56v608.223c0,17.878-3.935,33.879-11.696,47.56c-6.379,11.242-15.38,20.777-26.031,27.573
	c-12.303,7.85-26.551,11.999-41.204,11.999c-16.792,0-41.747-5.396-65.273-31.103L281.92,735.258
	c-2.426-1.832-8.091-4.326-11.08-4.879h-64.382c-57.897,0-105-47.103-105-105V396.562c0-57.897,47.103-105,105-105h64.94
	c2.989-0.553,8.655-3.048,11.081-4.88l124.058-135.547c23.528-25.708,48.483-31.104,65.275-31.104
	c14.655,0,28.904,4.15,41.208,12.001C523.668,138.829,532.668,148.363,539.046,159.604z M206.458,661.379h21.262V360.562h-21.262
	c-19.8,0-36,16.2-36,36v228.817C170.458,645.179,186.658,661.379,206.458,661.379z M481.744,207.164
	c0-11.851-3.92-18.132-9.932-18.132c-4.033,0-9.006,2.824-14.374,8.688L332.703,334.006c-8.342,9.115-22.046,17.194-35.983,21.982
	v310.164c13.744,4.81,27.195,12.791,35.426,21.784L457.438,824.83c5.366,5.863,10.341,8.688,14.374,8.688
	c6.013,0,9.932-6.28,9.932-18.132V207.164z"/>
</svg>
