<?xml version="1.0" encoding="iso-8859-1"?>
<!-- Generator: Adobe Illustrator 16.0.3, SVG Export Plug-In . SVG Version: 6.00 Build 0)  -->
<!DOCTYPE svg PUBLIC "-//W3C//DTD SVG 1.1//EN" "http://www.w3.org/Graphics/SVG/1.1/DTD/svg11.dtd">
<svg version="1.1" id="icons" xmlns="http://www.w3.org/2000/svg" xmlns:xlink="http://www.w3.org/1999/xlink" x="0px" y="0px"
	 width="1024px" height="1024px" viewBox="0 0 1024 1024" style="enable-background:new 0 0 1024 1024;" xml:space="preserve">
<path id="note" d="M872.734,138.311c0-10.803-5.061-20.982-13.672-27.504c-8.612-6.522-19.784-8.633-30.181-5.704L383.006,230.678
	c-14.874,4.188-25.147,17.756-25.147,33.208v428.021c-23.01-12.129-49.983-18.683-77.75-18.683
	c-34.593,0-67.961,10.164-93.959,28.62c-32.686,23.205-51.433,57.689-51.433,94.612s18.747,71.407,51.434,94.611
	c25.998,18.455,59.366,28.619,93.958,28.619c34.593,0,67.961-10.164,93.959-28.619c32.686-23.204,52.933-57.688,52.933-94.611
	c0-2.106-0.142-12.971-0.142-16.539V442.995l376.875-106.143v232.594c-23.01-12.127-49.982-18.681-77.748-18.681
	c-34.592,0-67.961,10.164-93.959,28.62c-32.686,23.204-51.432,57.688-51.432,94.611c0,36.922,18.746,71.406,51.433,94.61
	c25.997,18.456,59.366,28.62,93.958,28.62c34.593,0,67.962-10.164,93.959-28.62c32.687-23.204,52.933-57.688,52.933-94.61
	c0-2.972-0.144-15.884-0.144-19.654V138.311z M280.109,850.688c-42.189,0-76.392-24.279-76.392-54.23
	c0-29.952,34.203-54.232,76.392-54.232c42.19,0,76.392,24.28,76.392,54.232C356.501,826.408,322.299,850.688,280.109,850.688z
	 M426.859,371.311v-81.299l376.875-106.143v81.299L426.859,371.311z M725.986,728.228c-42.188,0-76.391-24.28-76.391-54.23
	c0-29.951,34.202-54.231,76.391-54.231c42.19,0,76.392,24.28,76.392,54.231C802.378,703.947,768.177,728.228,725.986,728.228z"/>
</svg>
