<?xml version="1.0" encoding="iso-8859-1"?>
<!-- Generator: Adobe Illustrator 16.0.3, SVG Export Plug-In . SVG Version: 6.00 Build 0)  -->
<!DOCTYPE svg PUBLIC "-//W3C//DTD SVG 1.1//EN" "http://www.w3.org/Graphics/SVG/1.1/DTD/svg11.dtd">
<svg version="1.1" id="icons" xmlns="http://www.w3.org/2000/svg" xmlns:xlink="http://www.w3.org/1999/xlink" x="0px" y="0px"
	 width="1024px" height="1024px" viewBox="0 0 1024 1024" style="enable-background:new 0 0 1024 1024;" xml:space="preserve">
<path id="settings2" d="M371.721,171.623c110.51,0,200.097,89.586,200.097,200.097c0,33.352-9.741,58.82-9.741,58.82
	c-7.074,18.493-1.406,45.079,12.595,59.08L840.34,755.288c14.001,14.001,14.001,36.911,0,50.912l-34.139,34.138
	c-7,7.001-16.229,10.501-25.456,10.501s-18.456-3.5-25.456-10.501L489.621,574.67c-9.908-9.907-26.116-15.643-41.3-15.643
	c-6.273,0-12.373,0.979-17.78,3.048c0,0-25.468,9.741-58.82,9.741c-110.51,0-200.097-89.586-200.097-200.097
	c0-16.251,0-16.251,0-16.251c1.738-9.586,6.938-14.551,13.652-14.551c5.198,0,11.303,2.975,17.412,9.084l90.294,90.296
	c7.001,7.001,16.227,10.5,25.456,10.5c9.227,0,18.456-3.5,25.456-10.5l96.407-96.407c14.001-14,14.001-36.911,0-50.911
	l-90.295-90.295c-14.001-14-11.542-27.979,5.465-31.063C355.471,171.623,355.471,171.623,371.721,171.623 M371.721,102.623h-16.25
	c-4.129,0-8.25,0.371-12.312,1.107c-32.954,5.976-58.205,27.385-67.547,57.269c-9.675,30.948-0.103,64.771,25.605,90.479
	l66.959,66.959l-49.737,49.737l-66.959-66.961c-18.889-18.89-42.399-29.293-66.199-29.295c-22.198,0-42.909,8.787-58.321,24.741
	c-11.916,12.334-19.947,28.413-23.227,46.498c-0.737,4.063-1.107,8.184-1.107,12.313v16.251c0,36.297,7.125,71.546,21.175,104.766
	c13.557,32.052,32.95,60.823,57.642,85.515c24.691,24.691,53.462,44.084,85.514,57.642c33.22,14.051,68.468,21.175,104.766,21.175
	c33.788,0,61.335-7.062,75.067-11.398l259.71,259.71c19.804,19.805,46.172,30.711,74.246,30.711s54.442-10.906,74.246-30.711
	l34.139-34.137c19.805-19.805,30.711-46.173,30.711-74.247c0-28.075-10.907-54.443-30.711-74.247L629.42,446.788
	c4.337-13.733,11.398-41.281,11.398-75.068c0-36.297-7.124-71.546-21.176-104.766c-13.557-32.052-32.95-60.823-57.642-85.515
	c-24.69-24.691-53.462-44.084-85.514-57.641C443.267,109.748,408.019,102.623,371.721,102.623L371.721,102.623z"/>
</svg>
