<?xml version="1.0" encoding="iso-8859-1"?>
<!-- Generator: Adobe Illustrator 16.0.3, SVG Export Plug-In . SVG Version: 6.00 Build 0)  -->
<!DOCTYPE svg PUBLIC "-//W3C//DTD SVG 1.1//EN" "http://www.w3.org/Graphics/SVG/1.1/DTD/svg11.dtd">
<svg version="1.1" id="icons" xmlns="http://www.w3.org/2000/svg" xmlns:xlink="http://www.w3.org/1999/xlink" x="0px" y="0px"
	 width="1024px" height="1024px" viewBox="0 0 1024 1024" style="enable-background:new 0 0 1024 1024;" xml:space="preserve">
<path id="settings" d="M580.421,916.754H443.58c-19.054,0-34.5-15.446-34.5-34.5v-75.899c-11.05-3.865-21.874-8.354-32.432-13.451
	l-53.682,53.682c-13.473,13.473-35.317,13.473-48.79,0l-96.761-96.761c-6.47-6.471-10.105-15.245-10.105-24.396
	s3.635-17.925,10.104-24.396l53.683-53.682c-5.096-10.556-9.586-21.382-13.451-32.431h-75.9c-19.054,0-34.5-15.446-34.5-34.5V443.58
	c0-19.054,15.446-34.5,34.5-34.5h75.9c3.864-11.049,8.355-21.876,13.451-32.432l-53.682-53.682
	c-6.47-6.47-10.105-15.245-10.105-24.395s3.635-17.925,10.104-24.396l96.761-96.761c6.47-6.47,15.246-10.104,24.396-10.104
	s17.925,3.635,24.395,10.105l53.682,53.682c10.556-5.096,21.383-9.587,32.432-13.451v-75.899c0-19.054,15.446-34.5,34.5-34.5
	h136.841c19.054,0,34.5,15.446,34.5,34.5v75.899c11.049,3.865,21.875,8.355,32.431,13.451l53.682-53.682
	c6.471-6.47,15.246-10.104,24.396-10.104c9.15,0,17.925,3.635,24.396,10.105l96.761,96.761c13.473,13.473,13.473,35.317,0,48.79
	l-53.682,53.682c5.097,10.556,9.587,21.383,13.451,32.432h75.899c19.054,0,34.5,15.446,34.5,34.5v136.841
	c0,19.054-15.446,34.5-34.5,34.5h-75.899c-3.865,11.051-8.354,21.874-13.451,32.431l53.682,53.682
	c13.473,13.474,13.473,35.317,0,48.791l-96.761,96.761c-13.473,13.473-35.316,13.473-48.791,0l-53.682-53.682
	c-10.557,5.098-21.38,9.586-32.431,13.451v75.899C614.921,901.308,599.475,916.754,580.421,916.754z M478.08,847.754h67.841v-67.006
	c0-15.785,10.713-29.557,26.013-33.439c22.481-5.706,44.029-14.643,64.044-26.561c13.566-8.078,30.884-5.917,42.047,5.247
	l47.404,47.404l47.971-47.971l-47.404-47.404c-11.163-11.164-13.325-28.481-5.247-42.047c11.918-20.015,20.854-41.563,26.561-64.044
	c3.883-15.3,17.654-26.013,33.439-26.013h67.006V478.08h-67.006c-15.785,0-29.557-10.713-33.439-26.013
	c-5.706-22.481-14.643-44.03-26.561-64.046c-8.078-13.565-5.916-30.882,5.247-42.045l47.404-47.404l-47.971-47.971l-47.404,47.404
	c-11.165,11.163-28.48,13.325-42.046,5.248c-20.017-11.918-41.564-20.855-64.046-26.562c-15.299-3.883-26.012-17.655-26.012-33.439
	v-67.005H478.08v67.005c0,15.785-10.713,29.556-26.012,33.439c-22.48,5.706-44.029,14.643-64.048,26.562
	c-13.565,8.076-30.882,5.916-42.045-5.249l-47.404-47.404l-47.971,47.971l47.404,47.404c11.164,11.163,13.325,28.479,5.249,42.044
	c-11.919,20.021-20.856,41.569-26.562,64.048c-3.883,15.3-17.654,26.013-33.439,26.013h-67.006v67.841h67.006
	c15.785,0,29.556,10.713,33.439,26.012c5.706,22.48,14.643,44.028,26.562,64.046c8.077,13.565,5.916,30.882-5.248,42.046
	l-47.404,47.404l47.971,47.971l47.404-47.404c11.163-11.162,28.478-13.324,42.044-5.249c20.023,11.921,41.572,20.857,64.048,26.563
	c15.3,3.883,26.013,17.654,26.013,33.439V847.754z M512,618.669c-58.816,0-106.667-47.852-106.667-106.668
	c0-58.816,47.851-106.667,106.667-106.667c58.817,0,106.668,47.851,106.668,106.667C618.669,570.817,570.817,618.669,512,618.669z
	 M512,474.333c-20.77,0-37.667,16.897-37.667,37.667S491.23,549.669,512,549.669s37.668-16.898,37.668-37.668
	S532.771,474.333,512,474.333z"/>
</svg>
