<?xml version="1.0" encoding="iso-8859-1"?>
<!-- Generator: Adobe Illustrator 16.0.3, SVG Export Plug-In . SVG Version: 6.00 Build 0)  -->
<!DOCTYPE svg PUBLIC "-//W3C//DTD SVG 1.1//EN" "http://www.w3.org/Graphics/SVG/1.1/DTD/svg11.dtd">
<svg version="1.1" id="icons" xmlns="http://www.w3.org/2000/svg" xmlns:xlink="http://www.w3.org/1999/xlink" x="0px" y="0px"
	 width="1024px" height="1024px" viewBox="0 0 1024 1024" style="enable-background:new 0 0 1024 1024;" xml:space="preserve">
<path id="volume_67" d="M513.02,132.033c-12.303-7.851-26.553-12.001-41.208-12.001c-16.792,0-41.747,5.396-65.275,31.104
	L282.479,286.682c-2.426,1.832-8.092,4.327-11.081,4.88h-64.94c-57.897,0-105,47.103-105,105v228.817c0,57.897,47.103,105,105,105
	h64.382c2.989,0.553,8.654,3.047,11.08,4.879l124.619,136.158c23.526,25.706,48.481,31.103,65.273,31.103
	c14.653,0,28.901-4.149,41.204-11.999c10.651-6.796,19.652-16.331,26.031-27.573c7.762-13.681,11.696-29.682,11.696-47.56V207.164
	c0-17.877-3.936-33.879-11.697-47.56C532.668,148.363,523.668,138.829,513.02,132.033z M170.458,625.379V396.562
	c0-19.8,16.2-36,36-36h21.262v300.817h-21.262C186.658,661.379,170.458,645.179,170.458,625.379z M481.744,815.387
	c0,11.852-3.918,18.132-9.932,18.132c-4.033,0-9.008-2.825-14.374-8.688L332.146,687.936c-8.231-8.993-21.682-16.975-35.426-21.784
	V355.988c13.937-4.788,27.641-12.867,35.983-21.982L457.438,197.72c5.367-5.864,10.341-8.688,14.374-8.688
	c6.012,0,9.932,6.281,9.932,18.132V815.387z M680.116,512c0,38.099-14.853,73.934-41.821,100.901
	c-6.735,6.735-15.566,10.104-24.395,10.104c-8.83,0-17.658-3.367-24.396-10.105c-13.473-13.473-13.473-35.317,0.001-48.79
	c13.936-13.936,21.61-32.442,21.61-52.11c0-19.668-7.675-38.175-21.611-52.111c-13.473-13.473-13.473-35.317,0-48.791
	c13.473-13.474,35.316-13.473,48.791,0C665.264,438.067,680.116,473.901,680.116,512z M801.895,512
	c0,82.169-32.038,159.458-90.213,217.631c-6.735,6.735-15.566,10.104-24.395,10.104c-8.83,0-17.658-3.368-24.396-10.105
	c-13.473-13.473-13.473-35.317,0.001-48.79c45.142-45.141,70.002-105.103,70.002-168.84c0-63.738-24.861-123.7-70.003-168.841
	c-13.473-13.473-13.473-35.317,0-48.791c13.473-13.473,35.317-13.473,48.79,0C769.856,352.542,801.895,429.832,801.895,512z"/>
</svg>
