<?xml version="1.0" encoding="iso-8859-1"?>
<!-- Generator: Adobe Illustrator 16.0.3, SVG Export Plug-In . SVG Version: 6.00 Build 0)  -->
<!DOCTYPE svg PUBLIC "-//W3C//DTD SVG 1.1//EN" "http://www.w3.org/Graphics/SVG/1.1/DTD/svg11.dtd">
<svg version="1.1" id="icons" xmlns="http://www.w3.org/2000/svg" xmlns:xlink="http://www.w3.org/1999/xlink" x="0px" y="0px"
	 width="1024px" height="1024px" viewBox="0 0 1024 1024" style="enable-background:new 0 0 1024 1024;" xml:space="preserve">
<path id="warning" d="M511.997,172.229c13.275,0,26.549,9.78,36.621,29.339l296.555,575.974
	c20.142,39.119,0.621,71.126-43.379,71.126H222.207c-44,0-63.521-32.007-43.379-71.126l296.548-575.974
	C485.446,182.008,498.722,172.229,511.997,172.229 M511.997,103.229c0,0-0.001,0-0.001,0c-22.23,0-43.698,7.62-62.083,22.034
	c-14.307,11.217-26.379,26.263-35.882,44.72L117.481,745.957c-9.592,18.629-14.811,37.688-15.513,56.648
	c-0.812,21.919,4.578,43.046,15.587,61.097s27.325,32.515,47.185,41.826c17.179,8.056,36.513,12.14,57.467,12.14h579.586
	c20.953,0,40.288-4.084,57.467-12.139c19.859-9.313,36.175-23.776,47.185-41.827c11.009-18.051,16.398-39.178,15.587-61.097
	c-0.702-18.961-5.922-38.02-15.514-56.649L609.963,169.982c-9.503-18.457-21.575-33.503-35.882-44.72
	C555.695,110.848,534.227,103.229,511.997,103.229L511.997,103.229z M511.999,680.349c-29.286,0-53.112,23.826-53.112,53.112
	c0,29.287,23.826,53.113,53.112,53.113c29.287,0,53.114-23.826,53.114-53.113C565.113,704.175,541.286,680.349,511.999,680.349z
	 M546.5,608.229V378.597c0-19.054-15.446-34.5-34.5-34.5s-34.5,15.446-34.5,34.5v229.632c0,19.054,15.446,34.5,34.5,34.5
	S546.5,627.283,546.5,608.229z"/>
</svg>
