<?xml version="1.0" encoding="iso-8859-1"?>
<!-- Generator: Adobe Illustrator 16.0.3, SVG Export Plug-In . SVG Version: 6.00 Build 0)  -->
<!DOCTYPE svg PUBLIC "-//W3C//DTD SVG 1.1//EN" "http://www.w3.org/Graphics/SVG/1.1/DTD/svg11.dtd">
<svg version="1.1" id="filetypes" xmlns="http://www.w3.org/2000/svg" xmlns:xlink="http://www.w3.org/1999/xlink" x="0px" y="0px"
	 width="1024px" height="1024px" viewBox="0 0 1024 1024" style="enable-background:new 0 0 1024 1024;" xml:space="preserve">
<path id="wave" d="M819.474,770.261c13.009-7.5,68.515-39.498,68.515-39.498c17.636-11.113-2.245-33.459-12.917-40.6
	c-10.677-7.145-23.827-10.717-39.46-10.717c-18.106,0-34.498,6.553-49.175,19.652c-7.43,6.553-12.823,14.354-16.153,23.41
	c-3.337,9.061-5.002,19.848-5.002,32.371c0,12.141,3.188,23.561,9.577,34.253c6.384,10.695,15.053,19.27,26.018,25.725
	c10.958,6.453,22.344,9.68,34.17,9.68c14.672,0,27.234-4.172,38.88-10.43c21.275-11.432,32.485-34.03,32.485-54.731
	c0-16.336-23.919-18.219-23.919,0.92c0,9.109-5.495,19.781-14.87,28.183c-7.63,6.836-17.339,11.15-30.87,11.15
	c-10.749,0-21.899-4.486-30.853-11.082c-9.027-6.651-16.891-21.651-16.987-33.618c-0.143-17.537,6.471-28.523,13.53-36.143
	c8.96-9.67,19.627-15.012,33.159-15.012c12.768,0,23.436,4.326,32.016,12.99c0,0-40.502,22.418-57.938,33.746
	C792.242,761.837,806.464,777.761,819.474,770.261z M288.408,700.469c0-6.6,5.4-12,12-12h0.563c6.6,0,12,5.4,12,12v63.303
	c0,6.6,0.843,17.334,1.874,23.853c0,0,0.22,1.394,4.407,6.618c4.188,5.225,9.909,7.834,17.167,7.834
	c17.677,0,26.518-10.07,26.518-30.221v-71.387c0-6.6,5.4-12,12-12h1.122c6.6,0,12,5.4,12,12v61.625c0,6.6,1.642,17.145,3.649,23.432
	c0,0,5.283,16.551,23.148,16.551c7.069,0,12.84-2.609,17.306-7.834c4.092-5.225,6.142-12.871,6.142-22.945v-70.828
	c0-6.6,5.4-12,12-12h0.563c6.6,0,12,5.4,12,12v69.701c0,6.6-0.561,17.371-1.246,23.936c0,0-0.01,0.094-2.522,5.127
	c-2.512,5.033-6.376,9.883-11.584,14.545c-9.12,7.834-19.447,11.746-30.983,11.746c-9.679,0-17.446-1.418-23.308-4.248
	c-5.862-2.836-11.771-7.746-17.726-14.732c-4.466,6.42-9.957,11.191-16.469,14.305c-6.516,3.113-14.053,4.676-22.609,4.676
	c-7.816,0-14.794-1.352-20.936-4.057c-6.141-2.703-11.353-6.664-15.631-11.885c-7.633-9.883-11.444-20.045-11.444-30.49V700.469z
	 M608.01,822.453c-6.6,0-12-5.4-12-12v-53.32c0-6.6-0.775-17.344-1.722-23.876c0,0-0.093-0.638-3.72-6.128
	c-3.629-5.486-8.842-9.861-15.633-13.119c-6.795-3.254-14.471-4.885-23.027-4.885c-3.725,0-6.795,0.234-9.213,0.701
	c-2.42,0.467-5.678,1.541-9.77,3.219c-6.699,2.801-12.517,7.746-17.445,14.838c-4.933,7.092-7.397,15.959-7.397,26.596
	c0,14.377,4.37,25.898,13.119,34.578c8.745,8.68,18.981,13.02,30.706,13.02c8.078,0,15.627-2.471,22.576-7.512
	c13.182-9.562,25.182,30.959-24.811,30.959c-17.305,0-32.658-6.525-46.057-19.578c-13.398-13.051-20.098-30.209-20.098-51.467
	c0-19.203,6.141-35.471,18.423-48.805c12.282-13.328,29.589-19.996,51.919-19.996c13.77,0,25.82,2.838,36.148,8.514
	c10.328,5.678,18.096,13.166,23.307,22.469c2.604,4.842,4.559,9.631,5.861,14.377c1.301,4.744,1.955,10.096,1.955,16.049v63.367
	c0,6.6-5.4,12-12,12H608.01z M632.354,699.693c-2.335-6.174,1.155-11.229,7.755-11.234l2.85-0.002
	c6.6-0.006,13.91,5.041,16.244,11.215l30.878,81.658c2.334,6.174,6.139,6.168,8.454-0.013l30.58-81.615
	c2.315-6.181,9.61-11.236,16.21-11.235h2.239c6.6,0.001,10.094,5.054,7.763,11.229l-38.402,101.76
	c-2.331,6.176-6.122,14.396-8.425,18.267c0,0,0,0-3.35,2.66c-3.166,2.094-6.979,3.141-11.444,3.141
	c-10.049,0-16.465-4.838-19.256-14.516L632.354,699.693z"/>
</svg>
