<?xml version="1.0" encoding="iso-8859-1"?>
<!-- Generator: Adobe Illustrator 16.0.3, SVG Export Plug-In . SVG Version: 6.00 Build 0)  -->
<!DOCTYPE svg PUBLIC "-//W3C//DTD SVG 1.1//EN" "http://www.w3.org/Graphics/SVG/1.1/DTD/svg11.dtd">
<svg version="1.1" id="filetypes" xmlns="http://www.w3.org/2000/svg" xmlns:xlink="http://www.w3.org/1999/xlink" x="0px" y="0px"
	 width="1024px" height="1024px" viewBox="0 0 1024 1024" style="enable-background:new 0 0 1024 1024;" xml:space="preserve">
<path id="aac" d="M406.199,822.453c-6.6,0-12-5.4-12-12v-53.32c0-6.6-0.775-17.344-1.722-23.876c0,0-0.092-0.638-3.721-6.128
	c-3.628-5.486-8.84-9.861-15.631-13.119c-6.795-3.254-14.472-4.885-23.028-4.885c-3.726,0-6.796,0.234-9.212,0.701
	c-2.421,0.467-5.679,1.541-9.77,3.219c-6.699,2.801-12.518,7.746-17.446,14.838c-4.933,7.092-7.396,15.959-7.396,26.596
	c0,14.377,4.37,25.898,13.119,34.578c8.745,8.68,18.981,13.02,30.705,13.02c7.793,0,14.543-3.21,21.836-6.991
	C383.667,789,393,825.523,347.863,825.523c-17.307,0-32.659-6.525-46.057-19.578c-13.398-13.051-20.098-30.209-20.098-51.467
	c0-19.203,6.141-35.471,18.423-48.805c12.281-13.328,29.588-19.996,51.918-19.996c13.77,0,25.82,2.838,36.148,8.514
	c10.328,5.678,18.096,13.166,23.308,22.469c2.604,4.842,4.558,9.631,5.861,14.377c1.3,4.744,1.954,10.096,1.954,16.049v63.367
	c0,6.6-5.4,12-12,12H406.199z M561.674,822.453c-6.6,0-12-5.4-12-12v-53.32c0-6.6-0.775-17.344-1.722-23.876
	c0,0-0.093-0.638-3.72-6.128c-3.629-5.486-8.842-9.861-15.633-13.119c-6.795-3.254-14.471-4.885-23.028-4.885
	c-3.725,0-6.795,0.234-9.211,0.701c-2.421,0.467-5.679,1.541-9.771,3.219c-6.699,2.801-12.517,7.746-17.445,14.838
	c-4.933,7.092-7.397,15.959-7.397,26.596c0,14.377,4.37,25.898,13.119,34.578c8.745,8.68,18.981,13.02,30.705,13.02
	c7.335,0,14.317-1.909,20.64-6.193c12.123-8.216,24.789,29.641-22.873,29.641c-17.306,0-32.658-6.525-46.057-19.578
	c-13.398-13.051-20.098-30.209-20.098-51.467c0-19.203,6.141-35.471,18.423-48.805c12.282-13.328,29.588-19.996,51.919-19.996
	c13.769,0,25.82,2.838,36.148,8.514c10.328,5.678,18.096,13.166,23.307,22.469c2.604,4.842,4.559,9.631,5.861,14.377
	c1.301,4.744,1.955,10.096,1.955,16.049v63.367c0,6.6-5.4,12-12,12H561.674z M593.684,756.02c0-10.791,2.791-21.586,8.374-32.381
	c5.024-9.861,12.561-18.047,22.609-24.563c5.208-3.35,10.747-5.953,16.608-7.816c5.862-1.857,12.143-2.791,18.842-2.791h12.563
	c6.6,0,12,5.275,12,11.724s-4.773,11.724-10.606,11.724c-5.834,0-15.919,0.973-22.411,2.161c0,0-8.015,1.468-17.505,8.726
	c-9.491,7.256-14.236,18.518-14.236,33.775c0,10.047,3.951,19.635,11.863,28.75c7.907,9.119,18.842,13.678,32.798,13.678h8.098
	c6.6,0,12,5.275,12,11.724s-5.4,11.724-12,11.724h-0.563c-6.6,0-17.377-0.498-23.949-1.106c0,0-7.638-0.708-15.546-4.337
	c-7.911-3.629-15.029-9.164-21.354-16.609C599.545,786.633,593.684,771.838,593.684,756.02z"/>
</svg>
