<?xml version="1.0" encoding="iso-8859-1"?>
<!-- Generator: Adobe Illustrator 16.0.3, SVG Export Plug-In . SVG Version: 6.00 Build 0)  -->
<!DOCTYPE svg PUBLIC "-//W3C//DTD SVG 1.1//EN" "http://www.w3.org/Graphics/SVG/1.1/DTD/svg11.dtd">
<svg version="1.1" id="filetypes" xmlns="http://www.w3.org/2000/svg" xmlns:xlink="http://www.w3.org/1999/xlink" x="0px" y="0px"
	 width="1024px" height="1024px" viewBox="0 0 1024 1024" style="enable-background:new 0 0 1024 1024;" xml:space="preserve">
<path id="spx" d="M671.416,812.375c0,6.903-5.597,12.5-12.5,12.5s-12.5-5.597-12.5-12.5c0-0.014-1.248-23.492-31.054-59.42
	c-29.358,33.629-30.446,59.406-30.446,59.42c0,6.903-5.597,12.5-12.5,12.5s-12.5-5.597-12.5-12.5c0-0.655,0.065-1.295,0.163-1.923
	c0.556-7.849,4.875-38.683,38.136-75.856c-15.913-14.622-31.108-22.313-31.286-22.402c-6.167-3.083-8.684-10.582-5.612-16.755
	c3.071-6.174,10.551-8.698,16.729-5.638c0.876,0.434,18.978,9.515,37.901,27.139c18.233-16.119,35.803-26.285,36.661-26.778
	c5.986-3.437,13.628-1.369,17.063,4.618c3.436,5.984,1.371,13.619-4.609,17.059c-0.185,0.106-15.872,9.212-31.975,23.32
	c33.363,39.4,37.648,67.547,38.173,75.338C671.353,811.11,671.416,811.734,671.416,812.375z M425.893,882.467c6.6,0,12-5.4,12-12
	V761.322c0-11.723,2.186-21.633,6.56-29.729c4.37-8.094,9.722-13.955,16.051-17.584c6.323-3.629,13.119-5.443,20.376-5.443
	c11.724,0,22.096,4.199,31.124,12.6c9.023,8.4,13.538,19.506,13.538,33.313c0,13.443-3.816,24.734-11.445,33.881
	c-7.632,9.146-18.659,11.357-18.659,11.357c-6.471,1.298-14.403,2.103-17.627,1.788s-8.277-1.07-11.229-1.68c0,0,0,0-4.681-2.892
	c-18.235-11.265-28.901,28.59,24.563,28.59c16.09,0,28.655-6.059,37.962-13.146c9.491-7.828,16.19-16.869,20.098-27.127
	c2.233-5.592,3.721-10.77,4.467-15.523c0.741-4.754,1.116-9.84,1.116-15.248c0-10.254-2.512-20.695-7.536-31.322
	c-5.024-10.625-12.841-19.531-23.448-26.711c-10.606-7.178-23.543-10.768-38.799-10.768c-10.424,0-20.752,2.469-30.984,7.396
	c-10.236,4.934-18.61,12.609-25.122,23.029c-3.725,5.77-6.468,11.818-8.234,18.143c-1.771,6.328-1.942,9.235-1.942,9.235
	c-0.39,6.589-0.709,17.38-0.709,23.979v103.006c0,6.6,5.4,12,12,12H425.893z M304.128,795.747
	c8.564,5.859,22.223,10.361,39.863,6.081c10.476-2.54,22.546-7.889,29.473-18.341c10.228-15.433-7.489-32.438-23.592-23.39
	c-49.638,27.897-83.939-20.017-59.139-52.872c7.089-9.395,22.713-19.15,36.107-20.333c11.256-0.996,21.549,0.234,30.285,2.328
	c20.966-10.534,31.449,22.621,6.874,22.621c-9.262,0-19.09-3.727-27.852-3.787c-10.39-0.07-19.282,3.831-23.948,8.497
	c-16.406,16.406,0.304,41.037,28.256,23.544c34.111-21.348,80.224,23.201,45.646,62.01c-30.417,34.134-98.688,27.244-107.509-1.166
	C272.744,782.106,302.962,776.53,304.128,795.747z"/>
</svg>
