<?xml version="1.0" encoding="iso-8859-1"?>
<!-- Generator: Adobe Illustrator 16.0.3, SVG Export Plug-In . SVG Version: 6.00 Build 0)  -->
<!DOCTYPE svg PUBLIC "-//W3C//DTD SVG 1.1//EN" "http://www.w3.org/Graphics/SVG/1.1/DTD/svg11.dtd">
<svg version="1.1" id="filetypes" xmlns="http://www.w3.org/2000/svg" xmlns:xlink="http://www.w3.org/1999/xlink" x="0px" y="0px"
	 width="1024px" height="1024px" viewBox="0 0 1024 1024" style="enable-background:new 0 0 1024 1024;" xml:space="preserve">
<path id="ogx" d="M704.75,812.375c0,6.903-5.597,12.5-12.5,12.5s-12.5-5.597-12.5-12.5c0-0.014-1.248-23.492-31.054-59.42
	c-29.358,33.629-30.446,59.406-30.446,59.42c0,6.903-5.597,12.5-12.5,12.5s-12.5-5.597-12.5-12.5c0-0.655,0.065-1.295,0.163-1.923
	c0.556-7.849,4.875-38.683,38.136-75.856c-15.913-14.622-31.108-22.313-31.286-22.402c-6.167-3.083-8.684-10.582-5.612-16.755
	c3.071-6.174,10.551-8.698,16.729-5.638c0.876,0.434,18.978,9.515,37.901,27.139c18.233-16.119,35.803-26.285,36.661-26.778
	c5.986-3.437,13.628-1.369,17.063,4.618c3.436,5.984,1.371,13.619-4.609,17.059c-0.185,0.106-15.872,9.212-31.975,23.32
	c33.363,39.4,37.648,67.547,38.173,75.338C704.687,811.11,704.75,811.734,704.75,812.375z M281.709,754.199v0.842
	c0,10.072,1.806,19.301,5.421,27.691c3.611,8.393,8.989,16.082,16.124,23.072c7.136,6.996,15.013,12.029,23.631,15.104
	c8.618,3.076,18.396,4.615,29.335,4.615c6.669,0,12.831-0.982,18.483-2.936c5.653-1.959,11.17-4.895,16.548-8.811
	c10.376-7.645,17.974-16.875,22.793-27.691c4.819-10.811,7.231-21.348,7.231-31.607c0-14.166-3.537-26.564-10.607-37.193
	c-7.074-10.629-15.818-18.367-26.238-23.217c-11.165-5.592-22.331-8.391-33.496-8.391c-11.911,0-23.076,2.982-33.496,8.949
	c-10.424,5.967-18.89,14.078-25.401,24.332C285.149,729.4,281.709,741.15,281.709,754.199z M310.311,737.543
	c1.945-4.945,4.868-9.752,8.763-14.418c7.606-9.334,18.366-14,32.279-14c7.789,0,15.021,1.775,21.702,5.32
	c6.678,3.547,11.872,8.584,15.584,15.117c4.266,6.533,6.398,14.096,6.398,22.68c0,11.945-1.763,21.559-5.286,28.838
	c-3.524,7.279-8.579,12.6-15.165,15.959c-6.586,3.357-13.961,5.037-22.121,5.037c-15.771,0-27.225-4.758-34.364-14.279
	c-7.145-9.518-10.712-20.996-10.712-34.438C307.389,747.762,308.361,742.49,310.311,737.543z M483.102,884.281
	c7.078,1.624,14.746,1.814,22.749,1.814c18.981,0,33.679-4.662,44.103-13.975c10.42-9.32,17.119-19.012,20.098-29.074
	c1.676-5.215,2.883-9.969,3.629-14.252c0.742-4.287,0.742-4.287,0.742-4.287c0.206-4.101,0.375-12.855,0.375-19.455v-56.762
	c0-8.758-1.771-16.814-5.305-24.176c-3.537-7.363-8.561-14.119-15.072-20.268c-12.281-12.111-27.543-18.17-45.778-18.17
	c-17.123,0-32.938,5.826-47.452,17.48c-14.516,11.654-21.772,29.51-21.772,53.563c0,18.646,6.324,34.586,18.98,47.824
	c6.883,7.088,14.236,12.355,22.052,15.805c7.815,3.447,16.281,5.174,25.401,5.174c47.146,0,42.479-36.521,22.257-28.362
	c-7.729,3.118-14.414,4.915-20.26,4.915c-13.311,0-23.9-4.104-31.772-12.316c-4.126-4.48-7.267-9.146-9.421-14
	c-2.155-4.852-2.155-4.852-2.155-4.852c-0.592-5.492-1.077-11.877-1.077-14.188l0,0c0-15.867,4.558-27.766,13.678-35.697
	c9.115-7.93,19.818-11.898,32.101-11.898c7.258,0,13.908,1.957,19.958,5.875c6.045,3.916,11.07,9.555,15.074,16.918
	c3.998,7.361,4.67,13.379,4.67,13.379c0.731,6.559,1.33,17.326,1.33,23.926v53.436c0,11.744-4.283,21.344-12.84,28.807
	c-8.561,7.453-19.356,11.184-32.38,11.184c-4.466,0-10.097-0.586-16.887-1.746c-6.796-1.164-10.324-2.113-10.324-2.113
	c-6.374-1.716-12.305,2.233-13.182,8.774C464.62,867.563,462.997,879.669,483.102,884.281z"/>
</svg>
