<?xml version="1.0" encoding="iso-8859-1"?>
<!-- Generator: Adobe Illustrator 16.0.3, SVG Export Plug-In . SVG Version: 6.00 Build 0)  -->
<!DOCTYPE svg PUBLIC "-//W3C//DTD SVG 1.1//EN" "http://www.w3.org/Graphics/SVG/1.1/DTD/svg11.dtd">
<svg version="1.1" id="filetypes" xmlns="http://www.w3.org/2000/svg" xmlns:xlink="http://www.w3.org/1999/xlink" x="0px" y="0px"
	 width="1024px" height="1024px" viewBox="0 0 1024 1024" style="enable-background:new 0 0 1024 1024;" xml:space="preserve">
<path id="ogg" d="M292.036,718.959c6.512-10.254,14.978-18.365,25.401-24.332c10.42-5.967,21.585-8.949,33.496-8.949
	c11.165,0,22.331,2.799,33.496,8.391c10.42,4.85,19.164,12.588,26.238,23.217c7.07,10.629,10.607,23.027,10.607,37.193
	c0,10.26-2.412,20.797-7.231,31.607c-4.819,10.816-12.417,20.047-22.793,27.691c-5.378,3.916-10.895,6.852-16.548,8.811
	c-5.652,1.953-11.814,2.936-18.483,2.936c-10.938,0-20.717-1.539-29.335-4.615c-8.618-3.074-16.495-8.107-23.631-15.104
	c-7.135-6.99-12.513-14.68-16.124-23.072c-3.615-8.391-5.421-17.619-5.421-27.691v-0.842
	C281.709,741.15,285.149,729.4,292.036,718.959z M307.389,753.359c0,13.441,3.567,24.92,10.712,34.438
	c7.14,9.521,18.593,14.279,34.364,14.279c8.16,0,15.535-1.68,22.121-5.037c6.586-3.359,11.641-8.68,15.165-15.959
	c3.523-7.279,5.286-16.893,5.286-28.838c0-8.584-2.133-16.146-6.398-22.68c-3.712-6.533-8.906-11.57-15.584-15.117
	c-6.682-3.545-13.913-5.32-21.702-5.32c-13.913,0-24.673,4.666-32.279,14c-3.895,4.666-6.817,9.473-8.763,14.418
	C308.361,742.49,307.389,747.762,307.389,753.359z M462.732,867.153c1.915-6.315,8.696-10.08,15.07-8.364
	c0,0,3.528,0.949,10.324,2.113c6.79,1.16,12.421,1.746,16.887,1.746c13.023,0,23.819-3.73,32.38-11.184
	c8.557-7.463,12.84-17.063,12.84-28.807v-53.436c0-6.6-0.599-17.367-1.33-23.926c0,0-0.672-6.018-4.67-13.379
	c-4.004-7.363-9.029-13.002-15.074-16.918c-6.05-3.918-12.7-5.875-19.958-5.875c-12.282,0-22.985,3.969-32.101,11.898
	c-9.12,7.932-13.678,19.83-13.678,35.697l0,0c0,2.311,0.485,8.695,1.077,14.188c0,0,0,0,2.155,4.852
	c2.154,4.854,5.295,9.52,9.421,14c7.872,8.213,18.462,12.316,31.772,12.316c5.351,0,11.699-0.838,18.333-4.117
	c20.816-10.29,21.483,27.564-20.33,27.564c-9.12,0-17.586-1.727-25.401-5.174c-7.815-3.449-15.169-8.717-22.052-15.805
	c-12.656-13.238-18.98-29.178-18.98-47.824c0-24.053,7.257-41.908,21.772-53.563c14.515-11.654,30.329-17.48,47.452-17.48
	c18.235,0,33.497,6.059,45.778,18.17c6.512,6.148,11.535,12.904,15.072,20.268c3.533,7.361,5.305,15.418,5.305,24.176v56.762
	c0,6.6-0.169,15.354-0.375,19.455c0,0,0,0-0.742,4.287c-0.746,4.283-1.953,9.037-3.629,14.252
	c-2.979,10.063-9.678,19.754-20.098,29.074c-10.424,9.313-25.121,13.975-44.103,13.975c-8.003,0-15.527-1.053-22.749-1.814
	C458.331,881.669,462.732,867.153,462.732,867.153z M619.503,867.47c1.202-6.49,7.4-10.396,13.773-8.682
	c0,0,3.529,0.95,10.324,2.114c6.791,1.16,12.422,1.746,16.888,1.746c13.023,0,23.818-3.73,32.38-11.184
	c8.557-7.463,12.84-17.063,12.84-28.807v-53.436c0-6.6-0.599-17.367-1.331-23.926c0,0-0.671-6.018-4.67-13.379
	c-4.004-7.363-9.028-13.002-15.073-16.918c-6.05-3.918-12.701-5.875-19.958-5.875c-12.282,0-22.985,3.969-32.101,11.898
	c-9.12,7.932-13.678,19.83-13.678,35.697l0,0c0,2.311,0.484,8.695,1.077,14.188c0,0,0,0,2.154,4.852
	c2.155,4.854,5.295,9.52,9.421,14c7.873,8.213,18.462,12.316,31.773,12.316c5.32,0,11.365-1.426,18.216-4.072
	c18.125-7.002,18.791,27.52-20.213,27.52c-9.12,0-17.586-1.727-25.401-5.174c-7.815-3.449-15.169-8.717-22.052-15.805
	c-12.657-13.238-18.981-29.178-18.981-47.824c0-24.053,7.258-41.908,21.772-53.563c14.516-11.654,30.33-17.48,47.453-17.48
	c18.235,0,33.496,6.059,45.778,18.17c6.511,6.148,11.535,12.904,15.072,20.268c3.533,7.361,5.304,15.418,5.304,24.176v56.762
	c0,6.6-0.169,15.354-0.375,19.455c0,0,0,0-0.741,4.287c-0.746,4.283-1.954,9.037-3.629,14.252
	c-2.979,10.063-9.678,19.754-20.098,29.074c-10.424,9.313-25.122,13.975-44.103,13.975c-8.004,0-15.569-0.724-22.75-1.814
	C616.997,881.002,619.503,867.47,619.503,867.47z"/>
</svg>
