<?xml version="1.0" encoding="iso-8859-1"?>
<!-- Generator: Adobe Illustrator 16.0.3, SVG Export Plug-In . SVG Version: 6.00 Build 0)  -->
<!DOCTYPE svg PUBLIC "-//W3C//DTD SVG 1.1//EN" "http://www.w3.org/Graphics/SVG/1.1/DTD/svg11.dtd">
<svg version="1.1" id="filetypes" xmlns="http://www.w3.org/2000/svg" xmlns:xlink="http://www.w3.org/1999/xlink" x="0px" y="0px"
	 width="1024px" height="1024px" viewBox="0 0 1024 1024" style="enable-background:new 0 0 1024 1024;" xml:space="preserve">
<path id="mp4" d="M300.408,822.453c-6.6,0-12-5.4-12-12v-68.115c0-6.6,0.229-15.517,0.51-19.814c0,0,0,0,1.025-3.35
	c1.021-3.35,2.743-7.07,5.164-11.166c3.72-6.512,9.582-12.002,17.585-16.469c7.815-3.908,16.469-5.861,25.959-5.861
	c15.073,0,27.355,6.328,36.846,18.98c8.745-12.652,22.235-18.98,40.475-18.98c7.999,0,15.632,2.002,22.889,6
	c7.258,4.004,13.071,9.492,17.446,16.471c4.37,6.977,6.56,14.375,6.56,22.189v80.115c0,6.6-5.4,12-12,12h-0.563c-6.6,0-12-5.4-12-12
	v-60.578c0-6.6-0.689-17.355-1.532-23.901c0,0-0.282-2.194-3.911-8.056c-3.629-5.863-9.817-8.793-18.563-8.793
	c-8.933,0-15.632,2.887-20.098,8.652c-4.096,5.77-6.141,12.469-6.141,20.098v72.578c0,6.6-5.4,12-12,12h-1.122c-6.6,0-12-5.4-12-12
	v-58.902c0-6.6-0.663-17.359-1.473-23.909c0,0-0.621-5.022-4.808-10.423c-4.188-5.395-10.376-8.094-18.563-8.094
	c-9.679,0-16.286,2.93-19.818,8.793c-3.537,5.861-5.304,13.633-5.304,23.307v69.229c0,6.6-5.4,12-12,12H300.408z M499.985,882.467
	c-6.6,0-12-5.4-12-12V767.461c0-6.6,0.319-17.391,0.709-23.979c0,0,0.172-2.908,1.943-9.236c1.767-6.324,4.51-12.373,8.234-18.143
	c6.512-10.42,14.886-18.096,25.122-23.029c10.232-4.928,20.561-7.396,30.984-7.396c15.256,0,28.191,3.59,38.799,10.768
	c10.607,7.18,18.424,16.086,23.447,26.711c5.025,10.627,7.537,21.068,7.537,31.322c0,5.408-0.375,10.494-1.117,15.248
	c-0.746,4.754-2.232,9.932-4.467,15.523c-3.906,10.258-10.605,19.299-20.098,27.127c-9.307,7.088-21.871,13.146-37.961,13.146
	c-51.452,0-43.452-37.856-24.564-28.59c5.339,2.619,5.339,2.619,5.339,2.619c2.591,0.76,7.348,1.638,10.572,1.952
	s11.157-0.49,17.628-1.788c0,0,11.027-2.211,18.66-11.357c7.627-9.146,11.443-20.438,11.443-33.881
	c0-13.807-4.514-24.912-13.537-33.313c-9.029-8.4-19.4-12.6-31.123-12.6c-7.258,0-14.053,1.814-20.377,5.443
	c-6.33,3.629-11.681,9.49-16.051,17.584c-4.375,8.096-6.56,18.006-6.56,29.729v109.145c0,6.6-5.4,12-12,12H499.985z M711.572,752.67
	c6.6,0,12-5.4,12-12v-60.809c0-6.6,2.732-16.657,6.073-22.35l14.65-24.971c3.341-5.692,6.073-4.949,6.073,1.65V740.67
	c0,6.6,5.4,12,12,12h5.309c6.6,0,12,5.4,12,12v0.563c0,6.6-5.4,12-12,12h-5.309c-6.6,0-12,5.4-12,12v21.221c0,6.6-5.4,12-12,12
	h-2.797c-6.6,0-12-5.4-12-12v-21.221c0-6.6-5.4-12-12-12h-47.423c-6.6,0-17.191-1.487-23.536-3.305c0,0-6.32-1.811-6.32-12.047
	c0.184-2.041,0.419-3.572,0.698-4.594c0.279-1.02,0.789-2.555,1.535-4.596l63.91-115.422c3.196-5.773,11.213-10.496,17.813-10.495
	l4.75,0.002c6.6,0.001,9.366,4.717,6.147,10.479l-58.619,104.938c-3.219,5.763-0.452,10.477,6.147,10.477H711.572z"/>
</svg>
