<?xml version="1.0" encoding="iso-8859-1"?>
<!-- Generator: Adobe Illustrator 16.0.3, SVG Export Plug-In . SVG Version: 6.00 Build 0)  -->
<!DOCTYPE svg PUBLIC "-//W3C//DTD SVG 1.1//EN" "http://www.w3.org/Graphics/SVG/1.1/DTD/svg11.dtd">
<svg version="1.1" id="filetypes" xmlns="http://www.w3.org/2000/svg" xmlns:xlink="http://www.w3.org/1999/xlink" x="0px" y="0px"
	 width="1024px" height="1024px" viewBox="0 0 1024 1024" style="enable-background:new 0 0 1024 1024;" xml:space="preserve">
<path id="webm_1_" d="M288.408,700.469c0-6.6,5.4-12,12-12h0.563c6.6,0,12,5.4,12,12v63.303c0,6.6,0.843,17.334,1.874,23.853
	c0,0,0.22,1.394,4.407,6.618c4.188,5.225,9.909,7.834,17.167,7.834c17.677,0,26.518-10.07,26.518-30.221v-71.387c0-6.6,5.4-12,12-12
	h1.122c6.6,0,12,5.4,12,12v61.625c0,6.6,1.642,17.145,3.649,23.432c0,0,5.283,16.551,23.148,16.551
	c7.069,0,12.84-2.609,17.306-7.834c4.092-5.225,6.142-12.871,6.142-22.945v-70.828c0-6.6,5.4-12,12-12h0.563c6.6,0,12,5.4,12,12
	v69.701c0,6.6-0.561,17.371-1.246,23.936c0,0-0.01,0.094-2.522,5.127c-2.512,5.033-6.376,9.883-11.584,14.545
	c-9.12,7.834-19.447,11.746-30.983,11.746c-9.679,0-17.446-1.418-23.308-4.248c-5.862-2.836-11.771-7.746-17.726-14.732
	c-4.466,6.42-9.957,11.191-16.469,14.305c-6.516,3.113-14.053,4.676-22.609,4.676c-7.816,0-14.794-1.352-20.936-4.057
	c-6.141-2.703-11.353-6.664-15.631-11.885c-7.633-9.883-11.444-20.045-11.444-30.49V700.469z M523.683,768.384
	c-2.936-5.483-0.606-12.575,5.175-15.759l45.734-25.189c5.781-3.184,6.018-8.783,0.525-12.443c0,0-8.805-5.867-21.27-5.867
	c-13.211,0-24,4.824-32.37,14.471c-3.721,4.453-6.416,9.508-8.091,15.17c-1.675,5.66-2.512,11.92-2.512,18.779
	c0,5.754,1.068,11.227,3.21,16.422c2.137,5.199,5.255,10.113,9.351,14.75c7.813,8.535,18.322,12.801,31.537,12.801
	c13.207,0,23.256-3.58,30.139-10.746c4.747-4.939,6.791-12.279,11.325-19.535c3.897-6.236,10.392-8.16,10.392-8.16
	c6.328-1.875,12.287,1.934,13.243,8.465c0,0,1.384,9.461-4.103,19.23c-5.49,9.77-13.727,18.004-24.703,24.703
	c-10.982,6.699-23.635,10.049-37.963,10.049c-11.539,0-22.658-3.109-33.356-9.33c-10.703-6.219-19.168-14.484-25.401-24.795
	c-6.236-10.305-9.351-21.309-9.351-33.012c0-12.072,1.627-22.471,4.885-31.201c3.254-8.727,8.514-16.252,15.771-22.566
	c14.327-12.627,30.329-18.941,48.011-18.941c15.256,0,28.096,3.445,38.521,10.328c7.813,5.165,14.844,12.475,21.09,21.93
	c2.082,3.151,0.971,12.463-4.084,15.764s-69.851,38.879-69.851,38.879C533.753,775.755,526.618,773.867,523.683,768.384z
	 M643.461,638.779c0-6.6,5.4-12,12-12h0.563c6.6,0,12,5.4,12,12v102.09c0,6.6,0.836,17.335,1.858,23.855
	c0,0,2.094,13.355,10.005,22.955c7.907,9.598,18.467,14.396,31.682,14.396c13.957,0,24.795-4.758,32.52-14.279
	c7.72-9.518,11.584-20.438,11.584-32.756c0-10.078-2.329-18.666-6.979-25.758c-4.096-6.717-9.308-11.758-15.632-15.117
	c-6.328-3.357-13.119-5.041-20.376-5.041c-11.354,0-27.082,12.928-33.022,3.207c-7.334-12,19.065-26.654,31.348-26.654
	c6.882,0,12.932,0.514,18.144,1.539c5.207,1.025,10.511,2.936,15.91,5.73c10.42,5.227,18.886,13.102,25.401,23.635
	c6.512,10.537,9.77,22.422,9.77,35.66c0,13.053-2.699,25.127-8.095,36.221c-5.399,11.096-13.354,20.051-23.866,26.854
	c-10.516,6.805-22.749,10.207-36.706,10.207c-13.215,0-24.982-3.258-35.311-9.783c-10.327-6.52-18.379-15.186-24.145-25.994
	c-5.771-10.809-8.653-22.178-8.653-34.107V638.779z M813.169,822.453c-6.6,0-12-5.4-12-12v-68.115c0-6.6,0.229-15.517,0.51-19.814
	c0,0,0,0,1.025-3.35c1.021-3.35,2.743-7.07,5.164-11.166c3.72-6.512,9.582-12.002,17.585-16.469
	c7.816-3.908,16.469-5.861,25.96-5.861c15.073,0,27.354,6.328,36.846,18.98c8.744-12.652,22.234-18.98,40.474-18.98
	c7.999,0,15.632,2.002,22.89,6c7.257,4.004,13.071,9.492,17.445,16.471c4.37,6.977,6.56,14.375,6.56,22.189v80.115
	c0,6.6-5.4,12-12,12h-0.563c-6.6,0-12-5.4-12-12v-60.578c0-6.6-0.689-17.355-1.532-23.901c0,0-0.282-2.194-3.911-8.056
	c-3.629-5.863-9.817-8.793-18.563-8.793c-8.932,0-15.631,2.887-20.098,8.652c-4.095,5.77-6.141,12.469-6.141,20.098v72.578
	c0,6.6-5.4,12-12,12h-1.122c-6.6,0-12-5.4-12-12v-58.902c0-6.6-0.663-17.359-1.473-23.909c0,0-0.621-5.022-4.808-10.423
	c-4.188-5.395-10.376-8.094-18.563-8.094c-9.678,0-16.286,2.93-19.818,8.793c-3.537,5.861-5.304,13.633-5.304,23.307v69.229
	c0,6.6-5.4,12-12,12H813.169z M538.796,771.938c12.767-7.359,67.237-38.761,67.237-38.761c17.308-10.907-2.203-32.836-12.677-39.843
	c-10.477-7.012-23.382-10.518-38.724-10.518c-17.769,0-33.854,6.431-48.258,19.286c-7.291,6.431-12.584,14.086-15.852,22.975
	c-3.275,8.891-4.909,19.477-4.909,31.767c0,11.914,3.128,23.121,9.398,33.613c6.266,10.498,14.772,18.912,25.533,25.245
	c10.753,6.334,21.927,9.501,33.532,9.501c14.398,0,26.727-4.095,38.154-10.235c20.88-11.22,31.88-33.396,31.88-53.712
	c0-16.031-23.473-17.879-23.473,0.903c0,8.939-5.393,19.412-14.593,27.655c-7.488,6.709-17.016,10.945-30.295,10.945
	c-10.549,0-21.491-4.405-30.276-10.878c-8.859-6.526-16.576-21.246-16.671-32.99c-0.14-17.211,6.351-27.991,13.277-35.468
	c8.794-9.49,19.261-14.732,32.541-14.732c12.53,0,22.999,4.245,31.419,12.748c0,0-39.746,22-56.858,33.116
	C512.072,763.672,526.028,779.299,538.796,771.938z"/>
</svg>
