<?xml version="1.0" encoding="iso-8859-1"?>
<!-- Generator: Adobe Illustrator 16.0.3, SVG Export Plug-In . SVG Version: 6.00 Build 0)  -->
<!DOCTYPE svg PUBLIC "-//W3C//DTD SVG 1.1//EN" "http://www.w3.org/Graphics/SVG/1.1/DTD/svg11.dtd">
<svg version="1.1" id="filetypes" xmlns="http://www.w3.org/2000/svg" xmlns:xlink="http://www.w3.org/1999/xlink" x="0px" y="0px"
	 width="1024px" height="1024px" viewBox="0 0 1024 1024" style="enable-background:new 0 0 1024 1024;" xml:space="preserve">
<path id="_x33_gp" d="M303.758,651.344c-6.6,0-12-5.4-12-12v-0.564c0-6.6,5.4-12,12-12h57.785c6.6,0,17.267,1.191,23.704,2.647
	c0,0,18.722,4.235,18.722,17.991c0,5.209-1.539,9.992-4.618,14.363c-3.079,4.369-7.882,9.525-14.406,15.475l-21.55,17.931
	c-5.074,4.221-3.886,8.484,2.64,9.475c0,0,21.317,3.233,33.434,13.29c12.116,10.059,18.179,25.053,18.179,44.984
	c0,17.324-5.818,31.578-17.446,42.752c-11.632,11.178-25.636,16.766-42.009,16.766h-58.9c-6.6,0-12-5.4-12-12v-0.564
	c0-6.6,5.4-12,12-12h41.876c6.6,0,17.327-0.888,23.837-1.973c0,0,8.818-1.469,15.518-8.355c3.35-3.533,5.905-7.396,7.677-11.584
	c1.766-4.188,2.651-8.885,2.651-14.096c0-9.49-3.725-17.586-11.165-24.285c-3.908-3.533-8.374-6.184-13.398-7.955
	c-5.024-1.766-10.982-2.652-17.864-2.652h-21.775c-6.6,0-12-4.271-12-9.49s3.952-13.17,8.782-17.668l43.286-40.309
	c4.83-4.498,3.382-8.178-3.218-8.178H303.758z M460.472,867.224c1.783-6.354,8.457-10.15,14.83-8.435c0,0,3.528,0.949,10.324,2.113
	c6.79,1.16,12.421,1.746,16.887,1.746c13.023,0,23.819-3.73,32.38-11.184c8.557-7.463,12.84-17.063,12.84-28.807v-53.436
	c0-6.6-0.599-17.367-1.33-23.926c0,0-0.672-6.018-4.67-13.379c-4.004-7.363-9.029-13.002-15.074-16.918
	c-6.05-3.918-12.7-5.875-19.958-5.875c-12.282,0-22.985,3.969-32.101,11.898c-9.12,7.932-13.678,19.83-13.678,35.697l0,0
	c0,2.311,0.485,8.695,1.077,14.188c0,0,0,0,2.155,4.852c2.154,4.854,5.295,9.52,9.421,14c7.872,8.213,18.462,12.316,31.772,12.316
	c6.187,0,13.493-1.606,21.607-5.504c10.212-4.905,10.628,8.234,10.628,8.234c0.209,6.597-4.612,14.054-10.714,16.57
	c0,0-0.957,0.395-6.631,1.896c-5.679,1.5-11.305,2.25-16.888,2.25c-9.12,0-17.586-1.727-25.401-5.174
	c-7.815-3.449-15.169-8.717-22.052-15.805c-12.656-13.238-18.98-29.178-18.98-47.824c0-24.053,7.257-41.908,21.772-53.563
	c14.515-11.654,30.329-17.48,47.452-17.48c18.235,0,33.497,6.059,45.778,18.17c6.512,6.148,11.535,12.904,15.072,20.268
	c3.533,7.361,5.305,15.418,5.305,24.176v56.762c0,6.6-0.169,15.354-0.375,19.455c0,0,0,0-0.742,4.287
	c-0.746,4.283-1.953,9.037-3.629,14.252c-2.979,10.063-9.678,19.754-20.098,29.074c-10.424,9.313-25.121,13.975-44.103,13.975
	c-8.003,0-15.665-0.218-22.749-1.814C457.167,879,460.472,867.224,460.472,867.224z M606.625,882.467c-6.6,0-12-5.4-12-12V767.461
	c0-6.6,0.319-17.391,0.709-23.979c0,0,0.172-2.907,1.943-9.235c1.766-6.324,4.51-12.373,8.234-18.143
	c6.512-10.42,14.886-18.096,25.122-23.029c10.231-4.928,20.56-7.396,30.983-7.396c15.256,0,28.192,3.59,38.8,10.768
	c10.606,7.18,18.423,16.086,23.447,26.711c5.024,10.627,7.536,21.068,7.536,31.322c0,5.408-0.375,10.494-1.116,15.248
	c-0.746,4.754-2.233,9.932-4.467,15.523c-3.907,10.258-10.606,19.299-20.098,27.127c-9.307,7.088-21.959,11.467-37.962,13.146
	c-11.107,0-22.641-0.141-31.38-6.237c-11.878-8.286-9.889-17.748-9.889-17.748c1.358-6.459,5.673-10.137,9.587-8.174
	c3.915,1.963,9.379,4.47,12.143,5.569s7.662,2.257,10.887,2.571c3.224,0.314,11.156-0.49,17.627-1.788
	c0,0,11.027-2.211,18.66-11.357c7.628-9.146,11.444-20.438,11.444-33.881c0-13.807-4.515-24.912-13.538-33.313
	c-9.028-8.4-19.399-12.6-31.123-12.6c-7.258,0-14.053,1.814-20.377,5.443c-6.329,3.629-11.68,9.49-16.051,17.584
	c-4.374,8.096-6.56,18.006-6.56,29.729v109.145c0,6.6-5.4,12-12,12H606.625z"/>
</svg>
