<?xml version="1.0" encoding="iso-8859-1"?>
<!-- Generator: Adobe Illustrator 16.0.0, SVG Export Plug-In . SVG Version: 6.00 Build 0)  -->
<!DOCTYPE svg PUBLIC "-//W3C//DTD SVG 1.1//EN" "http://www.w3.org/Graphics/SVG/1.1/DTD/svg11.dtd">
<svg version="1.1" id="filetypes" xmlns="http://www.w3.org/2000/svg" xmlns:xlink="http://www.w3.org/1999/xlink" x="0px" y="0px"
	 width="1024px" height="1024px" viewBox="0 0 1024 1024" style="enable-background:new 0 0 1024 1024;" xml:space="preserve">
<path id="webm" d="M975.627,730.338v80.115c0,6.6-5.4,12-12,12h-0.563c-6.6,0-12-5.4-12-12v-60.578c0-6.6-0.689-17.355-1.532-23.901
	c0,0-0.282-2.194-3.911-8.056c-3.629-5.863-9.817-8.793-18.563-8.793c-8.932,0-15.631,2.887-20.098,8.652
	c-4.095,5.77-6.141,12.469-6.141,20.098v72.578c0,6.6-5.4,12-12,12h-1.122c-6.6,0-12-5.4-12-12v-58.902
	c0-6.6-0.663-17.359-1.473-23.909c0,0-0.621-5.022-4.808-10.423c-4.188-5.395-10.376-8.094-18.563-8.094
	c-9.678,0-16.286,2.93-19.818,8.793c-3.537,5.861-5.304,13.633-5.304,23.307v69.229c0,6.6-5.4,12-12,12h-0.563c-6.6,0-12-5.4-12-12
	v-68.115c0-6.6,0.229-15.517,0.51-19.814c0,0,0,0,1.025-3.35c1.021-3.35,2.743-7.07,5.164-11.166
	c3.72-6.512,9.582-12.002,17.585-16.469c7.816-3.908,16.469-5.861,25.96-5.861c15.073,0,27.354,6.328,36.846,18.98
	c8.744-12.652,22.234-18.98,40.474-18.98c7.999,0,15.632,2.002,22.89,6c7.257,4.004,13.071,9.492,17.445,16.471
	C973.438,715.125,975.627,722.523,975.627,730.338z M450.866,688.469h-0.563c-6.6,0-12,5.4-12,12v70.828
	c0,10.074-2.05,17.721-6.142,22.945c-4.466,5.225-10.236,7.834-17.306,7.834c-17.865,0-23.148-16.551-23.148-16.551
	c-2.007-6.287-3.649-16.832-3.649-23.432v-61.625c0-6.6-5.4-12-12-12h-1.122c-6.6,0-12,5.4-12,12v71.387
	c0,20.15-8.841,30.221-26.518,30.221c-7.258,0-12.979-2.609-17.167-7.834c-4.187-5.225-4.407-6.618-4.407-6.618
	c-1.03-6.519-1.874-17.253-1.874-23.853v-63.303c0-6.6-5.4-12-12-12h-0.563c-6.6,0-12,5.4-12,12v78.623
	c0,10.445,3.812,20.607,11.444,30.49c4.278,5.221,9.49,9.182,15.631,11.885c6.142,2.705,13.119,4.057,20.936,4.057
	c8.557,0,16.094-1.563,22.609-4.676c6.512-3.113,12.003-7.885,16.469-14.305c5.954,6.986,11.863,11.896,17.726,14.732
	c5.861,2.83,13.629,4.248,23.308,4.248c11.536,0,21.863-3.912,30.983-11.746c5.208-4.662,9.072-9.512,11.584-14.545
	c2.513-5.033,2.522-5.127,2.522-5.127c0.686-6.564,1.246-17.336,1.246-23.936v-69.701
	C462.866,693.869,457.466,688.469,450.866,688.469z M600.64,762.16c0,8.939-5.393,19.412-14.593,27.655
	c-7.488,6.709-17.016,10.945-30.295,10.945c-10.549,0-21.491-4.405-30.276-10.878c-8.859-6.526-16.576-21.246-16.671-32.99
	c-0.14-17.211,6.351-27.991,13.277-35.468c8.794-9.49,19.261-14.732,32.541-14.732c12.53,0,22.999,4.245,31.419,12.748
	c0,0-39.746,22-56.858,33.116c-17.111,11.115-3.155,26.742,9.612,19.382c12.767-7.359,67.237-38.761,67.237-38.761
	c17.308-10.907-2.203-32.836-12.677-39.843c-10.477-7.012-23.382-10.518-38.724-10.518c-17.769,0-33.854,6.431-48.258,19.286
	c-7.291,6.431-12.584,14.086-15.852,22.975c-3.275,8.891-4.909,19.477-4.909,31.767c0,11.914,3.128,23.121,9.398,33.613
	c6.266,10.498,14.772,18.912,25.533,25.245c10.753,6.334,21.927,9.501,33.532,9.501c14.398,0,26.727-4.095,38.154-10.235
	c20.88-11.22,31.88-33.396,31.88-53.712C624.112,745.226,600.64,743.378,600.64,762.16z M745.065,692.947
	c-5.399-2.795-10.703-4.705-15.91-5.73c-5.212-1.025-11.262-1.539-18.144-1.539c-12.282,0-38.682,14.654-31.348,26.654
	c5.94,9.721,21.669-3.207,33.022-3.207c7.257,0,14.048,1.684,20.376,5.041c6.324,3.359,11.536,8.4,15.632,15.117
	c4.649,7.092,6.979,15.68,6.979,25.758c0,12.318-3.864,23.238-11.584,32.756c-7.725,9.521-18.563,14.279-32.52,14.279
	c-13.215,0-23.774-4.799-31.682-14.396c-7.911-9.6-10.005-22.955-10.005-22.955c-1.022-6.521-1.858-17.256-1.858-23.855v-102.09
	c0-6.6-5.4-12-12-12h-0.563c-6.6,0-12,5.4-12,12v116.859c0,11.93,2.883,23.299,8.653,34.107
	c5.766,10.809,13.817,19.475,24.145,25.994c10.328,6.525,22.096,9.783,35.311,9.783c13.957,0,26.19-3.402,36.706-10.207
	c10.512-6.803,18.467-15.758,23.866-26.854c5.396-11.094,8.095-23.168,8.095-36.221c0-13.238-3.258-25.123-9.77-35.66
	C763.951,706.049,755.485,698.174,745.065,692.947z"/>
</svg>
