<?xml version="1.0" encoding="iso-8859-1"?>
<!-- Generator: Adobe Illustrator 16.0.3, SVG Export Plug-In . SVG Version: 6.00 Build 0)  -->
<!DOCTYPE svg PUBLIC "-//W3C//DTD SVG 1.1//EN" "http://www.w3.org/Graphics/SVG/1.1/DTD/svg11.dtd">
<svg version="1.1" id="filetypes" xmlns="http://www.w3.org/2000/svg" xmlns:xlink="http://www.w3.org/1999/xlink" x="0px" y="0px"
	 width="1024px" height="1024px" viewBox="0 0 1024 1024" style="enable-background:new 0 0 1024 1024;" xml:space="preserve">
<path id="m4a" d="M300.408,822.453c-6.6,0-12-5.4-12-12v-68.115c0-6.6,0.229-15.517,0.51-19.814c0,0,0,0,1.025-3.35
	c1.021-3.35,2.743-7.07,5.164-11.166c3.72-6.512,9.582-12.002,17.585-16.469c7.815-3.908,16.469-5.861,25.959-5.861
	c15.073,0,27.355,6.328,36.846,18.98c8.745-12.652,22.235-18.98,40.475-18.98c7.999,0,15.632,2.002,22.889,6
	c7.258,4.004,13.071,9.492,17.446,16.471c4.37,6.977,6.56,14.375,6.56,22.189v80.115c0,6.6-5.4,12-12,12h-0.563c-6.6,0-12-5.4-12-12
	v-60.578c0-6.6-0.689-17.355-1.532-23.901c0,0-0.282-2.194-3.911-8.056c-3.629-5.863-9.817-8.793-18.563-8.793
	c-8.933,0-15.632,2.887-20.098,8.652c-4.096,5.77-6.141,12.469-6.141,20.098v72.578c0,6.6-5.4,12-12,12h-1.122c-6.6,0-12-5.4-12-12
	v-58.902c0-6.6-0.663-17.359-1.473-23.909c0,0-0.621-5.022-4.808-10.423c-4.188-5.395-10.376-8.094-18.563-8.094
	c-9.679,0-16.286,2.93-19.818,8.793c-3.537,5.861-5.304,13.633-5.304,23.307v69.229c0,6.6-5.4,12-12,12H300.408z M556.098,752.67
	c6.6,0,12-5.4,12-12v-60.809c0-6.6,2.732-16.657,6.073-22.35l14.65-24.971c3.341-5.692,6.073-4.949,6.073,1.65V740.67
	c0,6.6,5.4,12,12,12h5.309c6.6,0,12,5.4,12,12v0.563c0,6.6-5.4,12-12,12h-5.309c-6.6,0-12,5.4-12,12v21.221c0,6.6-5.4,12-12,12
	h-2.797c-6.6,0-12-5.4-12-12v-21.221c0-6.6-5.4-12-12-12h-47.424c-6.6,0-17.191-1.487-23.536-3.305c0,0-6.319-1.811-6.319-12.047
	c0.183-2.041,0.418-3.572,0.697-4.594c0.279-1.02,0.79-2.555,1.535-4.596l63.91-115.422c3.196-5.773,11.213-10.496,17.813-10.495
	l4.75,0.002c6.6,0.001,9.366,4.718,6.147,10.479l-58.618,104.938c-3.219,5.762-0.452,10.477,6.147,10.477H556.098z M763.485,822.453
	c-6.6,0-12-5.4-12-12v-53.32c0-6.6-0.774-17.344-1.722-23.876c0,0-0.093-0.638-3.721-6.128c-3.629-5.486-8.841-9.861-15.632-13.119
	c-6.795-3.254-14.472-4.885-23.028-4.885c-3.725,0-6.795,0.234-9.212,0.701c-2.42,0.467-5.679,1.541-9.77,3.219
	c-6.699,2.801-12.518,7.746-17.445,14.838c-4.934,7.092-7.397,15.959-7.397,26.596c0,14.377,4.37,25.898,13.119,34.578
	c8.745,8.68,18.981,13.02,30.705,13.02c8.953,0,16.685-3.813,24.822-9.227c10.795-7.183,19.462,32.674-27.056,32.674
	c-17.306,0-32.658-6.525-46.057-19.578c-13.398-13.051-20.098-30.209-20.098-51.467c0-19.203,6.141-35.471,18.423-48.805
	c12.281-13.328,29.588-19.996,51.919-19.996c13.769,0,25.819,2.838,36.147,8.514c10.328,5.678,18.096,13.166,23.308,22.469
	c2.604,4.842,4.558,9.631,5.861,14.377c1.3,4.744,1.954,10.096,1.954,16.049v63.367c0,6.6-5.4,12-12,12H763.485z"/>
</svg>
