<?xml version="1.0" encoding="iso-8859-1"?>
<!-- Generator: Adobe Illustrator 16.0.3, SVG Export Plug-In . SVG Version: 6.00 Build 0)  -->
<!DOCTYPE svg PUBLIC "-//W3C//DTD SVG 1.1//EN" "http://www.w3.org/Graphics/SVG/1.1/DTD/svg11.dtd">
<svg version="1.1" id="filetypes" xmlns="http://www.w3.org/2000/svg" xmlns:xlink="http://www.w3.org/1999/xlink" x="0px" y="0px"
	 width="1024px" height="1024px" viewBox="0 0 1024 1024" style="enable-background:new 0 0 1024 1024;" xml:space="preserve">
<path id="opus" d="M730.426,800.939c8.82,28.41,77.092,35.3,107.508,1.166c34.578-38.809-11.535-83.357-45.646-62.01
	c-27.952,17.493-44.662-7.138-28.256-23.544c4.666-4.666,13.559-8.567,23.948-8.497c8.762,0.061,18.59,3.787,27.852,3.787
	c24.575,0,14.093-33.155-6.873-22.621c-8.736-2.094-19.029-3.324-30.285-2.328c-13.395,1.183-29.019,10.938-36.107,20.333
	c-24.801,32.855,9.501,80.77,59.139,52.872c16.103-9.049,33.82,7.957,23.592,23.39c-6.927,10.452-18.997,15.801-29.473,18.341
	c-17.64,4.28-31.299-0.222-39.863-6.081C754.795,776.53,724.576,782.106,730.426,800.939z M292.036,718.959
	c6.512-10.254,14.978-18.365,25.401-24.332c10.42-5.967,21.585-8.949,33.496-8.949c11.165,0,22.331,2.799,33.496,8.391
	c10.42,4.85,19.164,12.588,26.238,23.217c7.07,10.629,10.607,23.027,10.607,37.193c0,10.26-2.412,20.797-7.231,31.607
	c-4.819,10.816-12.417,20.047-22.793,27.691c-5.378,3.916-10.895,6.852-16.548,8.811c-5.652,1.953-11.814,2.936-18.483,2.936
	c-10.938,0-20.717-1.539-29.335-4.615c-8.618-3.074-16.495-8.107-23.631-15.104c-7.135-6.99-12.513-14.68-16.124-23.072
	c-3.615-8.391-5.421-17.619-5.421-27.691v-0.842C281.709,741.15,285.149,729.4,292.036,718.959z M307.389,753.359
	c0,13.441,3.567,24.92,10.712,34.438c7.14,9.521,18.593,14.279,34.364,14.279c8.16,0,15.535-1.68,22.121-5.037
	c6.586-3.359,11.641-8.68,15.165-15.959c3.523-7.279,5.286-16.893,5.286-28.838c0-8.584-2.133-16.146-6.398-22.68
	c-3.712-6.533-8.906-11.57-15.584-15.117c-6.682-3.545-13.913-5.32-21.702-5.32c-13.913,0-24.673,4.666-32.279,14
	c-3.895,4.666-6.817,9.473-8.763,14.418C308.361,742.49,307.389,747.762,307.389,753.359z M453.649,882.467c-6.6,0-12-5.4-12-12
	V767.461c0-6.6,0.319-17.391,0.709-23.979c0,0,0.172-2.908,1.943-9.236c1.767-6.324,4.51-12.373,8.234-18.143
	c6.512-10.42,14.886-18.096,25.122-23.029c10.231-4.928,20.56-7.396,30.983-7.396c15.257,0,28.192,3.59,38.8,10.768
	c10.607,7.18,18.424,16.086,23.447,26.711c5.025,10.627,7.537,21.068,7.537,31.322c0,5.408-0.375,10.494-1.117,15.248
	c-0.746,4.754-2.232,9.932-4.467,15.523c-3.906,10.258-10.605,19.299-20.098,27.127c-9.307,7.088-21.871,13.146-37.961,13.146
	c-57.786,0-45.12-38.521-24.564-28.59c3.618,1.748,3.618,1.748,3.618,1.748c3.537,1.238,9.069,2.509,12.293,2.823
	s11.157-0.49,17.627-1.788c0,0,11.028-2.211,18.661-11.357c7.627-9.146,11.443-20.438,11.443-33.881
	c0-13.807-4.514-24.912-13.537-33.313c-9.029-8.4-19.4-12.6-31.124-12.6c-7.258,0-14.053,1.814-20.377,5.443
	c-6.328,3.629-11.68,9.49-16.05,17.584c-4.375,8.096-6.56,18.006-6.56,29.729v109.145c0,6.6-5.4,12-12,12H453.649z M598.241,700.469
	c0-6.6,5.4-12,12-12h0.564c6.6,0,12,5.4,12,12v56.869c0,6.6,0.377,16.114,0.837,21.143c0,0,0,0,1.675,3.729
	c1.675,3.734,4.188,7.275,7.537,10.633c6.699,6.16,14.048,9.234,22.051,9.234c8.933,0,16.7-3.498,23.309-10.494
	c6.603-6.996,9.909-14.41,9.909-22.244v-68.869c0-6.6,5.4-12,12-12h0.563c6.6,0,12,5.4,12,12v55.715c0,6.6-0.984,17.31-2.188,23.799
	c0,0-3.396,18.32-14.561,29.879c-10.424,10.441-24.102,15.662-41.033,15.662c-15.448,0-28.75-5.174-39.916-15.523
	c-11.165-10.344-16.748-25.404-16.748-45.172V700.469z"/>
</svg>
