<?xml version="1.0" encoding="UTF-8"?>
<svg xmlns="http://www.w3.org/2000/svg" xmlns:xlink="http://www.w3.org/1999/xlink" width="32pt" height="32pt" viewBox="0 0 32 32" version="1.1">
<g id="surface1">
<path style=" stroke:none;fill-rule:nonzero;fill:rgb(0%,0%,0%);fill-opacity:1;" d="M 16 27.714844 C 15.40625 27.714844 14.921875 27.234375 14.921875 26.636719 L 14.921875 17.078125 L 5.363281 17.078125 C 4.765625 17.078125 4.285156 16.59375 4.285156 16 C 4.285156 15.40625 4.765625 14.921875 5.363281 14.921875 L 14.921875 14.921875 L 14.921875 5.363281 C 14.921875 4.765625 15.40625 4.285156 16 4.285156 C 16.59375 4.285156 17.078125 4.765625 17.078125 5.363281 L 17.078125 14.921875 L 26.636719 14.921875 C 27.234375 14.921875 27.714844 15.40625 27.714844 16 C 27.714844 16.59375 27.234375 17.078125 26.636719 17.078125 L 17.078125 17.078125 L 17.078125 26.636719 C 17.078125 27.234375 16.59375 27.714844 16 27.714844 Z M 16 27.714844 "/>
</g>
</svg>
