<?xml version="1.0" encoding="UTF-8"?>
<svg xmlns="http://www.w3.org/2000/svg" xmlns:xlink="http://www.w3.org/1999/xlink" width="32pt" height="32pt" viewBox="0 0 32 32" version="1.1">
<g id="surface1">
<path style=" stroke:none;fill-rule:nonzero;fill:rgb(0%,0%,0%);fill-opacity:1;" d="M 31.347656 4.886719 C 30.929688 4.46875 30.246094 4.46875 29.824219 4.886719 L 26.085938 8.628906 C 25.832031 7.066406 24.476562 5.871094 22.847656 5.871094 L 9.152344 5.871094 C 7.34375 5.871094 5.871094 7.34375 5.871094 9.152344 L 5.871094 22.847656 C 5.871094 24.65625 7.34375 26.128906 9.152344 26.128906 L 22.847656 26.128906 C 24.65625 26.128906 26.128906 24.65625 26.128906 22.847656 L 26.128906 11.636719 L 31.347656 6.414062 C 31.769531 5.992188 31.769531 5.308594 31.347656 4.886719 Z M 23.972656 22.847656 C 23.972656 23.464844 23.464844 23.972656 22.847656 23.972656 L 9.152344 23.972656 C 8.535156 23.972656 8.027344 23.464844 8.027344 22.847656 L 8.027344 9.152344 C 8.027344 8.535156 8.535156 8.027344 9.152344 8.027344 L 22.847656 8.027344 C 23.464844 8.027344 23.972656 8.535156 23.972656 9.152344 L 23.972656 10.742188 L 16.355469 18.359375 L 11.875 13.878906 C 11.453125 13.460938 10.773438 13.460938 10.351562 13.878906 C 9.929688 14.300781 9.929688 14.984375 10.351562 15.40625 L 15.589844 20.644531 C 15.792969 20.847656 16.066406 20.960938 16.355469 20.960938 C 16.640625 20.960938 16.914062 20.847656 17.117188 20.644531 L 23.972656 13.792969 Z M 23.972656 22.847656 "/>
</g>
</svg>
