<?xml version="1.0" encoding="UTF-8"?>
<svg xmlns="http://www.w3.org/2000/svg" xmlns:xlink="http://www.w3.org/1999/xlink" width="32pt" height="32pt" viewBox="0 0 32 32" version="1.1">
<g id="surface1">
<path style=" stroke:none;fill-rule:nonzero;fill:rgb(0%,0%,0%);fill-opacity:1;" d="M 23.0625 3.171875 L 14.515625 3.171875 C 13.328125 3.171875 11.910156 3.761719 11.070312 4.601562 L 7.019531 8.652344 C 6.179688 9.492188 5.589844 10.910156 5.589844 12.097656 L 5.589844 25.480469 C 5.589844 27.289062 7.0625 28.761719 8.871094 28.761719 L 23.0625 28.761719 C 24.871094 28.761719 26.34375 27.289062 26.34375 25.480469 L 26.34375 6.453125 C 26.34375 4.644531 24.871094 3.171875 23.0625 3.171875 Z M 12.3125 6.40625 L 12.3125 9.894531 L 8.824219 9.894531 Z M 24.1875 25.480469 C 24.1875 26.097656 23.683594 26.605469 23.0625 26.605469 L 8.871094 26.605469 C 8.253906 26.605469 7.746094 26.097656 7.746094 25.480469 L 7.746094 12.097656 C 7.746094 12.082031 7.746094 12.066406 7.75 12.050781 L 13.390625 12.050781 C 13.988281 12.050781 14.46875 11.570312 14.46875 10.972656 L 14.46875 5.332031 C 14.484375 5.332031 14.5 5.328125 14.515625 5.328125 L 23.0625 5.328125 C 23.683594 5.328125 24.1875 5.835938 24.1875 6.453125 Z M 24.1875 25.480469 "/>
</g>
</svg>
