<?xml version="1.0" encoding="UTF-8"?>
<svg xmlns="http://www.w3.org/2000/svg" xmlns:xlink="http://www.w3.org/1999/xlink" width="32pt" height="32pt" viewBox="0 0 32 32" version="1.1">
<g id="surface1">
<path style=" stroke:none;fill-rule:nonzero;fill:rgb(0%,0%,0%);fill-opacity:1;" d="M 30.875 13.277344 C 30.371094 12.621094 29.621094 12.210938 28.777344 12.128906 L 28.777344 10.707031 C 28.777344 8.898438 27.304688 7.425781 25.496094 7.425781 L 16.582031 7.425781 L 16.582031 6.863281 C 16.582031 5.054688 15.109375 3.582031 13.300781 3.582031 L 6.472656 3.582031 C 4.660156 3.582031 3.191406 5.054688 3.191406 6.863281 L 3.191406 24.171875 C 3.191406 25.347656 3.8125 26.378906 4.742188 26.957031 C 5.230469 27.277344 5.816406 27.453125 6.4375 27.453125 L 25.496094 27.453125 C 25.96875 27.453125 26.414062 27.351562 26.820312 27.171875 C 27.113281 27.050781 27.394531 26.886719 27.65625 26.6875 C 28.296875 26.199219 28.761719 25.515625 28.964844 24.773438 L 31.367188 15.917969 C 31.621094 14.980469 31.441406 14.019531 30.875 13.277344 Z M 6.472656 5.738281 L 13.300781 5.738281 C 13.917969 5.738281 14.425781 6.242188 14.425781 6.863281 L 14.425781 8.457031 C 14.425781 9.074219 14.929688 9.582031 15.550781 9.582031 L 25.496094 9.582031 C 26.117188 9.582031 26.621094 10.085938 26.621094 10.707031 L 26.621094 12.113281 L 9.429688 12.113281 C 8.660156 12.113281 7.878906 12.382812 7.238281 12.875 C 6.59375 13.367188 6.128906 14.046875 5.929688 14.789062 L 5.347656 16.9375 L 5.347656 6.863281 C 5.347656 6.242188 5.851562 5.738281 6.472656 5.738281 Z M 29.285156 15.355469 L 26.882812 24.210938 C 26.722656 24.808594 26.082031 25.296875 25.464844 25.296875 L 6.4375 25.296875 C 5.820312 25.296875 5.445312 24.808594 5.609375 24.210938 L 8.007812 15.355469 C 8.171875 14.757812 8.808594 14.269531 9.429688 14.269531 L 28.453125 14.269531 C 29.074219 14.269531 29.449219 14.757812 29.285156 15.355469 Z M 29.285156 15.355469 "/>
</g>
</svg>
