<?xml version="1.0" encoding="UTF-8"?>
<svg xmlns="http://www.w3.org/2000/svg" xmlns:xlink="http://www.w3.org/1999/xlink" width="32pt" height="32pt" viewBox="0 0 32 32" version="1.1">
<g id="surface1">
<path style=" stroke:none;fill-rule:nonzero;fill:rgb(0%,0%,0%);fill-opacity:1;" d="M 25.527344 7.425781 L 25.5 7.425781 C 25.496094 7.425781 25.496094 7.425781 25.496094 7.425781 L 16.613281 7.425781 L 16.613281 6.863281 C 16.613281 5.054688 15.140625 3.582031 13.332031 3.582031 L 6.503906 3.582031 C 4.695312 3.582031 3.222656 5.054688 3.222656 6.863281 L 3.222656 10.246094 C 3.199219 10.398438 3.191406 10.550781 3.191406 10.707031 L 3.191406 24.171875 C 3.191406 25.980469 4.660156 27.453125 6.472656 27.453125 L 25.527344 27.453125 C 27.339844 27.453125 28.808594 25.980469 28.808594 24.171875 L 28.808594 10.707031 C 28.808594 8.898438 27.339844 7.425781 25.527344 7.425781 Z M 6.503906 5.738281 L 13.332031 5.738281 C 13.949219 5.738281 14.457031 6.242188 14.457031 6.863281 L 14.457031 7.425781 L 6.472656 7.425781 C 6.089844 7.425781 5.71875 7.492188 5.378906 7.613281 L 5.378906 6.863281 C 5.378906 6.242188 5.882812 5.738281 6.503906 5.738281 Z M 6.503906 25.296875 C 5.882812 25.296875 5.378906 24.789062 5.378906 24.171875 L 5.378906 10.441406 C 5.5 9.949219 5.945312 9.582031 6.472656 9.582031 L 25.496094 9.582031 C 26.117188 9.582031 26.621094 10.085938 26.621094 10.707031 L 26.621094 24.171875 C 26.621094 24.789062 26.117188 25.296875 25.496094 25.296875 Z M 6.503906 25.296875 "/>
</g>
</svg>
