<?xml version="1.0" encoding="UTF-8"?>
<svg xmlns="http://www.w3.org/2000/svg" xmlns:xlink="http://www.w3.org/1999/xlink" width="32pt" height="32pt" viewBox="0 0 32 32" version="1.1">
<g id="surface1">
<path style=" stroke:none;fill-rule:nonzero;fill:rgb(0%,0%,0%);fill-opacity:1;" d="M 28.527344 14.617188 C 28.378906 14.246094 28.140625 13.898438 27.828125 13.582031 L 18.320312 4.101562 C 17.699219 3.484375 16.875 3.144531 16 3.144531 C 15.125 3.144531 14.300781 3.484375 13.679688 4.101562 L 4.171875 13.582031 C 3.859375 13.898438 3.621094 14.246094 3.472656 14.617188 C 3.226562 15.234375 3.226562 15.902344 3.472656 16.496094 C 3.71875 17.089844 4.1875 17.5625 4.800781 17.824219 C 5.167969 17.980469 5.578125 18.0625 6.023438 18.0625 L 6.273438 18.0625 L 6.273438 25.535156 C 6.273438 27.34375 7.746094 28.816406 9.554688 28.816406 L 22.445312 28.816406 C 24.253906 28.816406 25.726562 27.34375 25.726562 25.535156 L 25.726562 18.0625 L 25.976562 18.0625 C 26.421875 18.0625 26.832031 17.980469 27.199219 17.824219 C 27.8125 17.5625 28.28125 17.089844 28.527344 16.496094 C 28.773438 15.902344 28.773438 15.234375 28.527344 14.617188 Z M 18.0625 26.660156 L 13.9375 26.660156 L 13.9375 19.292969 C 13.9375 19.269531 13.960938 19.246094 13.984375 19.246094 L 18.015625 19.246094 C 18.039062 19.246094 18.0625 19.269531 18.0625 19.292969 Z M 22.445312 26.660156 L 20.21875 26.660156 L 20.21875 19.292969 C 20.21875 18.078125 19.230469 17.089844 18.015625 17.089844 L 13.984375 17.089844 C 12.769531 17.089844 11.78125 18.078125 11.78125 19.292969 L 11.78125 26.660156 L 9.554688 26.660156 C 8.933594 26.660156 8.429688 26.152344 8.429688 25.535156 L 8.429688 17.851562 L 16 9.972656 C 16 9.96875 16 9.96875 16 9.96875 C 16 9.96875 16 9.96875 16 9.972656 L 23.570312 17.851562 L 23.570312 25.535156 C 23.570312 26.152344 23.066406 26.660156 22.445312 26.660156 Z M 25.976562 15.90625 L 24.695312 15.90625 C 24.695312 15.90625 24.691406 15.90625 24.691406 15.90625 L 17.558594 8.476562 C 17.144531 8.046875 16.589844 7.8125 16 7.8125 C 15.410156 7.8125 14.855469 8.046875 14.441406 8.476562 L 7.308594 15.90625 C 7.308594 15.90625 7.304688 15.90625 7.304688 15.90625 L 6.023438 15.90625 C 5.40625 15.90625 5.257812 15.546875 5.695312 15.109375 L 15.203125 5.628906 C 15.421875 5.410156 15.710938 5.300781 16 5.300781 C 16.289062 5.300781 16.578125 5.410156 16.796875 5.628906 L 26.304688 15.109375 C 26.742188 15.546875 26.59375 15.90625 25.976562 15.90625 Z M 25.976562 15.90625 "/>
</g>
</svg>
