<?xml version="1.0" encoding="UTF-8"?>
<svg xmlns="http://www.w3.org/2000/svg" xmlns:xlink="http://www.w3.org/1999/xlink" width="32pt" height="32pt" viewBox="0 0 32 32" version="1.1">
<g id="surface1">
<path style=" stroke:none;fill-rule:nonzero;fill:rgb(0%,0%,0%);fill-opacity:1;" d="M 27.734375 7.921875 L 4.265625 7.921875 C 3.671875 7.921875 3.1875 7.4375 3.1875 6.84375 C 3.1875 6.246094 3.671875 5.765625 4.265625 5.765625 L 27.734375 5.765625 C 28.328125 5.765625 28.8125 6.246094 28.8125 6.84375 C 28.8125 7.4375 28.328125 7.921875 27.734375 7.921875 Z M 28.8125 15.992188 C 28.8125 15.394531 28.328125 14.914062 27.734375 14.914062 L 4.265625 14.914062 C 3.671875 14.914062 3.1875 15.394531 3.1875 15.992188 C 3.1875 16.585938 3.671875 17.070312 4.265625 17.070312 L 27.734375 17.070312 C 28.328125 17.070312 28.8125 16.585938 28.8125 15.992188 Z M 28.8125 25.078125 C 28.8125 24.480469 28.328125 24 27.734375 24 L 4.265625 24 C 3.671875 24 3.1875 24.480469 3.1875 25.078125 C 3.1875 25.671875 3.671875 26.15625 4.265625 26.15625 L 27.734375 26.15625 C 28.328125 26.15625 28.8125 25.671875 28.8125 25.078125 Z M 28.8125 25.078125 "/>
</g>
</svg>
