<?xml version="1.0" encoding="UTF-8"?>
<svg xmlns="http://www.w3.org/2000/svg" xmlns:xlink="http://www.w3.org/1999/xlink" width="32pt" height="32pt" viewBox="0 0 32 32" version="1.1">
<g id="surface1">
<path style=" stroke:none;fill-rule:nonzero;fill:rgb(0%,0%,0%);fill-opacity:1;" d="M 8.476562 24.601562 C 8.203125 24.601562 7.925781 24.496094 7.714844 24.285156 C 7.292969 23.863281 7.292969 23.179688 7.714844 22.761719 L 14.476562 16 L 7.714844 9.238281 C 7.292969 8.820312 7.292969 8.136719 7.714844 7.714844 C 8.136719 7.292969 8.820312 7.292969 9.238281 7.714844 L 16 14.476562 L 22.761719 7.714844 C 23.179688 7.292969 23.863281 7.292969 24.285156 7.714844 C 24.707031 8.136719 24.707031 8.820312 24.285156 9.238281 L 17.523438 16 L 24.285156 22.761719 C 24.707031 23.179688 24.707031 23.863281 24.285156 24.285156 C 23.863281 24.707031 23.179688 24.707031 22.761719 24.285156 L 16 17.523438 L 9.238281 24.285156 C 9.03125 24.496094 8.753906 24.601562 8.476562 24.601562 Z M 8.476562 24.601562 "/>
</g>
</svg>
