<?xml version="1.0" encoding="UTF-8"?>
<svg xmlns="http://www.w3.org/2000/svg" xmlns:xlink="http://www.w3.org/1999/xlink" width="32pt" height="32pt" viewBox="0 0 32 32" version="1.1">
<g id="surface1">
<path style=" stroke:none;fill-rule:nonzero;fill:rgb(0%,0%,0%);fill-opacity:1;" d="M 22.847656 8.027344 C 23.464844 8.027344 23.972656 8.535156 23.972656 9.152344 L 23.972656 22.847656 C 23.972656 23.464844 23.464844 23.972656 22.847656 23.972656 L 9.152344 23.972656 C 8.535156 23.972656 8.027344 23.464844 8.027344 22.847656 L 8.027344 9.152344 C 8.027344 8.535156 8.535156 8.027344 9.152344 8.027344 L 22.847656 8.027344 M 22.847656 5.871094 L 9.152344 5.871094 C 7.34375 5.871094 5.871094 7.34375 5.871094 9.152344 L 5.871094 22.847656 C 5.871094 24.65625 7.34375 26.128906 9.152344 26.128906 L 22.847656 26.128906 C 24.65625 26.128906 26.128906 24.65625 26.128906 22.847656 L 26.128906 9.152344 C 26.128906 7.34375 24.65625 5.871094 22.847656 5.871094 Z M 22.847656 5.871094 "/>
</g>
</svg>
