<?xml version="1.0" encoding="UTF-8"?>
<svg xmlns="http://www.w3.org/2000/svg" xmlns:xlink="http://www.w3.org/1999/xlink" width="32pt" height="32pt" viewBox="0 0 32 32" version="1.1">
<g id="surface1">
<path style=" stroke:none;fill-rule:nonzero;fill:rgb(0%,0%,0%);fill-opacity:1;" d="M 27.652344 23.144531 C 27.371094 23.144531 27.085938 23.035156 26.875 22.8125 L 16 11.492188 C 16 11.492188 16 11.488281 16 11.488281 C 16 11.488281 16 11.492188 16 11.492188 L 5.125 22.8125 C 4.710938 23.242188 4.03125 23.257812 3.601562 22.84375 C 3.171875 22.433594 3.15625 21.75 3.570312 21.320312 L 14.441406 9.996094 C 14.855469 9.566406 15.410156 9.332031 16 9.332031 C 16.589844 9.332031 17.144531 9.566406 17.558594 9.996094 L 28.429688 21.320312 C 28.84375 21.75 28.828125 22.433594 28.398438 22.84375 C 28.191406 23.046875 27.921875 23.144531 27.652344 23.144531 Z M 27.652344 23.144531 "/>
</g>
</svg>
