<?xml version="1.0" encoding="iso-8859-1"?>
<!-- Generator: Adobe Illustrator 16.0.3, SVG Export Plug-In . SVG Version: 6.00 Build 0)  -->
<!DOCTYPE svg PUBLIC "-//W3C//DTD SVG 1.1//EN" "http://www.w3.org/Graphics/SVG/1.1/DTD/svg11.dtd">
<svg version="1.1" id="icons" xmlns="http://www.w3.org/2000/svg" xmlns:xlink="http://www.w3.org/1999/xlink" x="0px" y="0px"
	 width="1024px" height="1024px" viewBox="0 0 1024 1024" style="enable-background:new 0 0 1024 1024;" xml:space="preserve">
<path id="checked" d="M1003.183,156.433c-13.475-13.474-35.318-13.474-48.791,0L834.725,276.101
	c-8.075-49.928-51.475-88.178-103.646-88.178H292.922c-57.897,0-105,47.103-105,105v438.154c0,57.897,47.103,105,105,105h438.156
	c57.897,0,105-47.103,105-105V372.329l167.104-167.105C1016.655,191.75,1016.655,169.906,1003.183,156.433z M767.078,731.077
	c0,19.8-16.2,36-36,36H292.922c-19.8,0-36-16.2-36-36V292.923c0-19.8,16.2-36,36-36h438.156c19.8,0,36,16.2,36,36v50.824
	L523.33,587.496L380.015,444.179c-13.474-13.473-35.318-13.474-48.791,0c-13.473,13.473-13.473,35.317,0,48.791l167.711,167.712
	c6.47,6.471,15.245,10.105,24.396,10.105c9.149,0,17.925-3.635,24.396-10.104l219.353-219.354V731.077z"/>
</svg>
