<?xml version="1.0" encoding="iso-8859-1"?>
<!-- Generator: Adobe Illustrator 16.0.3, SVG Export Plug-In . SVG Version: 6.00 Build 0)  -->
<!DOCTYPE svg PUBLIC "-//W3C//DTD SVG 1.1//EN" "http://www.w3.org/Graphics/SVG/1.1/DTD/svg11.dtd">
<svg version="1.1" id="icons" xmlns="http://www.w3.org/2000/svg" xmlns:xlink="http://www.w3.org/1999/xlink" x="0px" y="0px"
	 width="1024px" height="1024px" viewBox="0 0 1024 1024" style="enable-background:new 0 0 1024 1024;" xml:space="preserve">
<path id="file" d="M738.02,101.555h-273.49c-38.025,0-83.36,18.779-110.247,45.667L224.586,276.918
	c-26.887,26.888-45.665,72.223-45.665,110.246v428.222c0,57.897,47.103,105,105,105H738.02c57.897,0,105-47.103,105-105V206.555
	C843.02,148.657,795.917,101.555,738.02,101.555z M394.03,205.055v111.609H282.421L394.03,205.055z M774.02,815.386
	c0,19.8-16.2,36-36,36H283.921c-19.8,0-36-16.2-36-36V387.164c0-0.494,0.012-0.997,0.026-1.5H428.53c19.054,0,34.5-15.446,34.5-34.5
	V170.581c0.503-0.014,1.005-0.026,1.5-0.026h273.49c19.8,0,36,16.2,36,36V815.386z"/>
</svg>
