<?xml version="1.0" encoding="iso-8859-1"?>
<!-- Generator: Adobe Illustrator 16.0.3, SVG Export Plug-In . SVG Version: 6.00 Build 0)  -->
<!DOCTYPE svg PUBLIC "-//W3C//DTD SVG 1.1//EN" "http://www.w3.org/Graphics/SVG/1.1/DTD/svg11.dtd">
<svg version="1.1" id="icons" xmlns="http://www.w3.org/2000/svg" xmlns:xlink="http://www.w3.org/1999/xlink" x="0px" y="0px"
	 width="1024px" height="1024px" viewBox="0 0 1024 1024" style="enable-background:new 0 0 1024 1024;" xml:space="preserve">
<path id="folder_open" d="M988.016,424.879c-16.092-21.037-40.152-34.1-67.115-36.768v-45.509c0-57.897-47.102-105-105-105
	l-285.293,0v-17.994c0-57.897-47.103-105-105-105H207.069c-57.897,0-105,47.103-105,105v553.849
	c0,37.621,19.892,70.678,49.706,89.222c15.653,10.209,34.369,15.778,54.264,15.778h1.03h607.802h1.029
	c15.047,0,29.361-3.188,42.313-8.913c9.428-3.945,18.457-9.128,26.773-15.489c20.57-15.735,35.451-37.499,41.9-61.281l76.84-283.376
	C1011.867,479.38,1006.141,448.574,988.016,424.879z M207.069,183.607h218.538c19.8,0,36,16.2,36,36v50.994c0,19.8,16.2,36,36,36
	l318.293,0c19.801,0,36,16.2,36,36v44.992H301.722c-24.643,0-49.544,8.666-70.115,24.402
	c-20.572,15.736-35.453,37.501-41.902,61.286l-18.636,68.727V219.607C171.069,199.807,187.27,183.607,207.069,183.607z
	 M937.131,491.338l-76.838,283.373c-5.184,19.109-25.623,34.745-45.422,34.745H206.04c-19.8,0-31.76-15.636-26.579-34.745
	l76.84-283.373c5.182-19.11,25.622-34.745,45.421-34.745h608.831C930.354,456.593,942.314,472.229,937.131,491.338z"/>
</svg>
