<?xml version="1.0" encoding="iso-8859-1"?>
<!-- Generator: Adobe Illustrator 16.0.3, SVG Export Plug-In . SVG Version: 6.00 Build 0)  -->
<!DOCTYPE svg PUBLIC "-//W3C//DTD SVG 1.1//EN" "http://www.w3.org/Graphics/SVG/1.1/DTD/svg11.dtd">
<svg version="1.1" id="icons" xmlns="http://www.w3.org/2000/svg" xmlns:xlink="http://www.w3.org/1999/xlink" x="0px" y="0px"
	 width="1024px" height="1024px" viewBox="0 0 1024 1024" style="enable-background:new 0 0 1024 1024;" xml:space="preserve">
<path id="home" d="M912.828,467.706c-4.76-11.864-12.287-22.981-22.375-33.041L586.216,131.26
	c-19.807-19.752-46.163-30.629-74.215-30.629s-54.408,10.877-74.214,30.629L133.546,434.667
	c-10.088,10.06-17.615,21.176-22.374,33.041c-7.925,19.757-7.959,41.113-0.097,60.132c7.863,19.019,22.967,34.116,42.529,42.51
	c11.748,5.04,24.928,7.597,39.174,7.597h7.946v239.179c0,57.897,47.103,105,105,105h412.553c57.897,0,105-47.103,105-105V577.945
	h7.944c14.246,0,27.426-2.557,39.174-7.597c19.563-8.394,34.667-23.491,42.529-42.511
	C920.787,508.819,920.753,487.463,912.828,467.706z M577.952,853.124H446.05V617.329c0-0.743,0.757-1.5,1.5-1.5h128.902
	c0.743,0,1.5,0.757,1.5,1.5V853.124z M718.277,853.124h-71.325V617.329c0-38.874-31.626-70.5-70.5-70.5H447.55
	c-38.874,0-70.5,31.626-70.5,70.5v235.795h-71.325c-19.8,0-36-16.2-36-36V571.286l242.224-252.223
	c0.019-0.02,0.037-0.037,0.052-0.052c0.016,0.015,0.033,0.032,0.053,0.052l242.224,252.226v245.835
	C754.277,836.924,738.077,853.124,718.277,853.124z M831.222,508.945h-40.944c-0.067,0-0.134,0.005-0.201,0.005L561.819,271.27
	c-13.199-13.745-30.892-21.313-49.818-21.313s-36.62,7.569-49.819,21.313L233.925,508.95c-0.067,0-0.133-0.005-0.2-0.005h-40.946
	c-19.8,0-24.529-11.439-10.509-25.421L486.51,180.117c7.01-6.991,16.25-10.486,25.491-10.486s18.481,3.496,25.491,10.486
	L841.73,483.524C855.751,497.505,851.021,508.945,831.222,508.945z"/>
</svg>
