<?xml version="1.0" encoding="iso-8859-1"?>
<!-- Generator: Adobe Illustrator 16.0.3, SVG Export Plug-In . SVG Version: 6.00 Build 0)  -->
<!DOCTYPE svg PUBLIC "-//W3C//DTD SVG 1.1//EN" "http://www.w3.org/Graphics/SVG/1.1/DTD/svg11.dtd">
<svg version="1.1" id="icons" xmlns="http://www.w3.org/2000/svg" xmlns:xlink="http://www.w3.org/1999/xlink" x="0px" y="0px"
	 width="1024px" height="1024px" viewBox="0 0 1024 1024" style="enable-background:new 0 0 1024 1024;" xml:space="preserve">
<path id="menu" d="M887.474,253.477H136.526c-19.054,0-34.5-15.446-34.5-34.5s15.446-34.5,34.5-34.5h750.947
	c19.054,0,34.5,15.446,34.5,34.5S906.527,253.477,887.474,253.477z M921.974,511.713c0-19.054-15.446-34.5-34.5-34.5H136.526
	c-19.054,0-34.5,15.446-34.5,34.5c0,19.054,15.446,34.5,34.5,34.5h750.947C906.527,546.213,921.974,530.768,921.974,511.713z
	 M921.974,802.447c0-19.054-15.446-34.5-34.5-34.5H136.526c-19.054,0-34.5,15.446-34.5,34.5s15.446,34.5,34.5,34.5h750.947
	C906.527,836.947,921.974,821.501,921.974,802.447z"/>
</svg>
