<?xml version="1.0" encoding="iso-8859-1"?>
<!-- Generator: Adobe Illustrator 16.0.3, SVG Export Plug-In . SVG Version: 6.00 Build 0)  -->
<!DOCTYPE svg PUBLIC "-//W3C//DTD SVG 1.1//EN" "http://www.w3.org/Graphics/SVG/1.1/DTD/svg11.dtd">
<svg version="1.1" id="icons" xmlns="http://www.w3.org/2000/svg" xmlns:xlink="http://www.w3.org/1999/xlink" x="0px" y="0px"
	 width="1024px" height="1024px" viewBox="0 0 1024 1024" style="enable-background:new 0 0 1024 1024;" xml:space="preserve">
<path id="remove" d="M271.29,787.211c-8.83,0-17.659-3.368-24.395-10.104c-13.473-13.474-13.473-35.317,0-48.791L463.21,512
	L246.895,295.685c-13.473-13.473-13.473-35.317,0-48.79c13.473-13.474,35.317-13.474,48.79,0L512,463.209l216.314-216.314
	c13.475-13.474,35.316-13.474,48.791,0c13.473,13.473,13.473,35.317,0,48.79L560.79,512l216.316,216.315
	c13.473,13.474,13.473,35.317,0,48.791c-13.475,13.473-35.316,13.473-48.791,0L512,560.79L295.685,777.106
	C288.948,783.843,280.119,787.211,271.29,787.211z"/>
</svg>
