<?xml version="1.0" encoding="iso-8859-1"?>
<!-- Generator: Adobe Illustrator 16.0.3, SVG Export Plug-In . SVG Version: 6.00 Build 0)  -->
<!DOCTYPE svg PUBLIC "-//W3C//DTD SVG 1.1//EN" "http://www.w3.org/Graphics/SVG/1.1/DTD/svg11.dtd">
<svg version="1.1" id="icons" xmlns="http://www.w3.org/2000/svg" xmlns:xlink="http://www.w3.org/1999/xlink" x="0px" y="0px"
	 width="1024px" height="1024px" viewBox="0 0 1024 1024" style="enable-background:new 0 0 1024 1024;" xml:space="preserve">
<path id="unchecked_1_" d="M731.078,256.923c19.8,0,36,16.2,36,36v438.154c0,19.8-16.2,36-36,36H292.922c-19.8,0-36-16.2-36-36
	V292.923c0-19.8,16.2-36,36-36H731.078 M731.078,187.923H292.922c-57.897,0-105,47.103-105,105v438.154c0,57.897,47.103,105,105,105
	h438.156c57.897,0,105-47.103,105-105V292.923C836.078,235.026,788.976,187.923,731.078,187.923L731.078,187.923z"/>
</svg>
