<?xml version="1.0" encoding="iso-8859-1"?>
<!-- Generator: Adobe Illustrator 16.0.3, SVG Export Plug-In . SVG Version: 6.00 Build 0)  -->
<!DOCTYPE svg PUBLIC "-//W3C//DTD SVG 1.1//EN" "http://www.w3.org/Graphics/SVG/1.1/DTD/svg11.dtd">
<svg version="1.1" id="icons" xmlns="http://www.w3.org/2000/svg" xmlns:xlink="http://www.w3.org/1999/xlink" x="0px" y="0px"
	 width="1024px" height="1024px" viewBox="0 0 1024 1024" style="enable-background:new 0 0 1024 1024;" xml:space="preserve">
<path id="up" d="M884.905,740.648c-9.064,0-18.113-3.549-24.888-10.604L512.053,367.714c-0.02-0.02-0.037-0.038-0.052-0.052
	c-0.016,0.015-0.033,0.032-0.053,0.052L163.982,730.045c-13.198,13.743-35.038,14.185-48.78,0.987
	c-13.743-13.198-14.185-35.038-0.986-48.78L462.182,319.92c13.199-13.744,30.893-21.313,49.819-21.313c0.001,0,0,0,0.001,0
	c18.927,0,36.62,7.57,49.818,21.314l347.965,362.331c13.197,13.742,12.756,35.582-0.987,48.78
	C902.109,737.455,893.5,740.648,884.905,740.648z"/>
</svg>
