<?xml version="1.0" encoding="UTF-8"?>
<svg xmlns="http://www.w3.org/2000/svg" xmlns:xlink="http://www.w3.org/1999/xlink" width="32pt" height="32pt" viewBox="0 0 32 32" version="1.1">
<g id="surface1">
<path style=" stroke:none;fill-rule:nonzero;fill:rgb(0%,0%,0%);fill-opacity:1;" d="M 27.789062 11.019531 C 27.144531 9.496094 26.222656 8.128906 25.046875 6.953125 C 23.871094 5.777344 22.503906 4.855469 20.980469 4.210938 C 19.402344 3.542969 17.726562 3.207031 16 3.207031 C 14.273438 3.207031 12.597656 3.542969 11.019531 4.210938 C 9.496094 4.855469 8.128906 5.777344 6.953125 6.953125 C 5.777344 8.128906 4.855469 9.496094 4.210938 11.019531 C 3.542969 12.597656 3.207031 14.273438 3.207031 16 C 3.207031 17.726562 3.542969 19.402344 4.210938 20.980469 C 4.855469 22.503906 5.777344 23.871094 6.953125 25.046875 C 8.128906 26.222656 9.496094 27.144531 11.019531 27.789062 C 12.597656 28.457031 14.273438 28.792969 16 28.792969 C 17.726562 28.792969 19.402344 28.457031 20.980469 27.789062 C 22.503906 27.144531 23.871094 26.222656 25.046875 25.046875 C 26.222656 23.871094 27.144531 22.503906 27.789062 20.980469 C 28.457031 19.402344 28.792969 17.726562 28.792969 16 C 28.792969 14.273438 28.457031 12.597656 27.789062 11.019531 Z M 16 26.636719 C 10.125 26.636719 5.363281 21.875 5.363281 16 C 5.363281 13.445312 6.261719 11.101562 7.765625 9.265625 L 22.734375 24.234375 C 20.898438 25.738281 18.554688 26.636719 16 26.636719 Z M 24.253906 22.707031 L 9.292969 7.746094 C 11.121094 6.253906 13.457031 5.363281 16 5.363281 C 21.875 5.363281 26.636719 10.125 26.636719 16 C 26.636719 18.542969 25.746094 20.878906 24.253906 22.707031 Z M 24.253906 22.707031 "/>
</g>
</svg>
