<?xml version="1.0" encoding="UTF-8"?>
<svg xmlns="http://www.w3.org/2000/svg" xmlns:xlink="http://www.w3.org/1999/xlink" width="32pt" height="32pt" viewBox="0 0 32 32" version="1.1">
<g id="surface1">
<path style=" stroke:none;fill-rule:nonzero;fill:rgb(0%,0%,0%);fill-opacity:1;" d="M 16 5.363281 C 21.875 5.363281 26.636719 10.125 26.636719 16 C 26.636719 21.875 21.875 26.636719 16 26.636719 C 10.125 26.636719 5.363281 21.875 5.363281 16 C 5.363281 10.125 10.125 5.363281 16 5.363281 M 16 3.207031 C 14.273438 3.207031 12.597656 3.542969 11.019531 4.210938 C 9.496094 4.855469 8.128906 5.777344 6.953125 6.953125 C 5.777344 8.128906 4.855469 9.496094 4.210938 11.019531 C 3.542969 12.597656 3.207031 14.273438 3.207031 16 C 3.207031 17.726562 3.542969 19.402344 4.210938 20.980469 C 4.855469 22.503906 5.777344 23.871094 6.953125 25.046875 C 8.128906 26.222656 9.496094 27.144531 11.019531 27.789062 C 12.597656 28.457031 14.273438 28.792969 16 28.792969 C 17.726562 28.792969 19.402344 28.457031 20.980469 27.789062 C 22.503906 27.144531 23.871094 26.222656 25.046875 25.046875 C 26.222656 23.871094 27.144531 22.503906 27.789062 20.980469 C 28.457031 19.402344 28.792969 17.726562 28.792969 16 C 28.792969 14.273438 28.457031 12.597656 27.789062 11.019531 C 27.144531 9.496094 26.222656 8.128906 25.046875 6.953125 C 23.871094 5.777344 22.503906 4.855469 20.980469 4.210938 C 19.402344 3.542969 17.726562 3.207031 16 3.207031 Z M 16 24.582031 C 15.085938 24.582031 14.339844 23.835938 14.339844 22.921875 C 14.339844 22.003906 15.085938 21.261719 16 21.261719 C 16.914062 21.261719 17.660156 22.003906 17.660156 22.921875 C 17.660156 23.835938 16.914062 24.582031 16 24.582031 Z M 17.078125 18.738281 L 17.078125 17.519531 C 17.078125 17.171875 17.164062 17.097656 17.203125 17.066406 C 17.347656 16.941406 17.675781 16.828125 17.988281 16.71875 C 19.085938 16.339844 20.917969 15.707031 20.917969 12.675781 C 20.917969 9.960938 18.710938 7.753906 16 7.753906 C 13.289062 7.753906 11.082031 9.960938 11.082031 12.675781 C 11.082031 13.269531 11.5625 13.753906 12.160156 13.753906 C 12.753906 13.753906 13.238281 13.269531 13.238281 12.675781 C 13.238281 11.152344 14.476562 9.910156 16 9.910156 C 17.523438 9.910156 18.761719 11.152344 18.761719 12.675781 C 18.761719 14.171875 18.269531 14.339844 17.289062 14.679688 C 16.800781 14.847656 16.253906 15.035156 15.792969 15.433594 C 15.214844 15.933594 14.921875 16.632812 14.921875 17.519531 L 14.921875 18.738281 C 14.921875 19.332031 15.40625 19.816406 16 19.816406 C 16.59375 19.816406 17.078125 19.332031 17.078125 18.738281 Z M 17.078125 18.738281 "/>
</g>
</svg>
