<?xml version="1.0" encoding="UTF-8"?>
<svg xmlns="http://www.w3.org/2000/svg" xmlns:xlink="http://www.w3.org/1999/xlink" width="32pt" height="32pt" viewBox="0 0 32 32" version="1.1">
<g id="surface1">
<path style=" stroke:none;fill-rule:nonzero;fill:rgb(0%,0%,0%);fill-opacity:1;" d="M 16 28.78125 C 12.589844 28.78125 9.378906 27.445312 6.96875 25.03125 C 4.554688 22.621094 3.21875 19.414062 3.21875 16 C 3.21875 12.589844 4.554688 9.382812 6.96875 6.96875 C 9.382812 4.554688 12.589844 3.25 16 3.25 C 17.234375 3.25 18.453125 3.402344 19.625 3.75 C 20.175781 3.914062 20.507812 4.480469 20.34375 5.03125 C 20.214844 5.46875 19.800781 5.78125 19.34375 5.78125 C 19.246094 5.78125 19.136719 5.769531 19.039062 5.742188 C 18.058594 5.449219 17.035156 5.3125 16 5.3125 C 10.101562 5.3125 5.3125 10.101562 5.3125 16 C 5.3125 21.898438 10.101562 26.6875 16 26.6875 C 21.898438 26.6875 26.6875 21.898438 26.6875 16 C 26.6875 15.964844 26.695312 15.929688 26.695312 15.894531 C 26.695312 15.878906 26.695312 15.859375 26.695312 15.839844 L 26.683594 14.960938 L 24.304688 16.820312 C 24.121094 16.960938 23.894531 17.039062 23.664062 17.039062 C 23.433594 17.039062 23.214844 16.964844 23.03125 16.824219 C 22.65625 16.53125 22.523438 16.027344 22.710938 15.589844 L 25.199219 9.792969 C 25.351562 9.441406 25.683594 9.199219 26.070312 9.167969 C 26.097656 9.167969 26.125 9.167969 26.152344 9.167969 C 26.507812 9.167969 26.832031 9.34375 27.023438 9.640625 C 27.269531 10.058594 27.542969 10.527344 27.582031 10.601562 C 27.894531 11.273438 28.148438 11.972656 28.339844 12.6875 C 28.628906 13.761719 28.75 14.878906 28.75 16 C 28.75 19.410156 27.445312 22.621094 25.03125 25.03125 C 22.621094 27.445312 19.410156 28.78125 16 28.78125 Z M 16 28.78125 "/>
</g>
</svg>
