<?xml version="1.0" encoding="UTF-8"?>
<svg xmlns="http://www.w3.org/2000/svg" xmlns:xlink="http://www.w3.org/1999/xlink" width="32pt" height="32pt" viewBox="0 0 32 32" version="1.1">
<g id="surface1">
<path style=" stroke:none;fill-rule:nonzero;fill:rgb(0%,0%,0%);fill-opacity:1;" d="M 5.289062 23.851562 C 5.246094 23.851562 5.203125 23.851562 5.160156 23.84375 C 4.890625 23.8125 4.289062 23.578125 3.71875 22.921875 C 2.765625 21.8125 2.28125 19.996094 2.28125 17.523438 C 2.28125 14.617188 2.847656 11.261719 3.761719 8.765625 C 4.273438 7.359375 4.90625 6.203125 5.585938 5.421875 C 6.359375 4.535156 7.210938 4.085938 8.121094 4.085938 C 8.929688 4.085938 9.65625 4.414062 10.277344 5.058594 C 10.746094 5.542969 11.152344 6.203125 11.519531 7.078125 C 12.140625 8.558594 12.550781 10.398438 12.949219 12.175781 C 13.304688 13.773438 13.640625 15.277344 14.101562 16.398438 C 14.347656 17 14.613281 17.4375 14.90625 17.742188 C 15.226562 18.074219 15.597656 18.242188 16 18.242188 C 16.402344 18.242188 16.773438 18.074219 17.09375 17.742188 C 17.386719 17.4375 17.652344 17 17.898438 16.398438 C 18.359375 15.277344 18.695312 13.773438 19.050781 12.175781 C 19.449219 10.398438 19.859375 8.558594 20.480469 7.078125 C 20.847656 6.203125 21.253906 5.542969 21.722656 5.058594 C 22.34375 4.414062 23.070312 4.085938 23.878906 4.085938 C 24.789062 4.085938 25.640625 4.535156 26.414062 5.421875 C 27.09375 6.203125 27.726562 7.359375 28.238281 8.765625 C 29.152344 11.261719 29.71875 14.617188 29.71875 17.523438 C 29.71875 19.851562 29.289062 21.601562 28.4375 22.726562 C 27.882812 23.457031 27.308594 23.714844 27.011719 23.804688 C 26.464844 23.96875 25.890625 23.660156 25.726562 23.117188 C 25.5625 22.574219 25.863281 22 26.40625 21.832031 C 26.425781 21.824219 26.589844 21.75 26.792969 21.480469 C 27.113281 21.054688 27.65625 19.972656 27.65625 17.523438 C 27.65625 14.84375 27.136719 11.757812 26.304688 9.472656 C 25.878906 8.320312 25.367188 7.359375 24.855469 6.773438 C 24.496094 6.359375 24.164062 6.148438 23.878906 6.148438 C 23.367188 6.148438 22.863281 6.730469 22.382812 7.878906 C 21.832031 9.1875 21.441406 10.933594 21.066406 12.625 C 20.691406 14.308594 20.335938 15.902344 19.804688 17.1875 C 19.457031 18.03125 19.054688 18.679688 18.578125 19.175781 C 17.859375 19.914062 16.96875 20.304688 16 20.304688 C 15.03125 20.304688 14.136719 19.914062 13.421875 19.175781 C 12.945312 18.679688 12.542969 18.03125 12.195312 17.1875 C 11.664062 15.902344 11.308594 14.308594 10.933594 12.625 C 10.558594 10.933594 10.167969 9.1875 9.617188 7.878906 C 9.136719 6.730469 8.632812 6.148438 8.121094 6.148438 C 7.835938 6.148438 7.503906 6.359375 7.140625 6.773438 C 6.632812 7.359375 6.121094 8.320312 5.695312 9.472656 C 4.863281 11.757812 4.34375 14.84375 4.34375 17.523438 C 4.34375 20.097656 4.929688 21.167969 5.28125 21.574219 C 5.4375 21.753906 5.570312 21.824219 5.601562 21.839844 C 6.066406 21.988281 6.375 22.449219 6.3125 22.953125 C 6.246094 23.472656 5.800781 23.851562 5.289062 23.851562 Z M 8.015625 23.054688 C 8.015625 23.609375 8.464844 24.054688 9.015625 24.054688 L 11.054688 24.054688 C 11.609375 24.054688 12.054688 23.609375 12.054688 23.054688 C 12.054688 22.503906 11.609375 22.054688 11.054688 22.054688 L 9.015625 22.054688 C 8.464844 22.054688 8.015625 22.503906 8.015625 23.054688 Z M 19.976562 23.054688 C 19.976562 23.609375 20.421875 24.054688 20.976562 24.054688 L 23.015625 24.054688 C 23.566406 24.054688 24.015625 23.609375 24.015625 23.054688 C 24.015625 22.503906 23.566406 22.054688 23.015625 22.054688 L 20.976562 22.054688 C 20.421875 22.054688 19.976562 22.503906 19.976562 23.054688 Z M 14.015625 28.976562 C 14.015625 29.527344 14.464844 29.976562 15.015625 29.976562 L 17.054688 29.976562 C 17.609375 29.976562 18.054688 29.527344 18.054688 28.976562 C 18.054688 28.421875 17.609375 27.976562 17.054688 27.976562 L 15.015625 27.976562 C 14.464844 27.976562 14.015625 28.421875 14.015625 28.976562 Z M 14.015625 28.976562 "/>
</g>
</svg>
