<?xml version="1.0" encoding="UTF-8"?>
<svg xmlns="http://www.w3.org/2000/svg" xmlns:xlink="http://www.w3.org/1999/xlink" width="32pt" height="32pt" viewBox="0 0 32 32" version="1.1">
<g id="surface1">
<path style=" stroke:none;fill-rule:nonzero;fill:rgb(0%,0%,0%);fill-opacity:1;" d="M 28.472656 19.351562 C 28.890625 19.769531 28.890625 20.453125 28.472656 20.875 C 28.261719 21.085938 27.984375 21.191406 27.710938 21.191406 C 27.433594 21.191406 27.15625 21.085938 26.945312 20.875 L 23.597656 17.523438 L 20.246094 20.875 C 20.035156 21.085938 19.761719 21.191406 19.484375 21.191406 C 19.207031 21.191406 18.933594 21.085938 18.722656 20.875 C 18.300781 20.453125 18.300781 19.769531 18.722656 19.351562 L 22.070312 16 L 18.722656 12.648438 C 18.300781 12.230469 18.300781 11.546875 18.722656 11.125 C 19.144531 10.703125 19.824219 10.703125 20.246094 11.125 L 23.597656 14.476562 L 26.945312 11.125 C 27.367188 10.703125 28.050781 10.703125 28.472656 11.125 C 28.890625 11.546875 28.890625 12.230469 28.472656 12.648438 L 25.121094 16 Z M 16.84375 4.988281 C 17.085938 5.414062 17.210938 5.914062 17.210938 6.472656 L 17.210938 25.480469 C 17.210938 26.039062 17.085938 26.539062 16.84375 26.96875 C 16.644531 27.320312 16.363281 27.617188 16.03125 27.828125 C 15.648438 28.074219 15.203125 28.203125 14.742188 28.203125 C 14.21875 28.203125 13.441406 28.035156 12.703125 27.230469 L 8.808594 22.976562 C 8.734375 22.917969 8.558594 22.839844 8.464844 22.824219 L 6.453125 22.824219 C 4.640625 22.824219 3.171875 21.351562 3.171875 19.542969 L 3.171875 12.390625 C 3.171875 10.582031 4.640625 9.109375 6.453125 9.109375 L 8.480469 9.109375 C 8.574219 9.09375 8.75 9.015625 8.828125 8.957031 L 12.703125 4.722656 C 13.441406 3.917969 14.21875 3.75 14.742188 3.75 C 15.203125 3.75 15.648438 3.878906 16.03125 4.125 C 16.363281 4.339844 16.644531 4.636719 16.84375 4.988281 Z M 6.453125 20.667969 L 7.117188 20.667969 L 7.117188 11.265625 L 6.453125 11.265625 C 5.832031 11.265625 5.328125 11.773438 5.328125 12.390625 L 5.328125 19.542969 C 5.328125 20.160156 5.832031 20.667969 6.453125 20.667969 Z M 15.054688 6.472656 C 15.054688 6.105469 14.933594 5.90625 14.742188 5.90625 C 14.617188 5.90625 14.460938 5.996094 14.296875 6.179688 L 10.398438 10.4375 C 10.136719 10.722656 9.707031 10.976562 9.273438 11.125 L 9.273438 20.816406 C 9.703125 20.96875 10.121094 21.21875 10.378906 21.496094 L 14.296875 25.777344 C 14.460938 25.960938 14.617188 26.046875 14.742188 26.046875 C 14.933594 26.046875 15.054688 25.851562 15.054688 25.480469 Z M 15.054688 6.472656 "/>
</g>
</svg>
