<?xml version="1.0" encoding="UTF-8"?>
<svg xmlns="http://www.w3.org/2000/svg" xmlns:xlink="http://www.w3.org/1999/xlink" width="32pt" height="32pt" viewBox="0 0 32 32" version="1.1">
<g id="surface1">
<path style=" stroke:none;fill-rule:nonzero;fill:rgb(0%,0%,0%);fill-opacity:1;" d="M 27.273438 4.320312 C 27.273438 3.984375 27.113281 3.667969 26.84375 3.460938 C 26.578125 3.257812 26.226562 3.191406 25.902344 3.285156 L 11.96875 7.207031 C 11.503906 7.339844 11.183594 7.761719 11.183594 8.246094 L 11.183594 21.621094 C 10.464844 21.242188 9.621094 21.039062 8.753906 21.039062 C 7.671875 21.039062 6.628906 21.355469 5.816406 21.933594 C 4.796875 22.65625 4.210938 23.734375 4.210938 24.890625 C 4.210938 26.042969 4.796875 27.121094 5.816406 27.847656 C 6.628906 28.421875 7.671875 28.738281 8.753906 28.738281 C 9.835938 28.738281 10.878906 28.421875 11.691406 27.847656 C 12.710938 27.121094 13.34375 26.042969 13.34375 24.890625 C 13.34375 24.824219 13.339844 24.484375 13.339844 24.371094 L 13.339844 13.84375 L 25.117188 10.527344 L 25.117188 17.796875 C 24.398438 17.417969 23.554688 17.210938 22.6875 17.210938 C 21.605469 17.210938 20.5625 17.527344 19.75 18.105469 C 18.730469 18.832031 18.144531 19.910156 18.144531 21.0625 C 18.144531 22.214844 18.730469 23.292969 19.75 24.019531 C 20.5625 24.59375 21.605469 24.914062 22.6875 24.914062 C 23.769531 24.914062 24.8125 24.59375 25.625 24.019531 C 26.644531 23.292969 27.277344 22.214844 27.277344 21.0625 C 27.277344 20.96875 27.273438 20.566406 27.273438 20.449219 Z M 8.753906 26.585938 C 7.433594 26.585938 6.367188 25.824219 6.367188 24.890625 C 6.367188 23.953125 7.433594 23.195312 8.753906 23.195312 C 10.070312 23.195312 11.140625 23.953125 11.140625 24.890625 C 11.140625 25.824219 10.070312 26.585938 8.753906 26.585938 Z M 13.339844 11.601562 L 13.339844 9.0625 L 25.117188 5.746094 L 25.117188 8.285156 Z M 22.6875 22.757812 C 21.367188 22.757812 20.300781 22 20.300781 21.0625 C 20.300781 20.125 21.367188 19.367188 22.6875 19.367188 C 24.003906 19.367188 25.074219 20.125 25.074219 21.0625 C 25.074219 22 24.003906 22.757812 22.6875 22.757812 Z M 22.6875 22.757812 "/>
</g>
</svg>
