<?xml version="1.0" encoding="UTF-8"?>
<svg xmlns="http://www.w3.org/2000/svg" xmlns:xlink="http://www.w3.org/1999/xlink" width="32pt" height="32pt" viewBox="0 0 32 32" version="1.1">
<g id="surface1">
<path style=" stroke:none;fill-rule:nonzero;fill:rgb(0%,0%,0%);fill-opacity:1;" d="M 18.136719 28.648438 L 13.863281 28.648438 C 13.265625 28.648438 12.785156 28.164062 12.785156 27.570312 L 12.785156 25.199219 C 12.4375 25.078125 12.101562 24.9375 11.769531 24.777344 L 10.09375 26.457031 C 9.671875 26.875 8.988281 26.875 8.566406 26.457031 L 5.542969 23.433594 C 5.34375 23.230469 5.226562 22.957031 5.226562 22.667969 C 5.226562 22.382812 5.34375 22.109375 5.542969 21.90625 L 7.222656 20.230469 C 7.0625 19.898438 6.921875 19.5625 6.800781 19.214844 L 4.429688 19.214844 C 3.835938 19.214844 3.351562 18.734375 3.351562 18.136719 L 3.351562 13.863281 C 3.351562 13.265625 3.835938 12.785156 4.429688 12.785156 L 6.800781 12.785156 C 6.921875 12.4375 7.0625 12.101562 7.222656 11.769531 L 5.542969 10.09375 C 5.34375 9.890625 5.226562 9.617188 5.226562 9.332031 C 5.226562 9.042969 5.34375 8.769531 5.542969 8.566406 L 8.566406 5.542969 C 8.769531 5.34375 9.042969 5.226562 9.332031 5.226562 C 9.617188 5.226562 9.890625 5.34375 10.09375 5.542969 L 11.769531 7.222656 C 12.101562 7.0625 12.4375 6.921875 12.785156 6.800781 L 12.785156 4.429688 C 12.785156 3.835938 13.265625 3.351562 13.863281 3.351562 L 18.136719 3.351562 C 18.734375 3.351562 19.214844 3.835938 19.214844 4.429688 L 19.214844 6.800781 C 19.5625 6.921875 19.898438 7.0625 20.230469 7.222656 L 21.90625 5.542969 C 22.109375 5.34375 22.382812 5.226562 22.667969 5.226562 C 22.957031 5.226562 23.230469 5.34375 23.433594 5.542969 L 26.457031 8.566406 C 26.875 8.988281 26.875 9.671875 26.457031 10.09375 L 24.777344 11.769531 C 24.9375 12.101562 25.078125 12.4375 25.199219 12.785156 L 27.570312 12.785156 C 28.164062 12.785156 28.648438 13.265625 28.648438 13.863281 L 28.648438 18.136719 C 28.648438 18.734375 28.164062 19.214844 27.570312 19.214844 L 25.199219 19.214844 C 25.078125 19.5625 24.9375 19.898438 24.777344 20.230469 L 26.457031 21.90625 C 26.875 22.328125 26.875 23.011719 26.457031 23.433594 L 23.433594 26.457031 C 23.011719 26.875 22.328125 26.875 21.90625 26.457031 L 20.230469 24.777344 C 19.898438 24.9375 19.5625 25.078125 19.214844 25.199219 L 19.214844 27.570312 C 19.214844 28.164062 18.734375 28.648438 18.136719 28.648438 Z M 14.941406 26.492188 L 17.058594 26.492188 L 17.058594 24.398438 C 17.058594 23.90625 17.394531 23.476562 17.871094 23.351562 C 18.574219 23.175781 19.25 22.894531 19.875 22.523438 C 20.296875 22.269531 20.839844 22.339844 21.1875 22.6875 L 22.667969 24.167969 L 24.167969 22.667969 L 22.6875 21.1875 C 22.339844 20.839844 22.269531 20.296875 22.523438 19.875 C 22.894531 19.25 23.175781 18.574219 23.351562 17.871094 C 23.476562 17.394531 23.90625 17.058594 24.398438 17.058594 L 26.492188 17.058594 L 26.492188 14.941406 L 24.398438 14.941406 C 23.90625 14.941406 23.476562 14.605469 23.351562 14.128906 C 23.175781 13.425781 22.894531 12.75 22.523438 12.125 C 22.269531 11.703125 22.339844 11.160156 22.6875 10.8125 L 24.167969 9.332031 L 22.667969 7.832031 L 21.1875 9.3125 C 20.839844 9.660156 20.296875 9.730469 19.875 9.476562 C 19.25 9.105469 18.574219 8.824219 17.871094 8.648438 C 17.394531 8.523438 17.058594 8.09375 17.058594 7.601562 L 17.058594 5.507812 L 14.941406 5.507812 L 14.941406 7.601562 C 14.941406 8.09375 14.605469 8.523438 14.128906 8.648438 C 13.425781 8.824219 12.75 9.105469 12.125 9.476562 C 11.703125 9.730469 11.160156 9.660156 10.8125 9.3125 L 9.332031 7.832031 L 7.832031 9.332031 L 9.3125 10.8125 C 9.660156 11.160156 9.730469 11.703125 9.476562 12.125 C 9.105469 12.75 8.824219 13.425781 8.648438 14.128906 C 8.523438 14.605469 8.09375 14.941406 7.601562 14.941406 L 5.507812 14.941406 L 5.507812 17.058594 L 7.601562 17.058594 C 8.09375 17.058594 8.523438 17.394531 8.648438 17.871094 C 8.824219 18.574219 9.105469 19.25 9.476562 19.875 C 9.730469 20.296875 9.660156 20.839844 9.3125 21.1875 L 7.832031 22.667969 L 9.332031 24.167969 L 10.8125 22.6875 C 11.160156 22.339844 11.703125 22.269531 12.125 22.523438 C 12.75 22.894531 13.425781 23.175781 14.128906 23.351562 C 14.605469 23.476562 14.941406 23.90625 14.941406 24.398438 Z M 16 19.332031 C 14.160156 19.332031 12.667969 17.839844 12.667969 16 C 12.667969 14.160156 14.160156 12.667969 16 12.667969 C 17.839844 12.667969 19.332031 14.160156 19.332031 16 C 19.332031 17.839844 17.839844 19.332031 16 19.332031 Z M 16 14.824219 C 15.351562 14.824219 14.824219 15.351562 14.824219 16 C 14.824219 16.648438 15.351562 17.175781 16 17.175781 C 16.648438 17.175781 17.175781 16.648438 17.175781 16 C 17.175781 15.351562 16.648438 14.824219 16 14.824219 Z M 16 14.824219 "/>
</g>
</svg>
