<?xml version="1.0" encoding="UTF-8"?>
<svg xmlns="http://www.w3.org/2000/svg" xmlns:xlink="http://www.w3.org/1999/xlink" width="32pt" height="32pt" viewBox="0 0 32 32" version="1.1">
<g id="surface1">
<path style=" stroke:none;fill-rule:nonzero;fill:rgb(0%,0%,0%);fill-opacity:1;" d="M 11.617188 5.363281 C 15.070312 5.363281 17.871094 8.164062 17.871094 11.617188 C 17.871094 12.660156 17.566406 13.453125 17.566406 13.453125 C 17.34375 14.03125 17.519531 14.863281 17.957031 15.300781 L 26.261719 23.601562 C 26.699219 24.039062 26.699219 24.757812 26.261719 25.195312 L 25.195312 26.261719 C 24.976562 26.480469 24.6875 26.589844 24.398438 26.589844 C 24.109375 26.589844 23.820312 26.480469 23.601562 26.261719 L 15.300781 17.957031 C 14.992188 17.648438 14.484375 17.46875 14.011719 17.46875 C 13.8125 17.46875 13.625 17.5 13.453125 17.566406 C 13.453125 17.566406 12.660156 17.871094 11.617188 17.871094 C 8.164062 17.871094 5.363281 15.070312 5.363281 11.617188 C 5.363281 11.109375 5.363281 11.109375 5.363281 11.109375 C 5.417969 10.808594 5.578125 10.652344 5.789062 10.652344 C 5.953125 10.652344 6.144531 10.746094 6.335938 10.9375 L 9.15625 13.757812 C 9.375 13.976562 9.664062 14.085938 9.953125 14.085938 C 10.238281 14.085938 10.527344 13.976562 10.746094 13.757812 L 13.757812 10.746094 C 14.195312 10.308594 14.195312 9.59375 13.757812 9.15625 L 10.9375 6.332031 C 10.5 5.894531 10.578125 5.460938 11.109375 5.363281 C 11.109375 5.363281 11.109375 5.363281 11.617188 5.363281 M 11.617188 3.207031 L 11.109375 3.207031 C 10.980469 3.207031 10.851562 3.21875 10.722656 3.242188 C 9.695312 3.429688 8.90625 4.097656 8.613281 5.03125 C 8.308594 6 8.609375 7.054688 9.414062 7.859375 L 11.503906 9.949219 L 9.953125 11.503906 L 7.859375 9.414062 C 7.269531 8.824219 6.535156 8.496094 5.789062 8.496094 C 5.097656 8.496094 4.449219 8.773438 3.96875 9.269531 C 3.59375 9.65625 3.34375 10.160156 3.242188 10.722656 C 3.21875 10.851562 3.207031 10.980469 3.207031 11.109375 L 3.207031 11.617188 C 3.207031 12.75 3.429688 13.851562 3.867188 14.890625 C 4.292969 15.890625 4.898438 16.789062 5.671875 17.5625 C 6.441406 18.335938 7.339844 18.941406 8.34375 19.363281 C 9.378906 19.804688 10.480469 20.027344 11.617188 20.027344 C 12.671875 20.027344 13.53125 19.804688 13.960938 19.667969 L 22.078125 27.785156 C 22.695312 28.402344 23.519531 28.746094 24.398438 28.746094 C 25.277344 28.746094 26.101562 28.402344 26.71875 27.785156 L 27.785156 26.71875 C 28.402344 26.101562 28.746094 25.277344 28.746094 24.398438 C 28.746094 23.519531 28.402344 22.695312 27.785156 22.078125 L 19.667969 13.960938 C 19.804688 13.53125 20.027344 12.671875 20.027344 11.617188 C 20.027344 10.480469 19.804688 9.378906 19.363281 8.34375 C 18.941406 7.339844 18.335938 6.441406 17.5625 5.671875 C 16.789062 4.898438 15.890625 4.292969 14.890625 3.867188 C 13.851562 3.429688 12.75 3.207031 11.617188 3.207031 Z M 11.617188 3.207031 "/>
</g>
</svg>
