<?xml version="1.0" encoding="UTF-8"?>
<svg xmlns="http://www.w3.org/2000/svg" xmlns:xlink="http://www.w3.org/1999/xlink" width="32pt" height="32pt" viewBox="0 0 32 32" version="1.1">
<g id="surface1">
<path style=" stroke:none;fill-rule:nonzero;fill:rgb(0%,0%,0%);fill-opacity:1;" d="M 16.03125 4.125 C 15.648438 3.878906 15.203125 3.75 14.742188 3.75 C 14.21875 3.75 13.441406 3.917969 12.703125 4.722656 L 8.828125 8.957031 C 8.75 9.015625 8.574219 9.09375 8.480469 9.109375 L 6.453125 9.109375 C 4.640625 9.109375 3.171875 10.582031 3.171875 12.390625 L 3.171875 19.542969 C 3.171875 21.351562 4.640625 22.824219 6.453125 22.824219 L 8.464844 22.824219 C 8.558594 22.839844 8.734375 22.917969 8.808594 22.976562 L 12.703125 27.230469 C 13.441406 28.035156 14.21875 28.203125 14.742188 28.203125 C 15.203125 28.203125 15.648438 28.074219 16.03125 27.828125 C 16.363281 27.617188 16.644531 27.320312 16.84375 26.96875 C 17.085938 26.539062 17.210938 26.039062 17.210938 25.480469 L 17.210938 6.472656 C 17.210938 5.914062 17.085938 5.414062 16.84375 4.988281 C 16.644531 4.636719 16.363281 4.339844 16.03125 4.125 Z M 5.328125 19.542969 L 5.328125 12.390625 C 5.328125 11.773438 5.832031 11.265625 6.453125 11.265625 L 7.117188 11.265625 L 7.117188 20.667969 L 6.453125 20.667969 C 5.832031 20.667969 5.328125 20.160156 5.328125 19.542969 Z M 15.054688 25.480469 C 15.054688 25.851562 14.933594 26.046875 14.742188 26.046875 C 14.617188 26.046875 14.460938 25.960938 14.296875 25.777344 L 10.378906 21.496094 C 10.121094 21.21875 9.703125 20.96875 9.273438 20.816406 L 9.273438 11.125 C 9.707031 10.976562 10.136719 10.722656 10.398438 10.4375 L 14.296875 6.179688 C 14.460938 5.996094 14.617188 5.90625 14.742188 5.90625 C 14.933594 5.90625 15.054688 6.105469 15.054688 6.472656 Z M 21.253906 16 C 21.253906 17.191406 20.789062 18.308594 19.945312 19.152344 C 19.734375 19.363281 19.460938 19.46875 19.183594 19.46875 C 18.910156 19.46875 18.632812 19.363281 18.421875 19.152344 C 18 18.730469 18 18.050781 18.421875 17.628906 C 18.859375 17.191406 19.097656 16.613281 19.097656 16 C 19.097656 15.386719 18.859375 14.808594 18.421875 14.371094 C 18 13.949219 18 13.269531 18.421875 12.847656 C 18.84375 12.425781 19.527344 12.425781 19.945312 12.847656 C 20.789062 13.691406 21.253906 14.808594 21.253906 16 Z M 25.058594 16 C 25.058594 18.566406 24.058594 20.984375 22.238281 22.800781 C 22.03125 23.011719 21.753906 23.117188 21.476562 23.117188 C 21.203125 23.117188 20.925781 23.011719 20.714844 22.800781 C 20.292969 22.378906 20.292969 21.699219 20.714844 21.277344 C 22.125 19.867188 22.902344 17.992188 22.902344 16 C 22.902344 14.007812 22.125 12.132812 20.714844 10.722656 C 20.292969 10.300781 20.292969 9.621094 20.714844 9.199219 C 21.136719 8.777344 21.820312 8.777344 22.238281 9.199219 C 24.058594 11.015625 25.058594 13.433594 25.058594 16 Z M 28.777344 16 C 28.777344 17.867188 28.421875 19.6875 27.722656 21.410156 C 27 23.195312 25.933594 24.796875 24.5625 26.167969 C 24.351562 26.378906 24.074219 26.484375 23.796875 26.484375 C 23.523438 26.484375 23.246094 26.378906 23.035156 26.167969 C 22.617188 25.746094 22.617188 25.066406 23.035156 24.644531 C 25.347656 22.332031 26.621094 19.261719 26.621094 16 C 26.621094 12.738281 25.347656 9.667969 23.035156 7.355469 C 22.617188 6.933594 22.617188 6.253906 23.035156 5.832031 C 23.457031 5.410156 24.140625 5.410156 24.5625 5.832031 C 25.933594 7.203125 27 8.804688 27.722656 10.589844 C 28.421875 12.3125 28.777344 14.132812 28.777344 16 Z M 28.777344 16 "/>
</g>
</svg>
