<?xml version="1.0" encoding="UTF-8"?>
<svg xmlns="http://www.w3.org/2000/svg" xmlns:xlink="http://www.w3.org/1999/xlink" width="32pt" height="32pt" viewBox="0 0 32 32" version="1.1">
<g id="surface1">
<path style=" stroke:none;fill-rule:nonzero;fill:rgb(0%,0%,0%);fill-opacity:1;" d="M 16 5.382812 C 16.414062 5.382812 16.828125 5.6875 17.144531 6.300781 L 26.410156 24.296875 C 27.042969 25.519531 26.429688 26.519531 25.054688 26.519531 L 6.945312 26.519531 C 5.570312 26.519531 4.957031 25.519531 5.589844 24.296875 L 14.855469 6.300781 C 15.171875 5.6875 15.585938 5.382812 16 5.382812 M 16 3.226562 C 15.304688 3.226562 14.632812 3.464844 14.058594 3.914062 C 13.613281 4.265625 13.234375 4.734375 12.9375 5.3125 L 3.671875 23.3125 C 3.371094 23.894531 3.207031 24.488281 3.1875 25.082031 C 3.160156 25.765625 3.328125 26.425781 3.671875 26.992188 C 4.019531 27.554688 4.527344 28.007812 5.148438 28.296875 C 5.683594 28.550781 6.289062 28.675781 6.945312 28.675781 L 25.054688 28.675781 C 25.710938 28.675781 26.316406 28.550781 26.851562 28.296875 C 27.472656 28.007812 27.980469 27.554688 28.328125 26.992188 C 28.671875 26.425781 28.839844 25.765625 28.8125 25.082031 C 28.792969 24.488281 28.628906 23.894531 28.328125 23.3125 L 19.0625 5.3125 C 18.765625 4.734375 18.386719 4.265625 17.941406 3.914062 C 17.367188 3.464844 16.695312 3.226562 16 3.226562 Z M 16 21.261719 C 15.085938 21.261719 14.339844 22.003906 14.339844 22.921875 C 14.339844 23.835938 15.085938 24.582031 16 24.582031 C 16.914062 24.582031 17.660156 23.835938 17.660156 22.921875 C 17.660156 22.003906 16.914062 21.261719 16 21.261719 Z M 17.078125 19.007812 L 17.078125 11.832031 C 17.078125 11.234375 16.59375 10.753906 16 10.753906 C 15.40625 10.753906 14.921875 11.234375 14.921875 11.832031 L 14.921875 19.007812 C 14.921875 19.601562 15.40625 20.085938 16 20.085938 C 16.59375 20.085938 17.078125 19.601562 17.078125 19.007812 Z M 17.078125 19.007812 "/>
</g>
</svg>
