<?xml version="1.0" encoding="iso-8859-1"?>
<!-- Generator: Adobe Illustrator 16.0.3, SVG Export Plug-In . SVG Version: 6.00 Build 0)  -->
<!DOCTYPE svg PUBLIC "-//W3C//DTD SVG 1.1//EN" "http://www.w3.org/Graphics/SVG/1.1/DTD/svg11.dtd">
<svg version="1.1" id="icons" xmlns="http://www.w3.org/2000/svg" xmlns:xlink="http://www.w3.org/1999/xlink" x="0px" y="0px"
	 width="1024px" height="1024px" viewBox="0 0 1024 1024" style="enable-background:new 0 0 1024 1024;" xml:space="preserve">
<path id="back" d="M841.2,188.98c6.072,0,9.8,6.303,9.8,18.184v608.223c0,11.882-3.727,18.184-9.8,18.184
	c-4.047,0-8.917-2.8-14.294-8.613L561.303,537.705c-13.444-14.536-13.415-38.323,0.029-52.859l265.561-287.252
	C832.27,191.779,837.152,188.98,841.2,188.98 M464.019,188.98c6.073,0,9.981,6.302,9.981,18.184v608.223
	c0,11.881-3.909,18.184-9.981,18.184c-4.048,0-9.007-2.799-14.384-8.613L183.985,537.705c-13.444-14.536-13.438-38.323,0.006-52.859
	l265.639-287.252C455.007,191.78,459.971,188.98,464.019,188.98 M841.434,119.98c-16.703,0-41.601,5.336-65.117,30.761L543,402.964
	v-195.8c0-17.968-3.929-34.043-11.778-47.781c-6.417-11.23-15.429-20.734-26.11-27.503c-12.273-7.778-26.448-11.88-41.041-11.88
	c-0.002,0-0.006,0-0.009,0c-16.701,0-41.545,5.331-65.058,30.753L133.341,438.001c-18.33,19.82-28.426,45.842-28.426,73.277
	c0,27.435,10.096,53.458,28.426,73.278l265.662,287.252c23.517,25.427,48.363,30.763,65.066,30.763
	c14.593,0,28.793-4.111,41.066-11.889c10.681-6.77,19.666-16.282,26.083-27.511C539.07,849.433,543,833.355,543,815.387v-195.8
	l233.314,252.22c23.518,25.427,48.391,30.764,65.094,30.764c14.592,0,28.804-4.11,41.075-11.887
	c10.683-6.769,19.493-16.283,25.911-27.514C916.246,849.433,920,833.355,920,815.387V207.164c0-17.969-3.748-34.045-11.6-47.784
	c-6.417-11.229-15.338-20.742-26.018-27.51C870.111,124.091,856.026,119.98,841.434,119.98L841.434,119.98z"/>
</svg>
