<?xml version="1.0" encoding="iso-8859-1"?>
<!-- Generator: Adobe Illustrator 16.0.3, SVG Export Plug-In . SVG Version: 6.00 Build 0)  -->
<!DOCTYPE svg PUBLIC "-//W3C//DTD SVG 1.1//EN" "http://www.w3.org/Graphics/SVG/1.1/DTD/svg11.dtd">
<svg version="1.1" id="icons" xmlns="http://www.w3.org/2000/svg" xmlns:xlink="http://www.w3.org/1999/xlink" x="0px" y="0px"
	 width="1024px" height="1024px" viewBox="0 0 1024 1024" style="enable-background:new 0 0 1024 1024;" xml:space="preserve">
<path id="forward" d="M557.992,188.98c4.047,0,9.013,2.8,14.39,8.613l265.651,287.252c13.445,14.536,13.439,38.323-0.005,52.859
	L572.364,824.957c-5.377,5.814-10.323,8.613-14.371,8.613c-6.072,0-9.993-6.303-9.993-18.184V207.164
	C548,195.282,551.919,188.98,557.992,188.98 M180.811,188.98c4.048,0,8.922,2.799,14.299,8.613l265.606,287.252
	c13.444,14.536,13.416,38.323-0.028,52.859L195.012,824.957c-5.376,5.813-10.147,8.613-14.194,8.613
	c-6.073,0-9.817-6.302-9.817-18.184V207.164C171,195.283,174.738,188.98,180.811,188.98 M557.951,119.98
	c-14.592,0-28.791,4.11-41.063,11.887c-10.683,6.769-19.68,16.283-26.098,27.514C482.94,173.118,479,189.195,479,207.164v195.8
	l-233.304-252.21C222.179,125.327,197.292,120,180.589,120c-0.003,0-0.006,0-0.009,0c-14.59,0-28.787,4.103-41.057,11.879
	c-10.68,6.769-19.494,16.276-25.912,27.503C105.759,173.121,102,189.194,102,207.164v608.223c0,17.97,3.758,34.047,11.61,47.784
	c6.418,11.23,15.345,20.744,26.027,27.514c12.272,7.775,26.416,11.886,41.007,11.886c16.703,0,41.563-5.337,65.079-30.763
	L479,619.587v195.8c0,17.969,3.94,34.045,11.792,47.784c6.417,11.229,15.433,20.741,26.113,27.51
	c12.272,7.778,26.464,11.89,41.056,11.89c16.703,0,41.544-5.337,65.061-30.762l265.662-287.254
	c18.33-19.819,28.424-45.845,28.424-73.279c0-27.435-10.096-53.46-28.427-73.28L623.019,150.744
	C599.501,125.317,574.654,119.98,557.951,119.98L557.951,119.98z"/>
</svg>
