<?xml version="1.0" encoding="iso-8859-1"?>
<!-- Generator: Adobe Illustrator 16.0.3, SVG Export Plug-In . SVG Version: 6.00 Build 0)  -->
<!DOCTYPE svg PUBLIC "-//W3C//DTD SVG 1.1//EN" "http://www.w3.org/Graphics/SVG/1.1/DTD/svg11.dtd">
<svg version="1.1" id="icons" xmlns="http://www.w3.org/2000/svg" xmlns:xlink="http://www.w3.org/1999/xlink" x="0px" y="0px"
	 width="1024px" height="1024px" viewBox="0 0 1024 1024" style="enable-background:new 0 0 1024 1024;" xml:space="preserve">
<path id="loop_1" d="M643.878,788.188H193.694c-13.954,0-26.534-8.405-31.874-21.298c-5.34-12.892-2.388-27.73,7.479-37.598
	l192.252-192.251c9.867-9.866,24.706-12.815,37.598-7.479c12.892,5.34,21.297,17.92,21.297,31.874v157.751h223.431
	c113.975,0,206.699-92.725,206.699-206.698c0-20.211-2.902-40.167-8.627-59.315c-5.457-18.255,4.917-37.479,23.173-42.937
	c18.254-5.456,37.479,4.917,42.937,23.173c7.643,25.565,11.518,52.171,11.518,79.079c0,73.642-28.678,142.876-80.75,194.948
	C786.754,759.511,717.52,788.188,643.878,788.188z M276.985,719.188h74.461v-74.461L276.985,719.188z M145.257,616.204
	c-14.854,0-28.569-9.667-33.041-24.627c-7.643-25.566-11.518-52.172-11.518-79.08c0-73.642,28.678-142.875,80.75-194.948
	s121.307-80.75,194.949-80.75h450.184c13.954,0,26.534,8.406,31.874,21.297c5.34,12.892,2.388,27.731-7.479,37.598l-192.253,192.25
	c-9.867,9.866-24.703,12.821-37.599,7.478c-12.892-5.34-21.297-17.919-21.297-31.874V305.8H376.398
	c-113.974,0-206.699,92.724-206.699,206.698c0,20.21,2.902,40.167,8.627,59.316c5.457,18.256-4.918,37.479-23.173,42.937
	C151.857,615.734,148.528,616.204,145.257,616.204z M668.829,305.8v74.461l74.462-74.461H668.829z M550.596,629.089V401.1
	c0-11.746-5.976-22.684-15.859-29.031c-9.884-6.346-22.316-7.228-32.997-2.34l-58.997,26.999
	c-17.326,7.929-24.943,28.402-17.015,45.728c7.929,17.326,28.404,24.943,45.728,17.015l10.141-4.641v174.259
	c0,19.054,15.446,34.5,34.5,34.5S550.596,648.143,550.596,629.089z"/>
</svg>
