<?xml version="1.0" encoding="iso-8859-1"?>
<!-- Generator: Adobe Illustrator 16.0.3, SVG Export Plug-In . SVG Version: 6.00 Build 0)  -->
<!DOCTYPE svg PUBLIC "-//W3C//DTD SVG 1.1//EN" "http://www.w3.org/Graphics/SVG/1.1/DTD/svg11.dtd">
<svg version="1.1" id="icons" xmlns="http://www.w3.org/2000/svg" xmlns:xlink="http://www.w3.org/1999/xlink" x="0px" y="0px"
	 width="1024px" height="1024px" viewBox="0 0 1024 1024" style="enable-background:new 0 0 1024 1024;" xml:space="preserve">
<path id="next" d="M186.373,172.645c4.26,0,9.231,1.545,14.377,4.807l496.313,314.551c16.724,10.6,16.753,27.946,0.029,38.546
	L200.85,845.098c-5.144,3.261-10.225,4.807-14.484,4.807c-9.586,0-16.366-7.824-16.366-21.533V194.179
	C170,180.471,176.788,172.646,186.373,172.645 M823,176.396c15.494,0,28,16.2,28,36v597.125c0,19.8-12.506,36-28,36s-28-16.2-28-36
	V212.396C795,192.596,807.506,176.396,823,176.396 M186.604,104c0,0-0.002,0-0.003,0c-26.171,0-50.547,11.639-66.478,32.239
	C107.763,152.224,101,172.143,101,194.179v634.192c0,22.036,6.762,42.132,19.121,58.115c15.931,20.603,40.193,32.418,66.366,32.418
	c17.472,0,35.215-5.369,51.242-15.529L726,593.911v215.609c0,24.917,8.166,49.048,22.957,67.948
	c18.428,23.547,45.495,37.052,74.246,37.052s55.621-13.505,74.048-37.052c14.791-18.9,22.749-43.031,22.749-67.948V212.396
	c0-24.917-7.953-49.048-22.744-67.948c-18.426-23.547-45.388-37.052-74.139-37.052s-55.781,13.505-74.208,37.051
	C734.118,163.347,726,187.479,726,212.396v216.245l-488.217-309.29C221.757,109.192,204.073,104,186.604,104L186.604,104z"/>
</svg>
