<?xml version="1.0" encoding="iso-8859-1"?>
<!-- Generator: Adobe Illustrator 16.0.3, SVG Export Plug-In . SVG Version: 6.00 Build 0)  -->
<!DOCTYPE svg PUBLIC "-//W3C//DTD SVG 1.1//EN" "http://www.w3.org/Graphics/SVG/1.1/DTD/svg11.dtd">
<svg version="1.1" id="icons" xmlns="http://www.w3.org/2000/svg" xmlns:xlink="http://www.w3.org/1999/xlink" x="0px" y="0px"
	 width="1024px" height="1024px" viewBox="0 0 1024 1024" style="enable-background:new 0 0 1024 1024;" xml:space="preserve">
<path id="clear_playlist" d="M911.869,554.311L800.12,666.06l111.749,111.748c13.473,13.474,13.473,35.317,0,48.791
	c-6.737,6.736-15.566,10.104-24.396,10.104s-17.658-3.368-24.396-10.104L751.33,714.85L639.58,826.6
	c-6.737,6.736-15.566,10.104-24.396,10.104s-17.658-3.368-24.396-10.104c-13.473-13.474-13.473-35.317,0-48.791l111.75-111.749
	l-111.75-111.75c-13.473-13.474-13.473-35.317,0-48.791c13.475-13.474,35.316-13.474,48.791,0l111.75,111.75L863.078,505.52
	c13.475-13.474,35.316-13.474,48.791,0C925.342,518.993,925.342,540.837,911.869,554.311z M259.52,253.477h627.954
	c19.054,0,34.5-15.446,34.5-34.5s-15.446-34.5-34.5-34.5H259.52c-19.054,0-34.5,15.446-34.5,34.5S240.466,253.477,259.52,253.477z
	 M485.964,477.213H259.52c-19.054,0-34.5,15.446-34.5,34.5c0,19.054,15.446,34.5,34.5,34.5h226.444c19.054,0,34.5-15.445,34.5-34.5
	C520.464,492.66,505.018,477.213,485.964,477.213z M485.964,767.947H259.52c-19.054,0-34.5,15.446-34.5,34.5s15.446,34.5,34.5,34.5
	h226.444c19.054,0,34.5-15.446,34.5-34.5S505.018,767.947,485.964,767.947z M887.474,335.969H259.52
	c-19.054,0-34.5,15.446-34.5,34.5s15.446,34.5,34.5,34.5h627.954c19.054,0,34.5-15.446,34.5-34.5S906.527,335.969,887.474,335.969z
	 M485.964,626.703H259.52c-19.054,0-34.5,15.446-34.5,34.5s15.446,34.5,34.5,34.5h226.444c19.054,0,34.5-15.446,34.5-34.5
	S505.018,626.703,485.964,626.703z M143.981,184.477h-7.455c-19.054,0-34.5,15.446-34.5,34.5s15.446,34.5,34.5,34.5h7.455
	c19.054,0,34.5-15.446,34.5-34.5S163.035,184.477,143.981,184.477z M143.981,477.213h-7.455c-19.054,0-34.5,15.446-34.5,34.5
	c0,19.054,15.446,34.5,34.5,34.5h7.455c19.054,0,34.5-15.445,34.5-34.5C178.481,492.66,163.035,477.213,143.981,477.213z
	 M143.981,767.947h-7.455c-19.054,0-34.5,15.446-34.5,34.5s15.446,34.5,34.5,34.5h7.455c19.054,0,34.5-15.446,34.5-34.5
	S163.035,767.947,143.981,767.947z M143.981,335.969h-7.455c-19.054,0-34.5,15.446-34.5,34.5s15.446,34.5,34.5,34.5h7.455
	c19.054,0,34.5-15.446,34.5-34.5S163.035,335.969,143.981,335.969z M143.981,626.703h-7.455c-19.054,0-34.5,15.446-34.5,34.5
	s15.446,34.5,34.5,34.5h7.455c19.054,0,34.5-15.446,34.5-34.5S163.035,626.703,143.981,626.703z"/>
</svg>
