<?xml version="1.0" encoding="iso-8859-1"?>
<!-- Generator: Adobe Illustrator 16.0.3, SVG Export Plug-In . SVG Version: 6.00 Build 0)  -->
<!DOCTYPE svg PUBLIC "-//W3C//DTD SVG 1.1//EN" "http://www.w3.org/Graphics/SVG/1.1/DTD/svg11.dtd">
<svg version="1.1" id="icons" xmlns="http://www.w3.org/2000/svg" xmlns:xlink="http://www.w3.org/1999/xlink" x="0px" y="0px"
	 width="1024px" height="1024px" viewBox="0 0 1024 1024" style="enable-background:new 0 0 1024 1024;" xml:space="preserve">
<path id="play" d="M189.303,172.691c4.004,0,8.549,1.106,13.204,3.447l634.439,318.966c17.689,8.895,17.719,23.449,0.029,32.344
	L202.607,846.412c-4.653,2.34-9.308,3.447-13.311,3.447c-11.215,0-19.296-8.684-19.296-23.275V195.966
	C170,181.376,178.09,172.692,189.303,172.691 M189.538,104c-0.001,0-0.001,0-0.002,0c-0.004,0-0.008,0-0.011,0
	c-25.815,0-50.281,11.037-66.723,30.545C108.688,151.289,101,172.427,101,195.966v630.618c0,23.539,7.688,44.832,21.799,61.575
	c16.442,19.51,40.796,30.7,66.619,30.7c14.999,0,29.888-3.634,44.142-10.801l634.411-318.965
	c32.105-16.143,51.285-45.233,51.285-77.818c0.001-32.584-19.158-61.675-51.262-77.818L233.613,114.646
	C219.361,107.479,204.533,104,189.538,104L189.538,104L189.538,104z"/>
</svg>
