<?xml version="1.0" encoding="iso-8859-1"?>
<!-- Generator: Adobe Illustrator 16.0.3, SVG Export Plug-In . SVG Version: 6.00 Build 0)  -->
<!DOCTYPE svg PUBLIC "-//W3C//DTD SVG 1.1//EN" "http://www.w3.org/Graphics/SVG/1.1/DTD/svg11.dtd">
<svg version="1.1" id="icons" xmlns="http://www.w3.org/2000/svg" xmlns:xlink="http://www.w3.org/1999/xlink" x="0px" y="0px"
	 width="1024px" height="1024px" viewBox="0 0 1024 1024" style="enable-background:new 0 0 1024 1024;" xml:space="preserve">
<path id="playlist" d="M887.474,253.477H259.52c-19.054,0-34.5-15.446-34.5-34.5s15.446-34.5,34.5-34.5h627.954
	c19.054,0,34.5,15.446,34.5,34.5S906.527,253.477,887.474,253.477z M921.974,511.713c0-19.054-15.446-34.5-34.5-34.5H259.52
	c-19.054,0-34.5,15.446-34.5,34.5c0,19.054,15.446,34.5,34.5,34.5h627.954C906.527,546.213,921.974,530.768,921.974,511.713z
	 M921.974,802.447c0-19.054-15.446-34.5-34.5-34.5H259.52c-19.054,0-34.5,15.446-34.5,34.5s15.446,34.5,34.5,34.5h627.954
	C906.527,836.947,921.974,821.501,921.974,802.447z M921.974,370.469c0-19.054-15.446-34.5-34.5-34.5H259.52
	c-19.054,0-34.5,15.446-34.5,34.5s15.446,34.5,34.5,34.5h627.954C906.527,404.969,921.974,389.522,921.974,370.469z
	 M921.974,661.203c0-19.054-15.446-34.5-34.5-34.5H259.52c-19.054,0-34.5,15.446-34.5,34.5s15.446,34.5,34.5,34.5h627.954
	C906.527,695.703,921.974,680.257,921.974,661.203z M178.481,218.977c0-19.054-15.446-34.5-34.5-34.5h-7.455
	c-19.054,0-34.5,15.446-34.5,34.5s15.446,34.5,34.5,34.5h7.455C163.035,253.477,178.481,238.03,178.481,218.977z M178.481,511.713
	c0-19.054-15.446-34.5-34.5-34.5h-7.455c-19.054,0-34.5,15.446-34.5,34.5c0,19.054,15.446,34.5,34.5,34.5h7.455
	C163.035,546.213,178.481,530.768,178.481,511.713z M178.481,802.447c0-19.054-15.446-34.5-34.5-34.5h-7.455
	c-19.054,0-34.5,15.446-34.5,34.5s15.446,34.5,34.5,34.5h7.455C163.035,836.947,178.481,821.501,178.481,802.447z M178.481,370.469
	c0-19.054-15.446-34.5-34.5-34.5h-7.455c-19.054,0-34.5,15.446-34.5,34.5s15.446,34.5,34.5,34.5h7.455
	C163.035,404.969,178.481,389.522,178.481,370.469z M178.481,661.203c0-19.054-15.446-34.5-34.5-34.5h-7.455
	c-19.054,0-34.5,15.446-34.5,34.5s15.446,34.5,34.5,34.5h7.455C163.035,695.703,178.481,680.257,178.481,661.203z"/>
</svg>
