<?xml version="1.0" encoding="iso-8859-1"?>
<!-- Generator: Adobe Illustrator 16.0.3, SVG Export Plug-In . SVG Version: 6.00 Build 0)  -->
<!DOCTYPE svg PUBLIC "-//W3C//DTD SVG 1.1//EN" "http://www.w3.org/Graphics/SVG/1.1/DTD/svg11.dtd">
<svg version="1.1" id="icons" xmlns="http://www.w3.org/2000/svg" xmlns:xlink="http://www.w3.org/1999/xlink" x="0px" y="0px"
	 width="1024px" height="1024px" viewBox="0 0 1024 1024" style="enable-background:new 0 0 1024 1024;" xml:space="preserve">
<path id="previous" d="M835.049,172.645c9.586,0,15.951,7.826,15.951,21.534v634.192c0,13.709-6.365,21.533-15.951,21.533
	c-4.26,0-9.021-1.546-14.166-4.807L324.674,530.549c-16.723-10.601-16.699-27.946,0.024-38.546l496.172-314.551
	C826.017,174.19,830.789,172.645,835.049,172.645 M198.5,176.396c15.495,0,28.5,16.2,28.5,36v597.125c0,19.8-13.005,36-28.5,36
	s-28.5-16.2-28.5-36V212.396C170,192.596,183.005,176.396,198.5,176.396 M835.241,103.645c-17.471,0-35.077,5.37-51.103,15.528
	L296,428.641V212.396c0-24.917-8.245-49.048-23.035-67.948c-18.427-23.547-45.534-37.052-74.285-37.052
	c-28.752,0-56.063,13.505-74.49,37.052c-14.791,18.9-23.19,43.032-23.19,67.948v597.125c0,24.917,8.375,49.048,23.165,67.948
	c18.427,23.547,45.599,37.052,74.351,37.052c28.751,0,55.965-13.505,74.392-37.052c14.791-18.9,23.092-43.031,23.092-67.948V593.911
	l488.139,309.466c16.025,10.158,33.682,15.527,51.153,15.527c26.174,0,50.104-11.816,66.034-32.418
	C913.686,870.502,920,850.406,920,828.371V194.179c0-22.036-6.34-42.131-18.701-58.116
	C885.369,115.461,861.414,103.645,835.241,103.645L835.241,103.645z"/>
</svg>
