<?xml version="1.0" encoding="iso-8859-1"?>
<!-- Generator: Adobe Illustrator 16.0.3, SVG Export Plug-In . SVG Version: 6.00 Build 0)  -->
<!DOCTYPE svg PUBLIC "-//W3C//DTD SVG 1.1//EN" "http://www.w3.org/Graphics/SVG/1.1/DTD/svg11.dtd">
<svg version="1.1" id="icons" xmlns="http://www.w3.org/2000/svg" xmlns:xlink="http://www.w3.org/1999/xlink" x="0px" y="0px"
	 width="1024px" height="1024px" viewBox="0 0 1024 1024" style="enable-background:new 0 0 1024 1024;" xml:space="preserve">
<path id="shuffle" d="M100.699,332.797c0-19.054,15.446-34.5,34.5-34.5h151.908c46.419,0,115.97,20.337,166.712,65.772
	c14.195,12.71,15.399,34.521,2.688,48.716c-6.813,7.61-16.245,11.487-25.714,11.487c-8.195,0-16.417-2.901-23.002-8.798
	c-35.323-31.628-87.45-48.177-120.685-48.177H135.199C116.145,367.297,100.699,351.851,100.699,332.797z M582.318,411.449
	c27.68-29.297,58.107-44.152,90.438-44.152h131.531l-32.698,32.698c-13.473,13.473-13.473,35.317,0,48.79
	c6.737,6.737,15.566,10.105,24.396,10.105s17.658-3.368,24.396-10.105l91.593-91.593c13.473-13.473,13.473-35.317,0-48.79
	l-91.593-91.593c-13.475-13.474-35.316-13.474-48.791,0c-13.473,13.473-13.473,35.317,0,48.79l32.698,32.698H672.756
	c-51.327,0-99.943,22.742-140.593,65.766c-40.533,42.901-64.825,96.238-78.067,133.427c-14.197,39.875-40.458,80.187-72.047,110.599
	c-32.077,30.88-65.794,47.887-94.943,47.887H135.199c-19.054,0-34.5,15.446-34.5,34.5s15.446,34.5,34.5,34.5h151.908
	c99.675,0,196.229-103.896,231.992-204.341C534.675,476.889,557.126,438.113,582.318,411.449z M820.38,574.487
	c-13.475-13.473-35.316-13.473-48.791,0c-13.473,13.474-13.473,35.317,0,48.791l32.698,32.697H672.756
	c-28.711,0-82.132-5.463-117.327-42.049c-13.209-13.731-35.051-14.154-48.781-0.945c-13.731,13.21-14.155,35.05-0.945,48.781
	c39.214,40.764,98.542,63.213,167.054,63.213h131.531l-32.698,32.697c-13.473,13.474-13.473,35.317,0,48.791
	c6.737,6.736,15.566,10.104,24.396,10.104s17.658-3.368,24.396-10.104l91.593-91.593c13.473-13.474,13.473-35.317,0-48.791
	L820.38,574.487z"/>
</svg>
