<?xml version="1.0" encoding="iso-8859-1"?>
<!-- Generator: Adobe Illustrator 16.0.3, SVG Export Plug-In . SVG Version: 6.00 Build 0)  -->
<!DOCTYPE svg PUBLIC "-//W3C//DTD SVG 1.1//EN" "http://www.w3.org/Graphics/SVG/1.1/DTD/svg11.dtd">
<svg version="1.1" id="icons" xmlns="http://www.w3.org/2000/svg" xmlns:xlink="http://www.w3.org/1999/xlink" x="0px" y="0px"
	 width="1024px" height="1024px" viewBox="0 0 1024 1024" style="enable-background:new 0 0 1024 1024;" xml:space="preserve">
<path id="stop" d="M815.386,170.555c19.8,0,36,16.2,36,36v608.831c0,19.8-16.2,36-36,36H206.555c-19.8,0-36-16.2-36-36V206.555
	c0-19.8,16.2-36,36-36H815.386 M815.386,101.555H206.555c-57.897,0-105,47.103-105,105v608.831c0,57.897,47.103,105,105,105h608.831
	c57.897,0,105-47.103,105-105V206.555C920.386,148.657,873.283,101.555,815.386,101.555L815.386,101.555z"/>
</svg>
