<?xml version="1.0" encoding="UTF-8"?>
<svg xmlns="http://www.w3.org/2000/svg" xmlns:xlink="http://www.w3.org/1999/xlink" width="32pt" height="32pt" viewBox="0 0 32 32" version="1.1">
<g id="surface1">
<path style=" stroke:none;fill-rule:nonzero;fill:rgb(0%,0%,0%);fill-opacity:1;" d="M 26.289062 5.90625 C 26.476562 5.90625 26.59375 6.101562 26.59375 6.472656 L 26.59375 25.480469 C 26.59375 25.851562 26.476562 26.050781 26.289062 26.050781 C 26.160156 26.050781 26.007812 25.960938 25.839844 25.78125 L 17.539062 16.804688 C 17.121094 16.347656 17.121094 15.605469 17.542969 15.152344 L 25.839844 6.175781 C 26.007812 5.992188 26.160156 5.90625 26.289062 5.90625 M 14.5 5.90625 C 14.691406 5.90625 14.8125 6.101562 14.8125 6.472656 L 14.8125 25.480469 C 14.8125 25.851562 14.691406 26.050781 14.5 26.050781 C 14.375 26.050781 14.21875 25.960938 14.050781 25.78125 L 5.75 16.804688 C 5.328125 16.347656 5.328125 15.605469 5.75 15.152344 L 14.050781 6.175781 C 14.21875 5.992188 14.375 5.90625 14.5 5.90625 M 26.292969 3.75 C 25.773438 3.75 24.996094 3.917969 24.261719 4.710938 L 16.96875 12.59375 L 16.96875 6.472656 C 16.96875 5.914062 16.847656 5.410156 16.601562 4.980469 C 16.398438 4.628906 16.117188 4.332031 15.785156 4.121094 C 15.402344 3.878906 14.957031 3.75 14.503906 3.75 C 14.503906 3.75 14.503906 3.75 14.5 3.75 C 13.980469 3.75 13.203125 3.917969 12.46875 4.710938 L 4.167969 13.6875 C 3.59375 14.308594 3.277344 15.121094 3.277344 15.976562 C 3.277344 16.835938 3.59375 17.648438 4.167969 18.265625 L 12.46875 27.242188 C 13.203125 28.039062 13.980469 28.207031 14.503906 28.207031 C 14.957031 28.207031 15.402344 28.078125 15.785156 27.832031 C 16.121094 27.621094 16.398438 27.324219 16.601562 26.972656 C 16.847656 26.542969 16.96875 26.042969 16.96875 25.480469 L 16.96875 19.363281 L 24.261719 27.242188 C 24.996094 28.039062 25.773438 28.207031 26.292969 28.207031 C 26.75 28.207031 27.195312 28.078125 27.578125 27.832031 C 27.910156 27.621094 28.1875 27.324219 28.386719 26.972656 C 28.632812 26.542969 28.75 26.042969 28.75 25.480469 L 28.75 6.472656 C 28.75 5.914062 28.632812 5.410156 28.386719 4.980469 C 28.1875 4.628906 27.90625 4.332031 27.574219 4.121094 C 27.191406 3.878906 26.75 3.75 26.292969 3.75 Z M 26.292969 3.75 "/>
</g>
</svg>
