<?xml version="1.0" encoding="UTF-8"?>
<svg xmlns="http://www.w3.org/2000/svg" xmlns:xlink="http://www.w3.org/1999/xlink" width="32pt" height="32pt" viewBox="0 0 32 32" version="1.1">
<g id="surface1">
<path style=" stroke:none;fill-rule:nonzero;fill:rgb(0%,0%,0%);fill-opacity:1;" d="M 17.4375 5.90625 C 17.5625 5.90625 17.71875 5.992188 17.886719 6.175781 L 26.1875 15.152344 C 26.609375 15.605469 26.609375 16.347656 26.1875 16.804688 L 17.886719 25.78125 C 17.71875 25.960938 17.5625 26.050781 17.4375 26.050781 C 17.246094 26.050781 17.125 25.851562 17.125 25.480469 L 17.125 6.472656 C 17.125 6.101562 17.246094 5.90625 17.4375 5.90625 M 5.648438 5.90625 C 5.777344 5.90625 5.929688 5.992188 6.097656 6.175781 L 14.398438 15.152344 C 14.816406 15.605469 14.816406 16.347656 14.398438 16.804688 L 6.09375 25.78125 C 5.925781 25.960938 5.777344 26.050781 5.652344 26.050781 C 5.460938 26.050781 5.34375 25.851562 5.34375 25.480469 L 5.34375 6.472656 C 5.34375 6.101562 5.460938 5.90625 5.648438 5.90625 M 17.4375 3.75 C 16.980469 3.75 16.535156 3.878906 16.152344 4.121094 C 15.820312 4.332031 15.539062 4.628906 15.335938 4.980469 C 15.09375 5.410156 14.96875 5.914062 14.96875 6.472656 L 14.96875 12.59375 L 7.679688 4.710938 C 6.941406 3.917969 6.164062 3.75 5.644531 3.75 C 5.1875 3.75 4.742188 3.878906 4.359375 4.121094 C 4.027344 4.332031 3.75 4.628906 3.550781 4.980469 C 3.304688 5.410156 3.1875 5.914062 3.1875 6.472656 L 3.1875 25.480469 C 3.1875 26.042969 3.304688 26.542969 3.550781 26.972656 C 3.75 27.324219 4.03125 27.621094 4.363281 27.832031 C 4.746094 28.078125 5.1875 28.207031 5.644531 28.207031 C 6.167969 28.207031 6.945312 28.039062 7.679688 27.242188 L 14.96875 19.363281 L 14.96875 25.480469 C 14.96875 26.042969 15.09375 26.542969 15.335938 26.972656 C 15.539062 27.324219 15.820312 27.621094 16.152344 27.832031 C 16.535156 28.078125 16.980469 28.207031 17.4375 28.207031 C 17.957031 28.207031 18.734375 28.039062 19.46875 27.242188 L 27.769531 18.265625 C 28.34375 17.648438 28.660156 16.835938 28.660156 15.976562 C 28.660156 15.121094 28.34375 14.308594 27.769531 13.6875 L 19.46875 4.710938 C 18.734375 3.917969 17.957031 3.75 17.4375 3.75 Z M 17.4375 3.75 "/>
</g>
</svg>
