<?xml version="1.0" encoding="UTF-8"?>
<svg xmlns="http://www.w3.org/2000/svg" xmlns:xlink="http://www.w3.org/1999/xlink" width="32pt" height="32pt" viewBox="0 0 32 32" version="1.1">
<g id="surface1">
<path style=" stroke:none;fill-rule:nonzero;fill:rgb(0%,0%,0%);fill-opacity:1;" d="M 20.121094 24.632812 L 6.054688 24.632812 C 5.617188 24.632812 5.222656 24.367188 5.058594 23.964844 C 4.890625 23.5625 4.980469 23.097656 5.289062 22.789062 L 11.296875 16.78125 C 11.605469 16.472656 12.070312 16.382812 12.472656 16.546875 C 12.875 16.714844 13.140625 17.109375 13.140625 17.542969 L 13.140625 22.472656 L 20.121094 22.472656 C 23.683594 22.472656 26.582031 19.578125 26.582031 16.015625 C 26.582031 15.382812 26.488281 14.761719 26.3125 14.160156 C 26.140625 13.589844 26.464844 12.992188 27.035156 12.820312 C 27.605469 12.648438 28.207031 12.972656 28.375 13.542969 C 28.617188 14.34375 28.738281 15.175781 28.738281 16.015625 C 28.738281 18.316406 27.839844 20.480469 26.214844 22.105469 C 24.585938 23.734375 22.421875 24.632812 20.121094 24.632812 Z M 8.65625 22.476562 L 10.984375 22.476562 L 10.984375 20.148438 Z M 4.539062 19.257812 C 4.074219 19.257812 3.648438 18.953125 3.507812 18.488281 C 3.269531 17.6875 3.148438 16.855469 3.148438 16.015625 C 3.148438 13.714844 4.042969 11.550781 5.671875 9.921875 C 7.296875 8.296875 9.460938 7.398438 11.761719 7.398438 L 25.832031 7.398438 C 26.265625 7.398438 26.660156 7.664062 26.828125 8.066406 C 26.992188 8.46875 26.902344 8.933594 26.59375 9.242188 L 20.585938 15.25 C 20.277344 15.554688 19.8125 15.648438 19.410156 15.480469 C 19.007812 15.316406 18.746094 14.921875 18.746094 14.484375 L 18.746094 9.554688 L 11.761719 9.554688 C 8.199219 9.554688 5.304688 12.453125 5.304688 16.015625 C 5.304688 16.648438 5.394531 17.269531 5.574219 17.871094 C 5.742188 18.441406 5.417969 19.039062 4.847656 19.210938 C 4.746094 19.242188 4.640625 19.257812 4.539062 19.257812 Z M 20.902344 9.554688 L 20.902344 11.882812 L 23.226562 9.554688 Z M 17.207031 19.660156 L 17.207031 12.535156 C 17.207031 12.167969 17.019531 11.824219 16.710938 11.628906 C 16.402344 11.429688 16.011719 11.402344 15.679688 11.554688 L 13.835938 12.398438 C 13.292969 12.644531 13.054688 13.285156 13.304688 13.828125 C 13.550781 14.367188 14.191406 14.605469 14.734375 14.359375 L 15.050781 14.214844 L 15.050781 19.660156 C 15.050781 20.253906 15.53125 20.738281 16.128906 20.738281 C 16.722656 20.738281 17.207031 20.253906 17.207031 19.660156 Z M 17.207031 19.660156 "/>
</g>
</svg>
