<?xml version="1.0" encoding="UTF-8"?>
<svg xmlns="http://www.w3.org/2000/svg" xmlns:xlink="http://www.w3.org/1999/xlink" width="32pt" height="32pt" viewBox="0 0 32 32" version="1.1">
<g id="surface1">
<path style=" stroke:none;fill-rule:nonzero;fill:rgb(0%,0%,0%);fill-opacity:1;" d="M 5.824219 5.394531 C 5.957031 5.394531 6.113281 5.445312 6.273438 5.546875 L 21.785156 15.375 C 22.304688 15.707031 22.308594 16.25 21.785156 16.578125 L 6.277344 26.410156 C 6.117188 26.511719 5.957031 26.558594 5.824219 26.558594 C 5.523438 26.558594 5.3125 26.316406 5.3125 25.886719 L 5.3125 6.066406 C 5.3125 5.640625 5.523438 5.394531 5.824219 5.394531 M 25.71875 5.511719 C 26.203125 5.511719 26.59375 6.019531 26.59375 6.636719 L 26.59375 25.296875 C 26.59375 25.917969 26.203125 26.421875 25.71875 26.421875 C 25.234375 26.421875 24.84375 25.917969 24.84375 25.296875 L 24.84375 6.636719 C 24.84375 6.019531 25.234375 5.511719 25.71875 5.511719 M 5.832031 3.25 C 5.011719 3.25 4.25 3.613281 3.753906 4.257812 C 3.367188 4.757812 3.15625 5.378906 3.15625 6.066406 L 3.15625 25.886719 C 3.15625 26.574219 3.367188 27.203125 3.753906 27.703125 C 4.25 28.347656 5.011719 28.714844 5.828125 28.714844 C 6.375 28.714844 6.929688 28.546875 7.429688 28.230469 L 22.6875 18.558594 L 22.6875 25.296875 C 22.6875 26.074219 22.941406 26.832031 23.40625 27.421875 C 23.980469 28.15625 24.828125 28.578125 25.726562 28.578125 C 26.625 28.578125 27.464844 28.15625 28.039062 27.421875 C 28.5 26.832031 28.75 26.074219 28.75 25.296875 L 28.75 6.636719 C 28.75 5.859375 28.5 5.105469 28.039062 4.515625 C 27.464844 3.777344 26.621094 3.355469 25.722656 3.355469 C 24.824219 3.355469 23.980469 3.777344 23.402344 4.515625 C 22.941406 5.105469 22.6875 5.859375 22.6875 6.636719 L 22.6875 13.394531 L 7.429688 3.730469 C 6.929688 3.414062 6.378906 3.25 5.832031 3.25 Z M 5.832031 3.25 "/>
</g>
</svg>
