<?xml version="1.0" encoding="UTF-8"?>
<svg xmlns="http://www.w3.org/2000/svg" xmlns:xlink="http://www.w3.org/1999/xlink" width="32pt" height="32pt" viewBox="0 0 32 32" version="1.1">
<g id="surface1">
<path style=" stroke:none;fill-rule:nonzero;fill:rgb(0%,0%,0%);fill-opacity:1;" d="M 25.480469 5.328125 C 26.097656 5.328125 26.605469 5.835938 26.605469 6.453125 L 26.605469 25.480469 C 26.605469 26.097656 26.097656 26.605469 25.480469 26.605469 L 21.433594 26.605469 C 20.8125 26.605469 20.308594 26.097656 20.308594 25.480469 L 20.308594 6.453125 C 20.308594 5.835938 20.8125 5.328125 21.433594 5.328125 L 25.480469 5.328125 M 10.503906 5.328125 C 11.121094 5.328125 11.628906 5.835938 11.628906 6.453125 L 11.628906 25.480469 C 11.628906 26.097656 11.121094 26.605469 10.503906 26.605469 L 6.453125 26.605469 C 5.835938 26.605469 5.328125 26.097656 5.328125 25.480469 L 5.328125 6.453125 C 5.328125 5.835938 5.835938 5.328125 6.453125 5.328125 L 10.503906 5.328125 M 25.480469 3.171875 L 21.433594 3.171875 C 19.625 3.171875 18.152344 4.644531 18.152344 6.453125 L 18.152344 25.480469 C 18.152344 27.289062 19.625 28.761719 21.433594 28.761719 L 25.480469 28.761719 C 27.289062 28.761719 28.761719 27.289062 28.761719 25.480469 L 28.761719 6.453125 C 28.761719 4.644531 27.289062 3.171875 25.480469 3.171875 Z M 10.503906 3.171875 L 6.453125 3.171875 C 4.644531 3.171875 3.171875 4.644531 3.171875 6.453125 L 3.171875 25.480469 C 3.171875 27.289062 4.644531 28.761719 6.453125 28.761719 L 10.503906 28.761719 C 12.3125 28.761719 13.785156 27.289062 13.785156 25.480469 L 13.785156 6.453125 C 13.785156 4.644531 12.3125 3.171875 10.503906 3.171875 Z M 10.503906 3.171875 "/>
</g>
</svg>
