<?xml version="1.0" encoding="UTF-8"?>
<svg xmlns="http://www.w3.org/2000/svg" xmlns:xlink="http://www.w3.org/1999/xlink" width="32pt" height="32pt" viewBox="0 0 32 32" version="1.1">
<g id="surface1">
<path style=" stroke:none;fill-rule:nonzero;fill:rgb(0%,0%,0%);fill-opacity:1;" d="M 27.734375 7.921875 L 8.109375 7.921875 C 7.515625 7.921875 7.03125 7.4375 7.03125 6.84375 C 7.03125 6.246094 7.515625 5.765625 8.109375 5.765625 L 27.734375 5.765625 C 28.328125 5.765625 28.8125 6.246094 28.8125 6.84375 C 28.8125 7.4375 28.328125 7.921875 27.734375 7.921875 Z M 28.8125 15.992188 C 28.8125 15.394531 28.328125 14.914062 27.734375 14.914062 L 8.109375 14.914062 C 7.515625 14.914062 7.03125 15.394531 7.03125 15.992188 C 7.03125 16.585938 7.515625 17.070312 8.109375 17.070312 L 27.734375 17.070312 C 28.328125 17.070312 28.8125 16.585938 28.8125 15.992188 Z M 28.8125 25.078125 C 28.8125 24.480469 28.328125 24 27.734375 24 L 8.109375 24 C 7.515625 24 7.03125 24.480469 7.03125 25.078125 C 7.03125 25.671875 7.515625 26.15625 8.109375 26.15625 L 27.734375 26.15625 C 28.328125 26.15625 28.8125 25.671875 28.8125 25.078125 Z M 28.8125 11.578125 C 28.8125 10.980469 28.328125 10.5 27.734375 10.5 L 8.109375 10.5 C 7.515625 10.5 7.03125 10.980469 7.03125 11.578125 C 7.03125 12.171875 7.515625 12.65625 8.109375 12.65625 L 27.734375 12.65625 C 28.328125 12.65625 28.8125 12.171875 28.8125 11.578125 Z M 28.8125 20.664062 C 28.8125 20.066406 28.328125 19.585938 27.734375 19.585938 L 8.109375 19.585938 C 7.515625 19.585938 7.03125 20.066406 7.03125 20.664062 C 7.03125 21.257812 7.515625 21.742188 8.109375 21.742188 L 27.734375 21.742188 C 28.328125 21.742188 28.8125 21.257812 28.8125 20.664062 Z M 5.578125 6.84375 C 5.578125 6.246094 5.09375 5.765625 4.5 5.765625 L 4.265625 5.765625 C 3.671875 5.765625 3.1875 6.246094 3.1875 6.84375 C 3.1875 7.4375 3.671875 7.921875 4.265625 7.921875 L 4.5 7.921875 C 5.09375 7.921875 5.578125 7.4375 5.578125 6.84375 Z M 5.578125 15.992188 C 5.578125 15.394531 5.09375 14.914062 4.5 14.914062 L 4.265625 14.914062 C 3.671875 14.914062 3.1875 15.394531 3.1875 15.992188 C 3.1875 16.585938 3.671875 17.070312 4.265625 17.070312 L 4.5 17.070312 C 5.09375 17.070312 5.578125 16.585938 5.578125 15.992188 Z M 5.578125 25.078125 C 5.578125 24.480469 5.09375 24 4.5 24 L 4.265625 24 C 3.671875 24 3.1875 24.480469 3.1875 25.078125 C 3.1875 25.671875 3.671875 26.15625 4.265625 26.15625 L 4.5 26.15625 C 5.09375 26.15625 5.578125 25.671875 5.578125 25.078125 Z M 5.578125 11.578125 C 5.578125 10.980469 5.09375 10.5 4.5 10.5 L 4.265625 10.5 C 3.671875 10.5 3.1875 10.980469 3.1875 11.578125 C 3.1875 12.171875 3.671875 12.65625 4.265625 12.65625 L 4.5 12.65625 C 5.09375 12.65625 5.578125 12.171875 5.578125 11.578125 Z M 5.578125 20.664062 C 5.578125 20.066406 5.09375 19.585938 4.5 19.585938 L 4.265625 19.585938 C 3.671875 19.585938 3.1875 20.066406 3.1875 20.664062 C 3.1875 21.257812 3.671875 21.742188 4.265625 21.742188 L 4.5 21.742188 C 5.09375 21.742188 5.578125 21.257812 5.578125 20.664062 Z M 5.578125 20.664062 "/>
</g>
</svg>
