<?xml version="1.0" encoding="UTF-8"?>
<svg xmlns="http://www.w3.org/2000/svg" xmlns:xlink="http://www.w3.org/1999/xlink" width="32pt" height="32pt" viewBox="0 0 32 32" version="1.1">
<g id="surface1">
<path style=" stroke:none;fill-rule:nonzero;fill:rgb(0%,0%,0%);fill-opacity:1;" d="M 5.914062 5.398438 C 6.039062 5.398438 6.183594 5.429688 6.328125 5.503906 L 26.15625 15.472656 C 26.707031 15.75 26.707031 16.203125 26.15625 16.484375 L 6.332031 26.449219 C 6.1875 26.523438 6.039062 26.558594 5.914062 26.558594 C 5.566406 26.558594 5.3125 26.285156 5.3125 25.832031 L 5.3125 6.125 C 5.3125 5.667969 5.566406 5.398438 5.914062 5.398438 M 5.921875 3.25 C 5.117188 3.25 4.351562 3.59375 3.835938 4.203125 C 3.398438 4.726562 3.15625 5.386719 3.15625 6.125 L 3.15625 25.832031 C 3.15625 26.566406 3.398438 27.230469 3.835938 27.753906 C 4.351562 28.363281 5.113281 28.714844 5.917969 28.714844 C 6.386719 28.714844 6.851562 28.601562 7.296875 28.375 L 27.125 18.410156 C 28.128906 17.90625 28.726562 16.996094 28.726562 15.976562 C 28.726562 14.960938 28.128906 14.050781 27.125 13.546875 L 7.300781 3.582031 C 6.855469 3.359375 6.390625 3.25 5.921875 3.25 Z M 5.921875 3.25 "/>
</g>
</svg>
