<?xml version="1.0" encoding="UTF-8"?>
<svg xmlns="http://www.w3.org/2000/svg" xmlns:xlink="http://www.w3.org/1999/xlink" width="32pt" height="32pt" viewBox="0 0 32 32" version="1.1">
<g id="surface1">
<path style=" stroke:none;fill-rule:nonzero;fill:rgb(0%,0%,0%);fill-opacity:1;" d="M 26.09375 5.394531 C 26.394531 5.394531 26.59375 5.640625 26.59375 6.066406 L 26.59375 25.886719 C 26.59375 26.316406 26.394531 26.558594 26.09375 26.558594 C 25.960938 26.558594 25.8125 26.511719 25.652344 26.410156 L 10.144531 16.578125 C 9.625 16.25 9.625 15.707031 10.148438 15.375 L 25.652344 5.546875 C 25.8125 5.445312 25.960938 5.394531 26.09375 5.394531 M 6.203125 5.511719 C 6.6875 5.511719 7.09375 6.019531 7.09375 6.636719 L 7.09375 25.296875 C 7.09375 25.917969 6.6875 26.421875 6.203125 26.421875 C 5.71875 26.421875 5.3125 25.917969 5.3125 25.296875 L 5.3125 6.636719 C 5.3125 6.019531 5.71875 5.511719 6.203125 5.511719 M 26.101562 3.238281 C 25.554688 3.238281 25.003906 3.40625 24.503906 3.722656 L 9.25 13.394531 L 9.25 6.636719 C 9.25 5.859375 8.992188 5.105469 8.53125 4.515625 C 7.953125 3.777344 7.105469 3.355469 6.207031 3.355469 C 5.308594 3.355469 4.457031 3.777344 3.882812 4.515625 C 3.417969 5.105469 3.15625 5.859375 3.15625 6.636719 L 3.15625 25.296875 C 3.15625 26.078125 3.417969 26.832031 3.878906 27.421875 C 4.457031 28.15625 5.304688 28.578125 6.203125 28.578125 C 7.101562 28.578125 7.953125 28.15625 8.527344 27.421875 C 8.992188 26.832031 9.25 26.078125 9.25 25.296875 L 9.25 18.558594 L 24.503906 28.230469 C 25.003906 28.546875 25.558594 28.714844 26.101562 28.714844 C 26.921875 28.714844 27.667969 28.347656 28.167969 27.703125 C 28.550781 27.203125 28.75 26.574219 28.75 25.886719 L 28.75 6.066406 C 28.75 5.378906 28.550781 4.75 28.164062 4.253906 C 27.667969 3.609375 26.917969 3.238281 26.101562 3.238281 Z M 26.101562 3.238281 "/>
</g>
</svg>
