<?xml version="1.0" encoding="UTF-8"?>
<svg xmlns="http://www.w3.org/2000/svg" xmlns:xlink="http://www.w3.org/1999/xlink" width="32pt" height="32pt" viewBox="0 0 32 32" version="1.1">
<g id="surface1">
<path style=" stroke:none;fill-rule:nonzero;fill:rgb(0%,0%,0%);fill-opacity:1;" d="M 3.148438 10.398438 C 3.148438 9.804688 3.628906 9.320312 4.226562 9.320312 L 8.972656 9.320312 C 10.421875 9.320312 12.597656 9.957031 14.183594 11.378906 C 14.625 11.773438 14.664062 12.457031 14.265625 12.898438 C 14.054688 13.136719 13.757812 13.257812 13.460938 13.257812 C 13.207031 13.257812 12.949219 13.167969 12.742188 12.984375 C 11.640625 11.996094 10.011719 11.476562 8.972656 11.476562 L 4.226562 11.476562 C 3.628906 11.476562 3.148438 10.996094 3.148438 10.398438 Z M 18.199219 12.859375 C 19.0625 11.941406 20.011719 11.476562 21.023438 11.476562 L 25.132812 11.476562 L 24.113281 12.5 C 23.691406 12.921875 23.691406 13.601562 24.113281 14.023438 C 24.324219 14.234375 24.597656 14.339844 24.875 14.339844 C 25.152344 14.339844 25.425781 14.234375 25.636719 14.023438 L 28.5 11.164062 C 28.921875 10.742188 28.921875 10.058594 28.5 9.636719 L 25.636719 6.773438 C 25.214844 6.355469 24.535156 6.355469 24.113281 6.773438 C 23.691406 7.195312 23.691406 7.878906 24.113281 8.300781 L 25.132812 9.320312 L 21.023438 9.320312 C 19.417969 9.320312 17.902344 10.03125 16.628906 11.378906 C 15.363281 12.71875 14.605469 14.382812 14.191406 15.546875 C 13.746094 16.792969 12.925781 18.050781 11.9375 19.003906 C 10.9375 19.96875 9.882812 20.5 8.972656 20.5 L 4.226562 20.5 C 3.628906 20.5 3.148438 20.980469 3.148438 21.578125 C 3.148438 22.171875 3.628906 22.65625 4.226562 22.65625 L 8.972656 22.65625 C 12.085938 22.65625 15.105469 19.410156 16.222656 16.269531 C 16.707031 14.902344 17.410156 13.691406 18.199219 12.859375 Z M 25.636719 17.953125 C 25.214844 17.53125 24.535156 17.53125 24.113281 17.953125 C 23.691406 18.375 23.691406 19.054688 24.113281 19.476562 L 25.132812 20.5 L 21.023438 20.5 C 20.125 20.5 18.457031 20.328125 17.355469 19.183594 C 16.945312 18.757812 16.261719 18.742188 15.832031 19.15625 C 15.402344 19.570312 15.390625 20.25 15.804688 20.679688 C 17.027344 21.953125 18.882812 22.65625 21.023438 22.65625 L 25.132812 22.65625 L 24.113281 23.675781 C 23.691406 24.097656 23.691406 24.78125 24.113281 25.203125 C 24.324219 25.414062 24.597656 25.519531 24.875 25.519531 C 25.152344 25.519531 25.425781 25.414062 25.636719 25.203125 L 28.5 22.339844 C 28.921875 21.917969 28.921875 21.234375 28.5 20.816406 Z M 25.636719 17.953125 "/>
</g>
</svg>
